<?xml version="1.0"?>
<svg xmlns:rdf="http://www.w3.org/1999/02/22-rdf-syntax-ns#" xmlns="http://www.w3.org/2000/svg" xmlns:cc="http://creativecommons.org/ns#" xmlns:dc="http://purl.org/dc/elements/1.1/" xmlns:svg="http://www.w3.org/2000/svg" id="svg2" viewBox="0 0 360.84 344.84" version="1.1">
  <title id="title3790">Rock Art Saint George Sun</title>
  <path id="path3007" d="m234.75 80.517c-17.438 2.7687-33.758 5.0927-49.497 11.314-9.1358 3.6108-16.816 10.175-25.456 14.849-11.589 6.2691-24.51 10.195-35.355 17.678-10.023 6.9156-19.48 15.071-26.87 24.749-9.021 11.814-17.115 25.126-20.506 39.598-3.0652 13.083-0.95114 26.971 0.7071 40.305 1.4041 11.29-0.51641 25.447 7.7782 33.234 16.554 15.542 44.501 12.54 67.175 11.314 19.074-1.0315 38.224-6.7095 55.154-15.556 12.17-6.3595 21.726-16.854 31.82-26.163 7.4746-6.8934 14.901-13.949 21.213-21.92 11.65-14.711 24.365-29.61 30.406-47.376 3.579-10.526 6.4798-22.733 2.8284-33.234-3.5048-10.08-11.318-22.12-21.92-23.335-27.85-3.19-52.585 0.84234-77.075 9.1924-20.01 6.8227-39.606 17.471-54.447 32.527-12.232 12.409-23.838 27.986-26.163 45.255-1.9834 14.731 1.4949 31.974 11.314 43.134 7.8931 8.9709 21.331 12.387 33.234 13.435 12.479 1.0992 25.353-2.6194 36.77-7.7782 13.661-6.173 26.042-15.72 36.062-26.87 8.0518-8.9598 16.057-19.294 18.385-31.113 2.2092-11.218-1.5095-29.868-4.9498-33.941-5.8166-6.8861-32.584-2.022-48.083 2.1213-13.851 3.7027-28.794 8.964-38.184 19.799-7.0297 8.112-14.22 20.298-10.607 30.406 3.3472 9.364 15.588 14.323 25.456 15.556 13.464 1.6834 26.503-4.0503 38.891-12.021 5.7208-3.681 11.043-22.797-4.9498-19.799-9.2275 1.7296-27.101 7.1436-31.113 4.2426-3.459-2.5015-3.4104-8.9547-1.4142-12.728 4.2404-8.0151 14.873-9.2566 24.042-12.728 14.823-5.612 26.906-3.3084 34.648 4.2426 7.0535 6.8797 4.3566 12.843 2.8284 19.092-2.0047 8.1978-8.8696 14.551-14.849 20.506-8.018 7.9854-17.104 15.512-27.577 19.799-9.9342 4.066-21.495 7.8868-31.82 4.9498-12.541-3.5676-25.325-13.173-29.698-25.456-4.0164-11.281 0.61547-24.851 6.364-35.355 6.3254-11.559 17.613-20.225 28.991-26.87 16.028-9.3602 34.628-14.575 53.033-16.971 13.808-1.7975 30.064-5.4976 41.719 2.1213 6.1761 4.0374 9.6023 12.426 9.8995 19.799 0.68572 17.012-10.192 32.861-19.092 47.376-6.3747 10.396-15.107 19.277-24.042 27.577-9.4973 8.8236-19.199 18.223-31.113 23.335-18.232 7.8227-39.105 13.068-58.69 9.8995-12.907-2.0878-26.543-8.1258-34.648-18.385-7.5489-9.5546-9.9599-23.203-9.1924-35.355 0.88-13.934 8.481-26.854 15.556-38.891 4.9247-8.378 11.055-16.246 18.385-22.627 15.792-13.75 34.622-23.987 53.74-32.527 18.449-8.2411 34.724-9.2376 57.983-17.678 4.7105-1.7093 10.621-15.537-7.0711-12.728z"/>
  <path id="path2983" d="m196.13 64.894c-3.669-16.345-4.0283-23.601-5.364-35.634-1.0816-9.7438-4.426-26.127 4.9497-28.991 6.8558-2.0946 13.532 8.5098 14.849 15.556 2.8813 15.411 1.4464 19.851 1.8284 36.341 0.15719 6.7846-0.59842 17.052-7.0711 19.092-3.5545 1.1201-8.3761-2.7277-9.1924-6.364z"/>
  <path id="path2985" d="m262.18 75.929c-6.0458-4.2103-0.23259-15.219 2.8284-21.92 5.5838-12.224 8.1012-20.03 14.006-30.406 2.6443-4.6465 10.065-9.5017 14.592-6.6568 4.7078 2.9588 2.362 11.497 0.34314 16.678-5.2663 13.515-9.48 19.843-16.92 34.527-2.5256 4.9843-10.264 10.971-14.849 7.7782z"/>
  <path id="path2987" d="m309.56 138.11c-2.8947-5.9356 4.9375-14.545 11.314-16.263 9.5199-2.5664 18.753-3.886 28.077-4.6421 4.5394-0.36811 10.854 2.4872 11.763 6.9498 1.0073 4.94-4.1016 10.869-8.9706 12.178-8.5994 2.3106-19.603 2.344-29.456 2.4853-4.2488 0.0609-10.865 3.1121-12.728-0.70711z"/>
  <path id="path2991" d="m291.88 207.45c3.3683-3.3315 10.271-4.145 14.142-1.4142 9.795 6.9094 15.911 12.893 24.042 21.92 3.1588 3.5071 2.7797 10.961-0.7071 14.142-4.1826 3.816-12.868 3.1948-16.971-0.70711-6.8442-6.5094-13.976-13.146-21.92-21.213-2.9952-3.0415-1.6208-9.7261 1.4142-12.728z"/>
  <path id="path2995" d="m252.03 261.95c3.782-2.1413 9.0396 0.52954 12.728 2.8284 7.6849 4.7898 13.448 12.871 16.971 21.213 2.2176 5.2519 6.3124 13.106 2.1213 16.971-4.248 3.917-12.882 0.54756-16.971-3.5355-6.5295-6.5205-13.38-15.122-18.385-26.87-1.4608-3.4286 0.2925-8.7704 3.5355-10.607z"/>
  <path id="path2997" d="m190.76 288.77c6.0353-0.13867 11.557 8.1101 11.314 14.142-0.44369 10.994 0.995 24.951-0.7071 33.234-0.98719 4.8043-7.2871 9.7687-12.021 8.4853-5.4975-1.4905-7.4376-9.8722-7.0711-15.556 0.65935-10.226-0.9827-22.333 2.8284-32.527 1.1226-3.0029 2.4518-7.7045 5.6569-7.7782z"/>
  <path id="path2999" d="m135.09 289.68c5.1341 1.8966 4.0078 10.414 4.1568 15.885 0.20969 7.6953-0.61754 16.052-4.6213 22.627-2.6304 4.3197-6.8756 10.613-11.814 9.5208-5.2792-1.1681-7.5607-9.1646-7.1569-14.556 0.37528-5.0099 1.9744-13.989 3.6213-22.491 0.8964-4.628 9.7931-13.209 15.814-10.985z"/>
  <path id="path3003" d="m128.5 100.13c4.7778-3.6638 1.4709-12.763-1.5-18-8.0494-14.189-14.627-26.514-25.5-39-3.7278-4.2808-13.505-3.4727-17 1-3.3413 4.2756-0.08523 11.536 3 16 8.8384 12.788 17.649 23.683 28.5 35.5 2.9953 3.2618 8.9858 7.1948 12.5 4.5z"/>
  <path id="path3005" d="m81.503 139.13c2.8891-3.007 1.6958-8.9549-0.5-12.5-7.2501-11.705-15.521-23.579-25.5-33.5-3.9021-3.8796-13.065-4.7984-16.5-0.5-3.3314 4.1682 0.8651 11.182 4 15.5 8.4899 11.694 15.902 20.835 27.5 31 2.7575 2.4168 8.4596 2.644 11 0z"/>
  <path id="path3008" d="m64.503 191.63c0.64224-5.5029-5.9707-11.651-11.5-12-13.885-0.87555-27.125-0.56507-40.5-0.5-5.1342 0.025-12.686 3.869-12.5 9 0.18407 5.0848 7.9235 7.6568 13 8 15.749 1.0648 26.704 3.4005 43 1 3.3387-0.4918 8.1088-2.148 8.5-5.5z"/>
  <path id="path3010" d="m59.503 238.13c-3.1075-4.3377-10.909-1.471-16 0.5-11.51 4.4559-17.107 7.9594-28.5 14-3.9784 2.1094-3.5112 10.152-0.5 13.5 3.2397 3.6023 10.034 2.8782 14.5 1 8.028-3.3764 14.301-7.2719 24.5-13 5.734-3.2205 9.3171-11.37 6-16z"/>
  <path id="path3012" d="m85.503 279.13c4.5065 1.802 5.7193 9.4613 4 14-3.039 8.0224-4.8444 17.95-10.5 25-3.0672 3.8236-7.5064 10.458-12 8.5-4.6242-2.0152-3.5573-10.202-2-15 2.8902-8.9043 5.3657-20.016 12-27.5 2.1805-2.4599 5.4478-6.2205 8.5-5z"/>
  <metadata>
    <rdf:RDF>
      <cc:Work>
        <dc:format>image/svg+xml</dc:format>
        <dc:type rdf:resource="http://purl.org/dc/dcmitype/StillImage"/>
        <cc:license rdf:resource="http://creativecommons.org/licenses/publicdomain/"/>
        <dc:publisher>
          <cc:Agent rdf:about="http://openclipart.org/">
            <dc:title>Openclipart</dc:title>
          </cc:Agent>
        </dc:publisher>
        <dc:title>Rock Art Spiral Sun</dc:title>
        <dc:date>2011-07-03T01:29:08</dc:date>
        <dc:description>Petroglyph-like sun made from spiral that I previously uploaded.</dc:description>
        <dc:source>http://openclipart.org/detail/148081/rock-art-spiral-sun-by-serioustux</dc:source>
        <dc:creator>
          <cc:Agent>
            <dc:title>SeriousTux</dc:title>
          </cc:Agent>
        </dc:creator>
        <dc:subject>
          <rdf:Bag>
            <rdf:li>Rock art</rdf:li>
            <rdf:li>b&amp;w.</rdf:li>
            <rdf:li>black and white</rdf:li>
            <rdf:li>clip art</rdf:li>
            <rdf:li>clipart</rdf:li>
            <rdf:li>petroglyph</rdf:li>
            <rdf:li>primitive</rdf:li>
            <rdf:li>spiral</rdf:li>
            <rdf:li>sun</rdf:li>
            <rdf:li>tribal</rdf:li>
          </rdf:Bag>
        </dc:subject>
      </cc:Work>
      <cc:License rdf:about="http://creativecommons.org/licenses/publicdomain/">
        <cc:permits rdf:resource="http://creativecommons.org/ns#Reproduction"/>
        <cc:permits rdf:resource="http://creativecommons.org/ns#Distribution"/>
        <cc:permits rdf:resource="http://creativecommons.org/ns#DerivativeWorks"/>
      </cc:License>
    </rdf:RDF>
  </metadata>
</svg>
