<?xml version="1.0" encoding="UTF-8" standalone="no"?>
<svg
   xmlns:dc="http://purl.org/dc/elements/1.1/"
   xmlns:cc="http://creativecommons.org/ns#"
   xmlns:rdf="http://www.w3.org/1999/02/22-rdf-syntax-ns#"
   xmlns:svg="http://www.w3.org/2000/svg"
   xmlns="http://www.w3.org/2000/svg"
   xmlns:sodipodi="http://sodipodi.sourceforge.net/DTD/sodipodi-0.dtd"
   xmlns:inkscape="http://www.inkscape.org/namespaces/inkscape"
   version="1.1"
   id="svg2"
   xml:space="preserve"
   width="2666.6667"
   height="2666.6667"
   viewBox="0 0 2666.6667 2666.6667"
   sodipodi:docname="vecteezy_background_flat-mountain-vector_by_0120 revision.eps"><metadata
     id="metadata8"><rdf:RDF><cc:Work
         rdf:about=""><dc:format>image/svg+xml</dc:format><dc:type
           rdf:resource="http://purl.org/dc/dcmitype/StillImage" /></cc:Work></rdf:RDF></metadata><defs
     id="defs6" /><sodipodi:namedview
     pagecolor="#ffffff"
     bordercolor="#666666"
     borderopacity="1"
     objecttolerance="10"
     gridtolerance="10"
     guidetolerance="10"
     inkscape:pageopacity="0"
     inkscape:pageshadow="2"
     inkscape:window-width="640"
     inkscape:window-height="480"
     id="namedview4" /><g
     id="g10"
     inkscape:groupmode="layer"
     inkscape:label="ink_ext_XXXXXX"
     transform="matrix(1.3333333,0,0,-1.3333333,0,2666.6667)"><g
       id="g12"
       transform="scale(0.1)"><path
         d="M 0,0 H 19995.3 V 20000 H 0 V 0"
         style="fill:#7ae4ff;fill-opacity:1;fill-rule:evenodd;stroke:none"
         id="path14" /><path
         d="m 0,20000 h 19995.3 v -3074.5 c -1486.7,-773.6 -3162.3,-955.5 -4190.8,570.5 -2050,3036.7 -4062.2,2122.5 -4939.5,1426.8 -878.58,-695.7 -2488.07,-2452 -5708.24,-1500 C 3329.99,17962.6 1361.52,17394.4 0,16802.7 V 20000"
         style="fill:#48daff;fill-opacity:1;fill-rule:evenodd;stroke:none"
         id="path16" /><path
         d="m 15020.4,20000 h 4974.9 v -2454.4 c -1303.7,-479.5 -2985.2,-227.9 -3823.6,937.8 -372,517.4 -756.9,1035.9 -1151.3,1516.6 z M 0,20000 H 9117.32 C 8178.54,18926.4 7043.75,18009.8 4997.34,18666.5 3384.31,19185 1522.11,18885 0,18422 v 1578"
         style="fill:#00ccff;fill-opacity:1;fill-rule:evenodd;stroke:none"
         id="path18" /><path
         d="m 0,12176.2 c 0,0 1975.56,4458.8 5682.23,3624.9 3707.86,-833.9 3500.03,1791.8 6458.07,1750.4 2956.8,-42.5 1422.9,-3875.2 7855,-4376 V 0 H 0 v 12176.2"
         style="fill:#a7edff;fill-opacity:1;fill-rule:evenodd;stroke:none"
         id="path20" /><path
         d="m 11082.2,8773.4 c 1917.7,0 3481.2,1565 3481.2,3483.1 0,1918.2 -1563.5,3483.2 -3481.2,3483.2 -1918.83,0 -3482.27,-1565 -3482.27,-3483.2 0,-1918.1 1563.44,-3483.1 3482.27,-3483.1 v 0"
         style="fill:#ffffff;fill-opacity:1;fill-rule:evenodd;stroke:none"
         id="path22" /><path
         d="m 5213.44,12606.2 -94.47,18.9 c 12.99,-18.9 25.98,-37.8 37.79,-56.7 17.71,13 37.78,25.9 56.68,37.8 z m 2015.7,-392.2 -977.74,190.2 c 81.48,-109.9 135.8,-241 151.15,-381.5 79.12,-24.8 147.61,-68.5 203.11,-124 132.25,206.7 369.6,331.9 623.48,315.3 z M 0,17687.4 c 194.84,-216.2 321.191,-490.2 354.254,-785.5 141.703,-46.1 265.691,-124 366.062,-223.2 265.692,414.6 766.374,646.1 1278.854,546.8 653.01,-127.5 1086.38,-746.4 988.37,-1398.4 140.52,-70.9 250.34,-187.8 310.56,-328.4 226.73,104 487.69,140.6 751.02,88.6 653.01,-127.5 1085.2,-746.5 988.37,-1398.4 114.54,-56.7 209.01,-146.5 272.78,-255.2 171.22,125.2 390.86,181.9 615.22,138.2 344.81,-67.3 592.78,-350.8 630.57,-682.7 79.12,-25.9 147.61,-68.5 203.11,-124 147.6,230.3 426.28,359.1 710.87,303.6 362.52,-70.9 602.23,-414.6 547.91,-776 144.06,-72.1 227.9,-232.7 196.02,-398.1 -38.97,-198.4 -230.27,-327.1 -428.65,-289.3 l -384.95,75.5 c 315.28,-103.9 513.66,-421.6 464.07,-754.7 144.06,-70.9 227.9,-232.7 196.02,-396.8 -38.97,-198.5 -230.27,-328.4 -428.65,-289.4 -968.29,187.8 -1858.65,361.4 -2865.91,557.5 -173.59,34.2 -309.38,152.3 -374.33,303.5 L 0,12456.2 v 5231.2"
         style="fill:#ddf8ff;fill-opacity:1;fill-rule:evenodd;stroke:none"
         id="path24" /><path
         d="m 17647.8,12606.2 94.4,18.9 c -13,-18.9 -26,-37.8 -37.8,-56.7 -17.7,13 -37.8,25.9 -56.6,37.8 z M 15632,12214 l 977.8,190.2 c -81.5,-109.9 -135.8,-241 -151.2,-381.5 -79.1,-24.8 -147.6,-68.5 -203.1,-124 -132.2,206.7 -369.6,331.9 -623.5,315.3 z m 4363.3,4359.6 c -113.4,-223.3 -161.8,-481.9 -121.7,-746.5 -140.5,-70.9 -250.3,-187.8 -310.5,-328.4 -226.7,104 -487.7,140.6 -751,88.6 -653,-127.5 -1085.2,-746.5 -988.4,-1398.4 -114.5,-56.7 -209,-146.5 -272.8,-255.2 -171.2,125.2 -390.8,181.9 -615.2,138.2 -344.8,-67.3 -592.8,-350.8 -630.6,-682.7 -79.1,-25.9 -147.6,-68.5 -203.1,-124 -147.6,230.3 -426.3,359.1 -710.8,303.6 -362.6,-70.9 -602.3,-414.6 -548,-776 -144,-72.1 -227.9,-232.7 -196,-398.1 39,-198.4 230.3,-327.1 428.7,-289.3 l 384.9,75.5 c -315.3,-103.9 -513.6,-421.6 -464,-754.7 -144.1,-70.9 -228,-232.7 -196.1,-396.8 39,-198.5 230.3,-328.4 428.7,-289.4 968.3,187.8 1858.6,361.4 2865.9,557.5 173.6,34.2 309.4,152.3 374.3,303.5 l 1525.7,296.5 v 4676.1"
         style="fill:#ddf8ff;fill-opacity:1;fill-rule:evenodd;stroke:none"
         id="path26" /><path
         d="m 7248.04,12501 8.26,-4.7 v 3.6 z m -193.66,100.4 105.09,-54.3 15.35,30.7 -23.61,-1.2 30.7,61.4 -18.89,-5.9 30.7,54.4 -8.27,-2.4 1.18,-3.5 -132.25,-5.9 z m -151.15,78 105.1,-54.3 v 49.6 z m -484.15,250.4 120.45,-62.6 v 57.9 z m -122.81,63.8 107.46,-55.5 37.79,81.5 -27.16,-2.4 35.43,74.4 -21.26,-7.1 36.61,66.2 -10.63,-2.4 2.36,-5.9 -160.6,-5.9 z m -158.23,147.6 62.59,-98 40.14,-20.1 v 113.4 z m -122.81,190.2 88.57,-137 23.61,50.7 -31.88,-3.5 41.33,86.2 -24.8,-8.2 42.51,75.5 -38.96,-8.2 15.35,-33.1 -115.73,-4.7 z m -127.53,197.2 11.81,-17.7 12.99,24.8 -8.27,-2.4 2.36,-3.5 z m -1401.66,802 2.36,-5.9 2.36,4.7 z m 8.26,42.5 -11.81,4.7 h -1.18 1.18 l -10.62,4.8 12.99,-26 z m -1.18,5.9 2.36,-3.5 1.18,4.7 z m 128.71,-138.2 -21.25,2.4 18.89,-7.1 z m 33.07,151.2 -5.91,2.4 3.55,-8.3 z m 14.17,-5.9 -2.36,1.2 -12.99,-3.5 5.9,-11.9 z m 138.16,-250.4 -5.91,2.4 4.73,-3.6 z m 180.67,-145.3 -12.99,3.6 4.72,-11.8 2.36,-1.2 z m 2.36,7.1 1.18,-1.2 v 1.2 z m -9.45,43.7 -11.81,5.9 16.53,-36.6 16.54,27.2 -24.8,-1.2 z m -2406.56,-461.8 2.36,-5.9 2.36,4.7 z m 8.26,42.5 -11.81,4.8 h -1.18 1.18 l -10.62,4.7 12.98,-26 z m -1.18,5.9 2.36,-3.5 2.36,4.7 z m 128.71,-139.4 -21.25,3.6 18.89,-7.1 z m 33.07,151.2 -5.91,3.6 3.55,-8.3 z m 14.17,-4.7 h -2.36 l -12.99,-2.3 5.9,-11.9 z m 138.16,-250.4 -5.91,1.2 4.73,-3.5 z m 180.67,-145.3 -12.99,3.6 4.72,-11.8 2.36,-2.4 z m 2.36,7.1 1.18,-1.2 v 1.2 z m -9.45,42.5 -11.81,6 16.53,-36.7 16.54,28.4 -24.8,-1.2 z m 135.8,122.9 59.04,152.4 603.41,959 265.69,-101.6 25.98,36.7 -24.8,1.1 33.07,50.8 -18.9,-3.5 36.61,67.3 -15.35,-5.9 33.06,93.3 31.89,-105.1 -14.17,10.6 36.6,-80.3 -18.89,10.6 31.88,-62.6 -23.62,8.3 44.88,-81.5 21.25,-8.3 8.27,15.4 -16.53,-2.4 27.16,42.6 -25.98,-1.2 51.95,74.4 -23.61,1.2 31.88,50.8 -18.89,-3.6 36.6,67.3 -14.17,-5.9 31.89,93.3 33.06,-105.1 -15.35,10.6 36.6,-80.3 -18.89,10.7 33.06,-62.6 -24.79,8.2 43.69,-77.9 18.89,31.9 -24.8,-1.2 51.96,74.4 h -23.62 l 31.89,52 -18.9,-3.6 36.61,67.3 -14.17,-5.9 31.88,93.3 33.07,-105.1 -15.35,10.7 36.6,-80.4 -18.89,10.7 33.06,-62.6 -24.8,8.2 40.15,-73.2 25.98,46.1 -15.35,-5.9 33.06,93.3 31.89,-105.1 -14.17,10.6 36.6,-80.3 -18.89,10.6 31.88,-62.6 -23.61,8.3 51.95,-94.5 -25.98,10.6 27.16,-52 -16.53,8.3 23.62,-53.1 34.24,50.7 h -23.61 l 31.88,52 -18.89,-3.5 36.6,66.1 -14.17,-5.9 31.88,94.5 33.07,-106.3 -15.35,11.8 36.6,-80.3 -18.89,10.6 33.06,-63.8 -24.79,8.3 51.95,-93.3 -24.79,10.6 23.61,-47.2 47.24,67.3 -24.8,1.2 33.06,52 -18.89,-4.8 36.6,67.4 -15.35,-5.9 33.07,94.4 31.88,-106.3 -14.17,11.9 36.61,-80.4 -18.9,10.7 31.89,-63.8 -23.62,8.3 51.96,-93.4 -24.8,10.7 25.98,-52 -16.53,8.3 25.97,-57.9 -18.89,4.7 29.52,-67.3 -66.13,8.3 98.01,-83.9 419.2,-62.6 15.36,27.2 -33.07,-7.1 68.49,112.2 -31.88,-4.7 42.51,76.7 -24.8,-9.4 49.6,98 -20.08,-11.8 43.69,133.5 42.51,-133.5 -20.07,11.8 49.6,-98 -24.8,9.4 43.69,-76.7 -33.07,4.7 69.67,-112.2 -34.24,7.1 35.43,-62.6 -21.26,7.1 34.24,-70.9 -24.79,2.4 29.52,-63.8 47.23,76.8 -28.34,-3.6 37.79,66.1 -22.44,-8.2 43.69,86.2 -17.71,-10.6 37.79,116.9 37.79,-116.9 -17.72,10.6 43.69,-86.2 -22.43,8.2 37.79,-66.1 -28.34,3.6 60.22,-98.1 -29.52,7.1 30.7,-54.3 -17.71,5.9 29.52,-62.6 -22.44,2.3 18.9,-38.9 82.65,134.6 -40.14,-7.1 53.13,93.3 -30.7,-11.8 59.04,119.3 -23.61,-14.2 51.95,161.9 53.14,-161.9 -24.8,14.2 60.23,-119.3 -30.7,11.8 51.95,-93.3 -38.96,7.1 83.84,-137 -40.15,9.4 42.51,-75.5 -25.98,8.2 41.33,-86.2 -30.7,3.5 35.42,-77.9 57.86,94.5 -34.24,-5.9 46.05,81.5 -27.16,-10.7 51.96,104 -21.26,-11.8 46.06,140.5 46.05,-140.5 -21.26,11.8 51.96,-104 -27.16,10.7 46.06,-81.5 -34.25,5.9 73.21,-119.3 -35.42,8.3 36.6,-66.2 -21.25,7.1 35.42,-74.4 -27.15,2.4 41.32,-88.6 -140.52,-5.9 v -82.7 l 292.85,-151.2 34.25,73.2 -25.98,-2.3 34.24,70.8 -21.25,-7.1 35.42,62.6 -34.24,-7 69.67,112.2 -31.88,-4.8 42.51,76.8 -24.8,-9.4 49.6,99.2 -20.08,-11.8 42.51,133.4 43.69,-133.4 -20.07,11.8 49.59,-99.2 -24.79,9.4 42.51,-76.8 -31.89,4.8 68.49,-112.2 -33.06,7 35.42,-62.6 -21.25,7.1 34.24,-70.8 -25.98,2.3 29.53,-63.8 48.41,78 -28.34,-4.7 37.79,66.1 -22.44,-8.2 42.51,86.2 -16.53,-9.5 37.79,115.8 37.78,-115.8 -17.71,9.5 43.69,-86.2 -22.43,8.2 37.78,-66.1 -28.34,4.7 60.23,-98 -29.52,5.9 30.7,-54.4 -17.72,5.9 29.53,-61.4 -22.44,1.2 34.24,-73.2 -115.72,-4.7 v -23.7 l 69.67,-36.6 1084.02,-41.3 645.92,-626 229.09,-750 749.85,-624.9 694.3,-366.1 -140.5,-191.3 -308.2,36.6 -218.5,-161.8 -53.1,-255.2 -233.8,-178.3 -141.7,105.1 -203.11,-125.2 -62.58,-548 -93.29,-370.9 -120.45,-46.1 -103.91,-135.8 -79.12,119.3 -177.13,73.2 -490.05,-271.6 -1446.53,-2085.9 c -109.82,13 -222,26 -340.09,39 l 77.94,-17.7 -573.89,131.1 -213.74,340.1 -862.02,-1243.7 c -109.81,13 -221.99,24.8 -340.08,39 l 77.94,-17.7 -573.89,129.9 -521.94,835 -833.68,1433.9 -886.81,1226 -209.01,757.1 -442.82,756 -573.892,338.9 -461.711,192.6 173.586,585.8 792.347,855.1 166.5,437.1 603.41,957.8 265.69,-100.3 25.98,36.6 h -24.8 l 33.07,51.9 -18.9,-3.5 36.61,67.3 -15.35,-7.1 33.06,94.5 31.89,-106.3 -14.17,11.8 36.6,-80.3 -18.89,10.6 31.88,-63.7 -23.62,8.2 44.88,-80.3 21.25,-8.3 8.27,15.4 -16.53,-2.4 27.15,41.4 -24.79,-1.2 50.77,75.6 h -23.61 l 31.88,52 -18.89,-3.6 36.6,67.3 -14.17,-7 31.88,94.4 33.07,-105.1 -15.35,10.7 36.6,-80.4 -18.89,10.7 33.06,-63.8 -24.79,8.3 43.69,-78 18.89,31.9 -24.8,-1.2 51.96,75.6 h -23.62 l 31.89,52 -18.9,-3.6 36.61,66.2 -14.17,-5.9 31.88,94.5 33.07,-106.3 -15.36,11.8 36.61,-80.4 -18.89,10.7 33.06,-63.8 -24.8,8.3 40.15,-73.3 25.98,47.3 -15.35,-7.1 33.06,94.5 31.89,-106.3 -14.17,11.8 36.6,-80.3 -18.89,10.6 31.88,-63.8 -23.62,8.3 51.96,-93.3 -25.98,10.6 27.16,-52 -16.53,8.3 23.62,-53.1 34.24,49.6 -23.61,1.2 31.88,50.7 -18.9,-3.5 37.79,67.3 -15.35,-5.9 31.88,94.5 33.07,-106.3 -15.35,11.8 36.6,-80.3 -18.89,10.6 33.06,-63.8 -24.8,8.3 51.96,-93.3 -24.8,9.4 23.62,-46 47.24,67.3 -24.8,1.2 33.06,50.8 -18.89,-3.6 36.6,67.4 -15.35,-5.9 33.07,93.3 31.88,-105.2 -14.17,11.9 z m -5.91,-16.6 1.18,2.4 -3.54,1.2 z"
         style="fill:#336699;fill-opacity:1;fill-rule:evenodd;stroke:none"
         id="path28" /><path
         d="m 8790.22,10164.8 8.27,-4.8 v 4.8 z m -207.83,107.5 112.18,-57.9 16.54,33 -24.8,-2.3 31.88,66.1 -18.89,-5.9 31.88,57.9 -8.27,-2.4 1.19,-4.7 -141.71,-4.7 z m -160.59,82.6 111,-57.8 v 54.3 z m -517.21,268.1 128.71,-66.1 v 61.4 z m -132.26,68.6 114.55,-59.1 40.14,86.2 -28.34,-2.3 37.79,80.3 -23.62,-8.3 40.15,70.9 -11.81,-2.4 2.37,-5.9 -171.23,-7.1 z m -168.86,157 66.13,-103.9 43.69,-22.4 v 121.6 z m -132.25,203.2 95.65,-146.5 24.79,54.4 -33.06,-3.6 43.69,92.2 -27.16,-8.3 46.05,80.3 -41.33,-9.4 15.36,-34.3 -123.99,-4.7 z m -135.8,211.4 12.99,-18.9 14.17,26 -9.45,-2.4 2.36,-3.5 z m -1497.31,856.3 2.36,-5.9 2.36,5.9 z m 8.26,46.1 -11.81,4.7 h -1.18 v 1.2 l -10.62,4.7 14.17,-28.3 z m -1.18,7.1 2.36,-4.7 2.36,4.7 z m 138.16,-148.8 -22.44,3.5 18.9,-8.3 z m 35.43,161.8 -7.09,2.3 4.72,-8.2 z m 14.17,-5.9 h -1.18 l -14.18,-2.4 5.91,-13 z m 148.78,-267 -5.9,1.2 3.54,-3.5 z m 192.48,-155.9 -14.17,3.6 5.9,-11.8 2.37,-2.4 z m 2.36,7.1 1.18,-1.2 1.18,2.4 z m -10.63,46.1 -11.8,7.1 16.53,-39 18.89,29.5 -25.98,-1.2 z m -2100.72,108.6 2.36,-5.9 2.36,4.8 z m 8.26,46.1 -11.8,4.7 -1.19,-1.2 v 1.2 l -10.62,4.8 14.17,-28.4 z m -1.18,5.9 2.36,-4.7 2.37,4.7 z m 138.16,-148.8 -23.61,3.5 20.07,-8.2 z m 35.43,161.8 -7.09,2.4 3.55,-7.1 z m 14.17,-5.9 -2.36,1.2 -14.17,-3.6 7.08,-13 z m 147.6,-266.9 -5.9,1.1 4.72,-3.5 z m 167.68,-22.5 94.47,151.2 22.44,62.6 5.9,-20.1 278.68,443 284.59,-107.5 27.16,38.9 -25.98,1.2 34.24,54.4 -20.07,-3.6 38.96,70.9 -15.35,-5.9 34.25,100.4 34.24,-113.4 -15.35,13 38.97,-86.2 -20.07,10.6 35.42,-67.3 -25.98,9.4 47.24,-86.2 23.61,-9.5 8.27,16.6 -16.53,-2.4 27.16,44.9 -25.98,-1.2 55.5,79.1 -25.98,1.2 34.24,55.5 -20.07,-4.7 38.97,72.1 -15.35,-7.1 34.24,100.4 34.25,-112.2 -15.36,11.8 38.97,-86.2 -20.07,11.8 35.42,-67.4 -25.98,8.3 46.06,-83.9 21.25,34.3 -27.16,-1.2 55.5,80.3 -25.97,1.2 34.24,54.4 -20.08,-3.6 38.97,70.9 -15.35,-5.9 34.25,100.4 35.42,-113.4 -16.53,13 40.15,-86.2 -21.26,10.6 35.43,-67.3 -25.98,9.4 42.51,-79.1 28.34,49.6 -16.53,-5.9 34.24,100.4 35.43,-113.4 -16.53,13 40.15,-86.3 -21.26,10.7 35.43,-67.4 -25.98,8.3 55.5,-99.2 -27.16,10.6 28.34,-55.5 -16.53,9.5 24.79,-56.7 36.61,53.1 -25.98,1.2 34.25,54.3 -20.08,-3.5 40.15,70.9 -16.53,-5.9 34.24,100.4 35.43,-113.4 -16.53,13 40.15,-86.3 -20.08,10.7 34.25,-67.4 -25.98,9.5 55.5,-100.4 -27.16,10.6 25.98,-49.6 49.59,72.1 -25.98,1.2 35.43,54.3 -21.26,-3.6 40.15,72.1 -16.53,-7.1 35.43,100.4 34.24,-112.2 -15.35,11.8 38.97,-86.2 -20.08,11.8 34.25,-67.3 -25.98,8.2 55.5,-100.4 -25.98,11.9 27.16,-55.6 -16.53,8.3 27.16,-61.4 -20.08,5.9 30.7,-73.2 -69.67,9.4 103.92,-89.8 448.72,-66.1 16.53,28.3 -35.42,-8.2 73.21,120.5 -34.24,-4.8 46.05,81.5 -27.16,-10.6 53.14,106.3 -21.26,-13 46.05,142.9 46.06,-142.9 -21.26,13 53.14,-106.3 -27.16,10.6 46.05,-81.5 -34.24,4.8 73.21,-120.5 -35.42,8.2 37.78,-66.1 -22.43,7.1 36.6,-75.6 -27.16,2.4 30.71,-68.5 50.77,82.6 -29.52,-4.7 40.15,72.1 -23.62,-9.5 46.06,92.1 -18.9,-10.6 40.15,124 41.33,-124 -18.89,10.6 46.05,-92.1 -23.62,9.5 40.15,-72.1 -30.7,4.7 64.95,-105.1 -30.71,7.1 31.89,-57.9 -18.9,5.9 31.89,-66.1 -24.8,2.4 20.07,-42.6 88.57,144.1 -42.51,-5.9 56.68,99.2 -33.07,-13 63.77,127.6 -25.98,-15.3 56.68,172.4 55.5,-172.4 -25.98,15.3 64.95,-127.6 -33.06,13 55.5,-99.2 -41.33,5.9 88.56,-145.2 -42.51,9.4 44.87,-80.3 -27.16,8.3 44.87,-92.2 -34.24,3.6 38.97,-82.7 61.4,100.4 -36.61,-5.9 48.42,86.2 -28.34,-10.6 55.5,111 -22.44,-13 49.6,151.2 48.41,-151.2 -22.43,13 55.5,-111 -28.34,10.6 48.41,-86.2 -36.61,5.9 77.94,-126.4 -37.79,8.3 40.15,-70.9 -23.61,8.3 37.78,-80.3 -28.34,2.3 43.69,-94.5 -149.96,-5.9 v -88.6 l 312.92,-161.8 36.61,79.2 -28.34,-3.6 36.6,76.8 -22.43,-7.1 37.78,66.1 -35.42,-8.2 73.21,120.5 -34.24,-4.8 46.05,81.5 -27.16,-10.6 53.14,106.3 -21.26,-13 46.06,142.9 46.05,-142.9 -21.26,13 53.14,-106.3 -27.16,10.6 46.06,-81.5 -34.25,4.8 74.39,-120.5 -36.6,8.2 37.79,-66.1 -22.44,7.1 36.6,-76.8 -27.15,3.6 31.88,-68.5 50.78,82.6 -30.71,-4.7 40.15,70.9 -23.62,-8.3 46.06,92.1 -18.9,-10.6 41.33,124 40.15,-124 -18.89,10.6 46.05,-92.1 -23.61,8.3 40.14,-70.9 -29.52,4.7 63.77,-105.1 -30.7,7.1 33.06,-57.9 -20.07,5.9 31.88,-66.1 -23.62,2.3 36.61,-77.9 -123.99,-4.7 v -26 l 75.57,-40.2 1157.23,-43.7 689.6,-668.5 245.6,-800.8 800.6,-668.5 742.8,-391 -150,-204.3 -329.4,39 -233.8,-173.7 -55.5,-272.8 -251.6,-189 -149.9,111.1 -217.3,-133.5 -67.3,-585.9 -100.4,-395.6 -128.7,-50.8 -111,-144.1 -83.8,127.5 -189,78 -524.26,-289.4 -1545.73,-2228.8 c -118.08,13 -237.35,26 -363.7,41.4 l 82.66,-18.9 -612.86,139.4 -201.92,323.6 -477.06,-687.4 c -118.09,13 -238.54,27.1 -363.7,41.3 l 82.65,-18.9 -612.86,139.4 -557.35,891.7 -891.54,1533.1 -947.04,1309.9 -223.18,807.9 -473.52,809.1 -612.86,361.4 -494.78,206.7 186.58,626 845.48,913 178.31,467.7 645.92,1024.1 284.59,-108.7 27.16,39 -25.98,1.2 34.24,54.3 -20.07,-3.6 38.97,72.1 -15.35,-7.1 34.24,100.4 34.25,-112.2 -15.36,11.8 38.97,-86.2 -20.07,11.8 34.24,-68.5 -25.98,9.4 48.42,-86.2 22.43,-9.4 9.45,16.5 -16.53,-2.4 27.16,44.9 -25.98,-1.2 54.32,80.4 h -25.98 l 35.43,55.5 -20.08,-4.8 38.97,72.1 -15.35,-5.9 34.24,100.4 34.25,-113.4 -15.35,11.8 38.96,-86.2 -20.07,11.8 34.24,-67.3 -25.97,8.2 46.05,-82.6 21.25,33 -25.97,-1.1 55.5,80.3 -25.98,1.1 34.24,54.4 -20.07,-3.6 38.97,72.1 -15.36,-7.1 34.25,100.4 34.24,-112.2 -15.35,11.8 38.97,-86.2 -20.07,11.8 35.42,-68.5 -25.98,9.4 42.51,-77.9 27.16,49.6 -15.35,-7.1 34.25,100.4 35.42,-113.4 -16.53,13 40.15,-86.2 -21.26,11.8 35.43,-68.5 -25.98,9.4 54.32,-100.4 -25.98,10.7 28.34,-54.4 -17.71,8.3 25.98,-56.7 36.6,53.2 -25.98,1.1 34.25,54.4 -20.08,-3.6 38.97,72.1 -15.35,-7.1 34.25,100.4 35.42,-112.2 -16.53,11.8 40.15,-86.2 -21.26,11.8 35.43,-68.5 -25.98,9.4 34.24,-62.6"
         style="fill:#254b70;fill-opacity:1;fill-rule:evenodd;stroke:none"
         id="path30" /><path
         d="m 12708.3,5455.6 -150,-135.8 -55.5,115.7 59,-18.9 -99.1,176 28.3,-5.9 -7.1,-14.1 340.1,-13 z m -3683.09,2804 64.95,-99.2 80.3,105.1 z m 471.16,1758.7 8.27,-15.4 -8.27,3.6 z m -369.61,-1640.6 31.89,-69.7 16.53,-33 1.18,-2.4 17.71,23.6 47.24,17.7 v 59.1 z m -64.94,315.4 -9.45,2.3 v 0 l 5.9,-10.6 z m -17.72,109.8 23.62,-36.6 25.98,48.4 z m 397.95,210.3 h -22.44 l 18.9,-30.7 z m -7.08,147.6 -48.42,17.7 30.7,-54.3 z m -10.63,26 11.81,-22.4 11.8,24.8 z m 525.47,245.7 1.19,-2.4 -4.73,1.2 -5.9,-2.4 2.36,3.6 -60.22,13 44.87,-79.2 30.7,23.6 25.98,53.2 z m 1036.79,892.9 15.3,21.3 -34.2,13 z m -2440.81,-2131.9 121.62,67.3 -129.89,4.7 22.44,-36.6 -38.97,9.5 z m 8186.81,4850.9 h -5.9 l 4.7,-2.4 z m -299.9,242.1 1.1,-1.2 h -2.3 -1.2 l 8.3,-14.2 10.6,18.9 z m -268.1,61.4 7.1,10.6 -10.6,-2.3 z m -11.8,-21.3 10.6,17.8 -21.2,8.2 -3.6,-1.2 z m -283.4,-243.3 4.7,8.3 -10.6,1.2 z m 503,-3966.2 -323.5,-211.4 -350.7,-229.2 -129.9,232.7 147.6,-33 -308.2,500.8 145.2,-21.3 -192.4,341.3 112.1,-42.5 -220.8,439.4 89.8,-52 -193.7,594.1 -192.5,-594.1 88.6,52 -220.8,-439.4 113.3,42.5 -192.4,-341.3 144,21.3 -307,-500.8 147.6,33 -155.9,-277.5 93.3,29.5 -152.3,-315.4 114.5,10.7 -131,-283.5 -211.4,343.7 125.2,-18.9 -167.7,297.6 99.2,-37.7 -192.5,383.8 76.7,-46 -167.6,518.5 -168.9,-518.5 77.9,46 -192.4,-383.8 99.1,37.7 -168.8,-297.6 126.3,18.9 -268,-437 128.7,29.5 -135.8,-242.1 81.5,26 -132.3,-275.2 99.2,9.4 -151.1,-327.2 516,-20 v -581.2 l -581,-525.6 -96.8,173.7 107.4,-24.8 -223.1,363.8 105.1,-15.4 -140.6,246.9 82.7,-30.8 -160.6,320.1 65,-37.8 -140.6,431.1 -140.5,-431.1 65,37.8 -160.6,-320.1 82.6,30.8 -140.5,-246.9 105.1,15.4 -223.2,-363.8 107.5,24.8 -113.4,-202 67.3,21.3 -109.8,-229.2 83.8,8.3 -96.8,-206.7 -152.3,250.4 90.9,-14.2 -121.6,216.2 70.8,-27.2 -139.3,278.7 56.7,-33 -122.8,375.6 -121.7,-375.6 56.7,33 -140.5,-278.7 72,27.2 -93.3,-164.2 -28.3,-52 88.6,13 2.3,1.2 -194.8,-317.7 94.5,21.2 -99.2,-176 59,18.9 -96.8,-199.6 73.2,7.1 -109.8,-237.4 358.9,-14.2 -1844.4,-1299.2 -3446.93,2201.6 1082.84,1561.5 37.79,82.6 -29.52,-3.5 40.15,83.9 -24.8,-8.3 41.33,73.2 -38.97,-8.2 80.3,132.2 -37.79,-5.9 50.78,89.8 -29.52,-11.8 57.86,116.9 -23.62,-14.2 50.78,157.1 51.95,-157.1 -23.61,14.2 57.86,-116.9 -29.52,11.8 31.88,-56.7 108.64,157.1 -54.32,1.2 46.05,99.2 -30.7,-2.4 40.15,82.7 -24.8,-7.1 41.33,73.3 -38.97,-9.5 81.48,132.3 -37.79,-5.9 50.78,90.9 -30.7,-11.8 59.04,115.8 -23.62,-13 50.78,155.9 50.78,-155.9 -23.62,13 57.86,-115.8 -29.52,11.8 50.78,-90.9 -37.79,5.9 57.86,-94.5 80.3,172.4 -53.14,-4.7 70.85,146.5 -43.69,-14.2 72.03,128.7 -68.49,-15.3 142.88,232.7 -67.3,-10.7 89.74,158.3 -53.14,-20.1 102.74,204.4 -41.33,-24.8 89.74,275.2 89.75,-275.2 -41.33,24.8 101.55,-204.4 -51.96,20.1 89.75,-158.3 -67.31,10.7 57.86,-95.7 132.25,213.8 -67.3,-10.6 89.74,158.2 -51.96,-18.9 101.56,203.2 -41.33,-23.6 89.74,275.2 89.74,-275.2 -41.33,23.6 73.22,-146.5 54.32,114.6 -42.51,-14.2 72.03,128.8 -68.49,-15.4 142.88,232.7 -67.31,-10.6 89.75,158.2 -53.14,-20 102.73,204.3 -41.33,-24.8 89.75,275.2 88.56,-275.2 -41.33,24.8 102.73,-204.3 -51.95,20 88.56,-158.2 -66.13,10.6 136.98,-224.4 66.13,119.3 -68.49,-15.4 142.89,232.7 -67.3,-10.6 89.7,158.2 -53.1,-20 102.7,204.3 -41.3,-24.8 89.7,275.2 89.8,-275.2 -41.3,24.8 101.5,-204.3 -52,20 26,-47.2 295.2,-35.4 20.1,40.1 -43.7,-13 72.1,128.8 -68.5,-15.4 142.8,231.5 -67.3,-9.4 89.8,157.1 -53.2,-18.9 102.8,203.1 -41.4,-23.6 89.8,275.2 88.6,-275.2 -40.2,23.6 93.3,-185.4 311.7,422.8 564.5,-16.5 89.7,88.6 13,115.7 204.3,125.2 17.7,-13 328.3,215 h 55.5 l 26,126.4 218.4,161.8 308.2,-36.6 694.4,942.5 564.4,-16.5 315.3,309.4 337.7,220.9 h 210.2 l 121.6,-21.3 17.7,-3.5 26,43.7 -37.8,-5.9 50.8,89.7 -29.5,-11.8 57.9,117 -23.7,-14.2 50.8,157.1 50.8,-157.1 -23.6,14.2 59,-117 -29.5,11.8 50.8,-89.7 -39,4.7 56.7,-90.9 29.5,-7.1 26,44.9 -39,-8.3 80.3,132.3 -37.8,-5.9 50.8,89.7 -29.5,-10.6 57.8,115.8 -23.6,-14.2 50.8,157.1 50.8,-157.1 -22.5,14.2 57.9,-115.8 -29.5,10.6 34.2,-61.4 37.8,72.1 37.8,-2.4 52,85 -37.8,-5.9 50.8,89.8 -29.6,-11.8 57.9,116.9 -23.6,-14.1 50.8,157 50.7,-157 -23.6,14.1 40.2,-80.3 63.7,104 -37.8,-6 50.8,89.8 -29.5,-11.8 57.9,116.9 -23.7,-14.1 50.8,157 50.8,-157 -23.6,14.1 59,-116.9 -30.7,11.8 52,-89.8 -39,4.8 81.5,-131.1 -39,8.2 30.7,-55.5 68.5,109.9 -39,-5.9 50.8,90.9 -29.5,-11.8 59,115.7 -23.6,-12.9 50.8,155.9 50.8,-155.9 -23.6,12.9 57.8,-115.7 -29.5,11.8 50.8,-90.9 -37.8,5.9 81.5,-132.3 -40.2,9.4 41.3,-73.2 -23.6,7.1 39,-82.7 -29.5,2.4 26,-56.7 22.4,43.7 -24.8,-8.3 41.3,73.2 -40.1,-8.2 81.4,132.3 -37.7,-5.9 50.7,89.7 -29.5,-10.6 57.9,115.7 -23.6,-14.1 50.7,157 50.8,-157 -22.4,14.1 57.8,-115.7 -29.5,10.6 17.7,-31.9 161.8,297.7 231.5,-100.4 139.3,-30.7 264.5,354.3 h 171.2 l 324.8,-41.3 -106.3,-528 -102.8,-65 c 0,0 -75.5,-349.6 -75.5,-402.7 0,-53.2 -337.7,-668.5 -337.7,-668.5 l -164.2,-78 c 0,0 -62.6,-242.1 -69.7,-281.1 -8.2,-39 -125.1,-86.2 -125.1,-86.2 0,0 -257.5,-125.2 -296.4,-132.3 -39,-8.3 -203.1,-172.5 -203.1,-172.5 0,0 54.3,-249.2 62.6,-320 7,-69.7 93.2,-311.9 93.2,-374.5 0,-62.6 0,-367.3 0,-422.8 0,-54.3 -47.2,-171.3 -77.9,-281.1 -31.9,-108.7 -62.6,-108.7 -133.4,-155.9 -69.7,-47.3 -147.6,-265.8 -147.6,-265.8 0,0 -68.5,-213.8 -139.4,-439.4 l -43.7,-60.2"
         style="fill:#1e3d5b;fill-opacity:1;fill-rule:evenodd;stroke:none"
         id="path32" /><path
         d="m 10996,7915.9 -11.8,-5.9 v 5.9 z m 322.4,166.5 -174.8,-89.7 -24.7,51.9 37.7,-3.5 -49.6,101.6 30.7,-9.5 -50.7,91 14.1,-3.6 -3.5,-7.1 220.8,-8.2 z m 249.2,128.8 -173.6,-89.8 v 83.9 z m 801.8,415.7 -199.6,-103.9 v 95.7 z m 204.3,106.3 -178.4,-92.1 -62.5,133.5 44.8,-3.6 -59,122.9 36.6,-10.7 -61.4,108.7 17.7,-3.5 -4.7,-9.5 266.9,-10.6 z m 262.1,242.2 -103.9,-160.7 -66.1,-34.2 v 187.8 z m 203.1,315.3 -146.4,-226.7 -39,83.8 50.8,-4.7 -68.5,141.7 42.5,-13 -70.8,125.2 64.9,-14.1 -26,-54.4 192.5,-7.1 z m 211.4,327.2 -20.1,-29.5 -22.4,41.3 14.1,-3.5 -3.5,-7.1 z m 2320.3,1327.6 -4.7,-9.5 -3.5,8.3 z m -12.9,72 17.7,7.1 2.3,-1.2 -1.2,1.2 17.8,7.1 -22.5,-42.5 z m 1.1,9.5 -3.5,-7.1 -3.5,7.1 z m -213.7,-230.3 35.4,4.7 -30.7,-11.8 z m -55.5,250.4 11.8,4.7 -7.1,-13 z m -22.4,-9.5 3.5,1.2 21.3,-4.7 -9.5,-20.1 z m -229.1,-413.4 9.4,2.4 -7.1,-5.9 z m -298.8,-240.9 21.3,5.9 -8.3,-20.1 -3.5,-3.5 z m -4.7,11.8 v -2.4 l -1.2,2.4 z m 17.7,70.8 18.9,9.5 -27.1,-60.2 -28.4,46 41.3,-2.3 z m 3255.6,166.6 -4.7,-8.3 -3.6,8.3 z m -13,72 17.7,7.1 h 2.4 l -1.2,1.2 17.7,7.1 -22.4,-43.7 z m 1.2,9.5 -3.5,-5.9 -3.6,7.1 z m -213.7,-230.3 35.4,4.7 -30.7,-10.6 z m -55.5,250.4 11.8,4.7 -7.1,-13 z m -22.5,-9.5 3.6,2.4 21.2,-4.7 -9.4,-21.3 z m -229,-413.4 9.4,2.4 -7.1,-5.9 z M 5988.07,4793 l -10.62,-4.7 v 4.7 z m 258.61,134.7 -140.52,-73.3 -18.89,42.5 29.52,-3.5 -40.15,82.7 24.79,-7.1 -41.33,72 11.81,-2.3 -2.36,-5.9 177.13,-7.1 z m 200.74,103.9 -139.34,-72.1 v 66.2 z m 644.75,334.3 -160.6,-83.9 v 76.8 z m 164.13,85 -142.88,-74.4 -50.78,108.6 36.61,-3.5 -47.23,99.2 28.34,-9.4 -48.42,87.4 14.17,-2.4 -3.54,-7.1 213.73,-9.4 z m 211.37,194.9 -83.84,-128.8 -53.13,-28.3 v 151.2 z m 162.96,253.9 -116.9,-183.1 -31.89,68.6 41.33,-4.8 -55.5,114.6 34.25,-10.6 -56.68,100.4 51.96,-11.8 -20.08,-42.6 153.51,-7.1 z m 142.88,270.5 -2.36,-5.9 -4.72,7.1 z m 247.98,621.3 -3.54,-3.6 -3.54,7.1 z m 9195.21,3485.5 -147.6,232.7 -33,98 -9.5,-29.5 -432.2,686.2 -440.4,-167.7 -41.3,60.2 40.1,1.2 -54.3,85 31.9,-5.9 -61.4,111.1 24.8,-9.5 -54.4,154.7 -53.1,-174.8 24.8,18.9 -61.4,-133.4 31.9,17.7 -54.3,-105.1 40.1,14.1 -73.2,-133.4 -36.6,-14.2 -13,24.8 26,-3.5 -43.7,69.6 41.3,-2.3 -85,124 40.1,1.2 -54.3,85 31.9,-5.9 -61.4,111 24.8,-9.4 -53.1,154.7 -54.4,-174.8 24.8,18.9 -61.4,-133.5 31.9,17.8 -54.3,-104 40.2,13 -70.9,-128.7 -33.1,51.9 41.4,-1.2 -85.1,124.1 40.2,1.2 -54.3,85 31.9,-7.1 -61.4,112.2 24.8,-10.6 -54.4,155.9 -53.1,-174.8 24.8,18.9 -61.4,-133.5 31.9,17.7 -54.3,-105.1 40.1,13 -67.3,-120.5 -41.3,76.8 24.8,-10.6 -54.4,155.9 -53.1,-174.8 24.8,18.9 -61.4,-133.5 30.7,17.7 -53.1,-105.1 40.1,14.2 -86.2,-154.7 41.3,16.5 -42.5,-85.1 26,13 -39,-87.4 -57.8,82.7 h 41.3 l -54.3,86.2 31.9,-7.1 -61.4,112.2 24.8,-10.6 -54.4,155.9 -53.1,-174.8 24.8,18.9 -61.4,-133.4 31.9,17.7 -54.3,-105.1 40.1,12.9 -85,-154.7 41.3,17.7 -40.1,-77.9 -78,112.2 40.2,1.2 -53.1,85 30.7,-5.9 -61.5,111 24.8,-9.4 -53.1,154.7 -53.1,-174.8 24.8,18.9 -61.4,-133.5 30.7,17.8 -53.2,-104 40.2,13 -86.2,-154.7 41.3,16.5 -42.5,-85 24.8,13 -41.3,-95.7 31.8,9.4 -48.4,-113.3 107.5,15.3 -160.6,-140.5 -695.5,-102.8 -24.8,44.9 55.5,-11.8 -114.6,186.6 53.2,-8.3 -70.9,126.4 41.3,-15.4 -81.4,163 33,-18.9 -72,220.9 -72,-220.9 33,18.9 -81.4,-163 41.3,15.4 -70.9,-126.4 53.2,8.3 -114.6,-186.6 55.5,11.8 -57.8,-102.8 34.2,10.6 -56.7,-116.9 42.5,3.6 -48.4,-105.2 -79.1,127.6 47.2,-7.1 -62.5,111 36.6,-14.1 -72.1,142.9 29.6,-17.7 -62.6,192.5 -62.6,-192.5 28.3,17.7 -70.8,-142.9 36.6,14.1 -62.6,-111 47.2,7.1 -100.3,-161.8 48.4,10.6 -50.8,-90.9 29.5,10.6 -48.4,-102.8 36.6,3.6 -30.7,-65 -135.8,222.1 65,-10.7 -87.4,154.8 50.8,-20.1 -99.2,198.4 40.1,-23.6 -86.2,266.9 -87.4,-266.9 40.2,23.6 -99.2,-198.4 50.8,20.1 -86.2,-154.8 64.9,10.7 -139.3,-225.6 67.3,15.3 -69.7,-125.2 41.3,13 -68.5,-141.7 52,4.7 -59,-127.5 -95.7,154.7 56.7,-8.3 -75.6,133.5 44.9,-16.6 -87.4,172.5 35.4,-20.1 -75.5,232.7 -75.6,-232.7 34.2,20.1 -86.2,-172.5 44.9,16.6 -76.8,-133.5 57.9,8.3 -121.6,-196.1 59,13 -61.4,-108.7 36.6,10.7 -60.2,-122.9 44.9,3.6 -68.5,-146.5 232.6,-9.4 v -137 l -484.1,-250.4 -56.7,121.6 43.7,-3.5 -56.7,116.9 34.2,-10.6 -57.8,102.7 55.5,-11.8 -114.6,185.5 53.2,-8.3 -72.1,127.6 42.5,-15.4 -81.4,163 33,-18.9 -72,220.9 -72,-220.9 33,18.9 -81.4,-163 41.3,15.4 -72,-127.6 54.3,8.3 -114.6,-185.5 55.5,11.8 -57.8,-102.7 34.2,10.6 -56.7,-116.9 42.5,3.5 -48.4,-105.1 -79.1,127.6 47.2,-7.1 -62.5,111 36.6,-14.2 -72.1,142.9 29.6,-17.7 -62.6,192.6 -62.6,-192.6 28.3,17.7 -70.8,-142.9 36.6,14.2 -62.6,-111 46.1,7.1 -99.2,-163 48.4,11.8 -50.8,-91 29.5,9.5 -48.4,-101.6 36.6,3.5 -56.7,-121.6 192.5,-7.1 v -40.2 l -116.9,-61.4 -1793.7,-68.5 -974.2,-942.5 -49.6,154.7 -57.86,-178.3 25.98,15.3 -64.94,-131.1 33.06,13 -57.86,-102.8 36.6,6 -7.08,-21.3 -77.94,-127.6 42.51,9.5 -2.36,-7.1 -42.51,-75.6 21.26,7.1 -9.45,-30.7 -29.52,-61.4 11.81,1.1 -22.44,-73.2 -57.86,93.3 37.79,-5.9 -49.6,88.6 29.52,-10.6 -57.86,114.5 22.44,-14.1 -49.6,154.7 -50.78,-154.7 23.62,14.1 -57.86,-114.5 29.52,10.6 -50.78,-88.6 37.79,5.9 -80.3,-131.1 38.97,8.3 -40.15,-72.1 23.62,8.3 -38.97,-82.7 29.52,2.4 -24.79,-52 -109.82,178.4 51.95,-8.3 -69.67,124 41.33,-15.3 -80.29,159.4 33.06,-18.9 -69.67,215 -70.85,-215 33.06,18.9 -80.29,-159.4 41.32,15.3 -69.67,-124 51.96,8.3 -111,-180.7 53.14,11.8 -56.68,-100.4 34.24,10.6 -55.49,-114.6 41.33,4.8 -47.24,-102.8 -76.75,124 46.05,-7.1 -61.41,107.5 35.43,-13 -69.67,138.2 28.34,-16.5 -60.22,187.8 -61.41,-187.8 28.34,16.5 -69.67,-138.2 35.43,13 -60.22,-107.5 44.87,7.1 -96.83,-158.3 47.23,10.7 -49.59,-87.4 29.52,9.4 -48.42,-99.2 36.61,3.5 -55.5,-119.2 186.57,-7.1 v -109.9 l -388.49,-201.9 -46.06,98 35.43,-3.6 -46.06,94.5 28.35,-8.2 -47.24,82.6 44.87,-9.4 -92.1,150 42.51,-7.1 -57.86,101.6 34.24,-11.8 -66.13,131.1 27.16,-15.4 -57.86,177.2 -57.86,-177.2 27.16,15.4 -66.13,-131.1 33.07,11.8 -57.87,-101.6 43.7,7.1 -92.11,-150 44.87,9.4 -47.23,-82.6 28.34,8.2 -46.05,-94.5 34.24,3.6 -38.97,-85.1 -63.76,102.8 37.78,-5.9 -49.59,89.8 29.52,-11.9 -57.86,114.6 22.43,-13 -49.59,154.8 -50.78,-154.8 23.62,13 -57.86,-114.6 29.52,11.9 -49.6,-89.8 36.61,5.9 -80.3,-129.9 38.97,8.2 -40.15,-72 23.62,7.1 -38.97,-82.7 29.52,3.5 -44.87,-98 153.51,-5.9 v -31.9 l -93.29,-49.6 -1442.99,-55.5 -860.84,-832.7 -304.66,-998 -999,-832.7 -925.78,-487.8 187.76,-255.2 409.75,48.5 291.67,-215 69.67,-341.397 312.92,-236.203 187.76,139.402 270.41,-166.5 3.54,-30.8 H 14167.8 V 0 h 2987.5 l 488.9,841 1467.8,2029.1 346,1253.2 537.3,917.7 v 4380.8 l -963.6,1529.6 -440.4,-167.7 -41.4,60.2 40.2,1.2 -54.3,86.2 31.8,-7.1 -61.4,111.1 24.8,-9.5 -54.3,155.9 -53.1,-174.8 24.8,18.9 -61.4,-133.5 31.8,16.6 -54.3,-104 40.2,13 -73.2,-133.4 -36.6,-14.2 -13,24.8 25.9,-3.5 -43.6,69.6 41.3,-1.1 -85,124 h 40.1 l -54.3,86.2 31.9,-7.1 -61.4,112.2 24.8,-10.6 -53.2,155.9 -54.3,-174.8 24.8,18.9 -61.4,-133.5 31.9,17.7 -54.3,-105.1 40.1,13 -70.8,-128.7 -33.1,53.1 41.3,-2.4 -85,124.1 40.2,1.1 -54.4,85.1 31.9,-5.9 -61.4,111 24.8,-9.4 -54.3,154.7 -53.1,-174.8 24.8,18.9 -61.4,-133.5 31.8,17.7 -54.3,-105.1 40.2,14.2 -67.3,-121.7 -41.4,76.8 24.8,-9.4 -54.3,154.7 -53.1,-174.8 24.8,18.9 -61.4,-133.5 30.7,17.7 -53.2,-103.9 40.2,13 -86.2,-154.7 41.3,16.5 -42.5,-85.1 26,13 -39,-87.4 -57.9,82.7 41.4,1.2 -54.3,85 31.8,-5.9 -61.4,111.1 24.8,-10.7 -54.3,155.9 -53.1,-174.8 24.8,18.9 -61.4,-133.4 31.9,17.7 -54.4,-105.1 40.2,14.1 -53.2,-96.8"
         style="fill:#18324a;fill-opacity:1;fill-rule:evenodd;stroke:none"
         id="path34" /><path
         d="m 15641.5,8639.9 17.7,11.8 -28.3,9.5 z m -2053.5,-620.1 22.4,34.3 -56.6,33.1 z m 53.1,-105.1 52,94.5 -89.7,-20.1 z m 307.1,-1335.8 10.6,9.4 11.8,24.8 v 95.7 l -21.3,-2.4 21.3,42.6 v 431.1 l -144.1,5.9 43.7,-79.2 -62.6,20.1 102.8,-211.4 -78,7.1 116.9,-250.4 -247.9,-10.7 50.7,-44.8 79.2,3.5 53.1,-7.1 z m -719.2,85 v -1.2 l 23.6,-8.2 9.5,8.2 z m -114.5,447.7 14.2,-42.6 -65,37.8 44.9,-89.7 53.1,109.8 z m -1750,-1990.2 1.1,1.1 h -1.1 z m 40.1,-63.8 42.5,76.8 -24.8,-6 9.5,-16.5 -48.4,8.3 -15.4,-3.6 z m 1290.7,506.7 48.4,-78 80.3,73.3 z m -93.3,426.4 35.4,75.6 -62.6,-20.1 z m -255.1,184.2 7.1,-13 10.6,23.7 z m -472.3,-685 57.9,102.7 -56.7,-11.8 5.9,-11.8 -22.5,8.3 -21.2,-5.9 7.1,10.6 -29.5,11.8 z m -11.8,-114.6 13,27.2 -31.9,4.7 z m 146.4,-460.6 41.3,29.5 23.7,49.6 -60.3,2.4 14.2,-24.8 -54.3,17.7 z m -487.7,-343.7 15.4,10.6 -21.3,1.2 z m -230.2,-161.9 85,59.1 -85,-3.5 z m -308.2,-217.3 213.7,150 v 122.9 l -274,11.8 3.6,8.2 -17.7,4.8 62.5,-113.4 -36.6,13 61.4,-127.6 -47.2,4.7 z m -2205.87,455.9 213.74,-137 29.52,60.3 -37.79,-13 62.59,113.4 -17.72,-4.8 3.55,-8.2 z M 2712.4,11477 l -11.8,-20.1 -11.81,27.2 z m -503.04,233.9 15.36,1.1 -8.27,-16.5 z m 1725.22,-1970.2 3.54,-4.7 3.55,4.7 z m -1218.63,1680.8 5.9,-3.6 28.34,43.7 -48.41,-9.4 z m -529.02,268.1 c 1.18,-9.4 3.54,-20.1 4.72,-28.3 l 4.72,-2.4 12.99,24.8 z m -9.45,137 c -1.18,-13 -1.18,-26 -1.18,-41.3 l 22.44,-50.8 55.5,87.4 -60.23,-2.4 2.36,-2.3 -5.9,2.3 h -4.72 l 1.18,2.4 z m 3709.04,-5267.8 -1.18,-56.7 38.97,55.5 z m -834.86,1261.4 20.08,-34.2 2.36,-3.6 25.98,36.7 z m 13110.94,5650.5 4.7,21.3 -21.2,13 z m -329.5,-642.5 18.9,-31.9 22.5,44.9 z m 1391.1,2089.4 23.6,16.6 -37.8,8.2 z m -1977.9,-3181.9 11.8,5.9 c 0,0 22.4,9.4 48.4,22.4 l -60.2,-2.4 z m -198.4,-92.2 c 46,20.1 101.5,46.1 144,66.2 v 51.9 l -155.8,7.1 9.4,-16.5 -24.8,8.3 40.2,-83.9 -30.7,3.6 z M 0,14049.5 l 609.316,-1021.7 134.618,-72 265.686,-380.4 41.33,-16.5 22.44,36.6 -68.49,-2.3 141.7,204.3 -66.13,2.4 88.57,141.7 -51.96,-9.5 102.73,184.3 -41.33,-16.5 88.57,258.6 89.74,-292.9 -41.33,31.9 102.74,-222.1 -53.14,29.6 89.74,-176 -67.31,23.6 142.89,-258.7 -68.49,28.4 72.03,-142.9 -42.51,21.2 69.67,-159.4 -53.14,15.3 80.3,-188.9 -112.18,17.7 c 4.72,-21.3 10.63,-36.6 17.71,-41.4 18.89,-10.6 136.98,-33 217.28,-50.7 l 24.79,38.9 -69.67,-2.3 142.89,205.5 -66.13,2.3 88.56,141.8 -51.95,-10.6 101.55,184.2 -41.33,-15.3 89.74,257.4 89.75,-291.7 -41.33,31.9 102.73,-223.2 -53.14,29.5 89.75,-174.8 -67.31,23.6 142.88,-259.8 -68.49,28.3 38.97,-75.6 c 14.17,-9.4 21.26,-17.7 17.71,-26 0,-2.3 -1.18,-5.9 -1.18,-8.2 l 10.63,-21.3 136.98,197.2 -66.13,2.4 88.56,141.7 -51.95,-10.6 102.73,184.3 -41.33,-15.4 88.57,257.5 89.74,-291.7 -41.33,31.9 102.73,-223.3 -53.13,29.5 89.74,-174.8 -67.31,22.5 142.88,-258.7 -68.49,28.4 72.04,-143 -42.51,22.5 54.32,-124 73.21,132.2 -41.33,-16.5 89.74,258.7 89.75,-291.8 -41.33,31.9 101.55,-223.2 -51.96,29.5 89.75,-174.8 -67.31,22.5 v -1.2 l 159.41,-93.3 53.14,83.8 -51.96,-10.6 101.56,184.3 -41.33,-15.4 89.74,257.5 89.75,-291.7 -41.33,31.8 102.73,-223.2 -53.14,29.5 89.75,-174.8 -67.31,23.7 142.88,-259.9 -68.49,28.4 72.03,-141.8 -43.69,21.3 70.85,-159.5 -53.14,15.4 38.97,-92.1 49.6,-83.9 49.59,72 -37.78,1.2 50.77,80.3 -29.52,-5.9 57.86,105.2 -23.61,-9.5 50.77,147.6 50.78,-166.5 -23.62,17.7 59.04,-126.4 -30.7,16.6 50.78,-99.2 -37.79,13 81.48,-147.7 -38.97,16.5 41.33,-81.5 -24.8,13 40.15,-90.9 -30.7,8.3 46.05,-107.5 -155.87,23.6 v -54.3 c 33.07,-61.4 76.76,-129.9 86.2,-146.5 10.63,-17.7 42.51,-67.3 77.94,-116.9 l 66.13,93.3 -38.97,1.2 50.78,80.3 -29.53,-4.7 57.87,105.1 -22.44,-9.5 50.78,146.5 50.77,-166.5 -23.61,18.9 57.86,-127.6 -29.52,17.7 50.77,-100.4 -37.78,13 80.29,-147.6 -38.97,16.5 41.33,-81.5 -24.79,13 28.34,-62.6 c 121.62,-44.9 247.97,-87.4 247.97,-103.9 0,-30.8 192.48,-596.5 192.48,-596.5 l 25.98,-407.5 31.88,-43.7 16.54,-29.5 66.12,191.3 89.75,-291.7 -41.33,31.9 102.73,-223.3 -53.14,29.6 89.75,-174.8 v 0 l 66.13,-113.4 80.29,125.2 -53.14,-9.5 102.74,184.3 -41.33,-16.6 89.74,258.7 88.57,-291.7 -41.33,31.9 102.73,-223.3 -51.96,29.6 88.57,-174.9 -67.31,22.5 142.88,-258.7 -68.49,28.4 72.03,-142.9 -42.51,22.4 70.85,-159.5 -24.79,7.1 c 25.97,-28.3 42.51,-44.9 48.41,-46 8.27,-1.2 21.26,-9.5 37.79,-23.7 l 35.42,55.6 -29.52,-6 57.86,105.2 -23.61,-9.5 51.95,147.7 50.78,-166.6 -23.62,17.7 57.87,-126.3 -29.53,16.5 50.78,-99.2 -37.79,13 80.3,-147.7 -38.97,15.4 41.33,-80.3 -8.26,3.5 c 46.05,-62.6 79.11,-120.5 79.11,-151.2 0,-30.7 -2.36,-120.4 -3.54,-227.9 l 50.78,79.1 -30.71,-5.9 59.05,105.1 -23.62,-9.4 50.78,147.6 50.77,-166.5 -23.61,18.9 59.04,-127.6 -30.7,16.5 50.77,-99.2 -37.78,13 81.47,-147.6 -38.96,16.5 41.33,-81.5 -24.8,13 40.15,-90.9 -30.71,8.2 46.06,-107.4 -122.81,17.7 8.27,-11.8 573.89,-131.1 190.11,-121.7 77.94,138.2 -75.57,-29.5 148.78,295.2 -60.22,-34.2 128.71,396.8 129.89,-396.8 -60.22,34.2 148.79,-295.2 -75.58,29.5 128.72,-229.1 -96.83,15.3 177.12,-289.4 243.26,-154.7 88.56,145.3 -83.84,-13 112.18,199.6 -66.13,-24.8 129.9,256.3 -53.14,-29.5 113.36,346 112.18,-346 -51.96,29.5 128.72,-256.3 -66.13,24.8 113.36,-199.6 -85.02,13 180.67,-292.9 -87.38,20 90.92,-163 -54.32,17.8 43.69,-88.6 230.27,-147.7 50.77,106.3 -42.51,-14.1 72.04,129.9 -69.67,-15.4 142.88,231.5 -67.31,-10.6 89.75,158.3 -51.96,-18.9 101.55,203.1 -41.33,-23.6 89.74,275.2 89.75,-275.2 -41.33,23.6 102.73,-203.1 -53.13,18.9 89.74,-158.3 -67.31,10.6 142.88,-231.5 -68.48,15.4 72.03,-129.9 -43.69,14.1 70.85,-146.4 -53.14,5.9 61.4,-132.3 98.01,159.5 -59.04,-8.3 77.94,137 -46.06,-16.5 89.75,177.1 -36.61,-21.2 77.94,239.7 77.93,-239.7 -35.42,21.2 88.56,-177.1 -44.87,16.5 77.93,-137 -59.04,8.3 125.17,-202 -60.22,14.2 62.58,-113.4 -37.78,13 61.4,-127.6 -46.05,4.7 70.85,-152.3 -157.05,-6 358.97,-229.1 h 593.99 l 301.1,48.4 -133.4,4.8 70.8,152.3 -46,-4.7 61.4,127.6 -37.8,-13 62.6,113.4 -59.1,-14.2 124,202 -59,-8.3 77.9,137 -44.9,-16.5 88.6,177.1 -35.4,-21.2 77.9,239.7 77.9,-239.7 -36.6,21.2 89.8,-177.1 -46.1,16.5 78,-137 -59.1,8.3 98,-158.3 61.4,131.1 -53.1,-5.9 70.8,146.4 -43.6,-14.1 72,129.9 -68.5,-15.4 142.9,231.5 -67.3,-10.6 89.7,158.3 -51.9,-18.9 101.5,203.1 -41.3,-23.6 89.7,275.2 89.8,-275.2 -41.4,23.6 101.6,-203.1 -52,18.9 54.4,-96.9 144,233.9 -85,-13 113.4,199.6 -66.2,-24.8 128.7,256.3 -51.9,-30.7 112.2,347.3 113.3,-347.3 -51.9,30.7 107.4,-216.1 172.4,279.9 -90.9,-14.2 121.6,216.2 -72,-27.2 140.5,278.7 -56.7,-33 121.7,375.6 122.8,-375.6 -56.7,33 63.8,-127.5 107.4,333.1 129.9,-398.1 -60.2,35.5 68.5,-137.1 111,198.5 -107.5,-24.8 223.2,363.8 -105.1,-15.4 140.5,246.9 -82.6,-30.8 160.6,320.1 -65,-37.8 140.5,431.1 121.7,-374.4 94.4,167.8 -100.3,-22.5 206.6,335.4 -96.8,-14.1 128.7,229.1 -75.6,-29.5 148.8,295.3 -60.2,-35.5 129.9,398.1 126.3,-392.2 220.8,359.1 -126.3,-18.9 168.8,297.6 -99.1,-37.7 192.4,383.8 -77.9,-46 168.9,518.5 167.6,-518.5 -76.7,46 192.5,-383.8 -99.2,37.7 167.7,-297.6 -125.2,18.9 211.4,-343.7 131,283.5 -114.5,-10.7 152.3,315.4 -93.3,-29.5 155.9,277.5 -147.6,-33 307,500.8 -144,-21.3 192.4,341.3 -113.3,-42.5 220.8,439.4 -88.6,-52 192.5,594.1 193.7,-594.1 -89.8,52 220.8,-439.4 -112.1,42.5 192.4,-341.3 -145.2,21.3 308.2,-500.8 -147.6,33 129.9,-232.7 674.2,440.6 43.7,60.2 c 70.9,225.6 139.4,439.4 139.4,439.4 0,0 77.9,218.5 147.6,265.8 70.8,47.2 101.5,47.2 133.4,155.9 30.7,109.8 77.9,226.8 77.9,281.1 0,55.5 0,360.2 0,422.8 0,62.6 -86.2,304.8 -93.2,374.5 -8.3,70.8 -62.6,320 -62.6,320 0,0 54.3,55.6 107.4,102.8 v 35.4 l -155.8,5.9 46,99.3 -30.7,-3.6 40.2,83.9 -23.7,-8.3 41.4,73.2 -40.2,-8.2 81.5,132.2 -37.8,-5.9 50.8,89.8 -29.5,-11.8 57.8,116.9 -23.6,-14.1 50.8,157 50.8,-157 -23.6,14.1 59,-116.9 -29.5,11.8 50.7,-89.8 -38.9,5.9 81.5,-132.2 -39,8.2 31.9,-56.7 46,98.1 -30.7,-2.4 40.2,82.7 -24.8,-7.1 41.3,73.2 -39,-9.4 81.5,132.3 -39,-5.9 52,90.9 -30.7,-11.8 59,115.8 -23.6,-13 50.8,155.9 50.8,-155.9 -23.6,13 57.8,-115.8 -29.5,11.8 50.8,-90.9 -37.8,5.9 81.5,-132.3 -40.2,9.4 41.4,-73.2 -23.7,7.1 40.2,-82.7 -30.7,2.4 22.4,-48.5 c 2.4,2.4 3.6,6 4.7,9.5 7.1,39 69.7,281.1 69.7,281.1 l 164.2,78 2.3,3.5 v 55.5 l -275.1,10.6 81.5,173.7 -53.2,-4.8 69.7,146.5 -42.5,-14.2 72,128.8 -68.5,-15.4 142.9,232.7 -67.3,-10.6 89.7,158.2 -53.1,-20 102.7,204.3 -41.3,-24.8 89.7,275.2 88.6,-275.2 -41.3,24.8 102.7,-204.3 -51.9,20 88.5,-158.2 -66.1,10.6 44.9,-74.4 70.8,127.5 -68.5,-15.3 142.9,231.5 -67.3,-10.6 89.7,158.2 -53.1,-18.9 102.7,203.2 -41.3,-23.6 89.8,275.2 75.5,-233.9 73.2,367.3 -70.8,2.4 81.5,173.6 -53.2,-4.7 69.7,145.3 -42.5,-13 72,128.7 -68.5,-15.3 142.9,231.5 -67.3,-9.5 89.8,158.3 -53.2,-20.1 102.7,203.2 -41.3,-23.6 88.6,275.1 89.7,-275.1 -41.3,23.6 102.7,-203.2 -53.1,20.1 89.7,-158.3 -67.3,9.5 26,-40.2 67.3,48.4 65,139.4 -53.2,-4.7 69.7,146.5 -42.5,-14.2 72,128.7 -68.5,-15.3 142.9,232.7 -67.3,-10.7 89.7,158.3 -53.1,-20.1 102.7,204.3 -41.3,-24.8 89.8,275.2 88.5,-275.2 -41.3,23.7 102.7,-203.2 -51.9,20.1 88.5,-158.3 -66.1,10.7 129.9,-212.7 252.7,181.9 -28.3,-4.7 89.7,158.3 -53.1,-18.9 102.7,203.1 -41.3,-23.6 89.7,275.2 88.6,-275.2 -41.4,23.6 102.8,-203.1 -52,18.9 46.1,-81.5 172.4,23.6 v -727.6 l 4.7,-8.2 h -4.7 L 19995.3,0 H 0 v 14049.5"
         style="fill:#122536;fill-opacity:1;fill-rule:evenodd;stroke:none"
         id="path36" /><path
         d="m 15173.9,5207.6 1.2,2.3 h -2.4 z m 124,-202 134.6,239.8 -78,-17.7 28.4,-50.8 -150,23.6 -48.4,-10.6 z m -14422.892,-600 29.519,23.6 -103.914,4.7 z M 4043.22,3609.5 v 248.1 l -697.88,27.1 171.22,-275.2 z m 3608.67,-1000.4 42.51,-68.5 64.94,-42.5 h 296.4 l 234.98,-59.1 v 144.1 z m -557.36,322.5 102.73,4.7 106.28,-14.2 304.66,-161.8 153.51,328.3 -146.43,-14.1 192.48,400.4 -116.91,-37.8 197.21,353.1 -56.68,-13 12.98,-27.1 -860.83,-34.3 v -711 z M 14646,2670.5 14356.7,2517 l 3.6,-83.9 -101.6,-161.8 -82.6,-13 h -186.6 l -121.6,259.9 146.4,-14.2 -192.5,399.2 116.9,-36.6 -197.2,352 55.5,-11.8 -11.8,-28.4 860.8,-34.2 z m 1367.5,27.2 -363.7,296.5 -324.8,46 -381.4,-342.5 v 446.5 l 860.9,34.2 -155.9,336.6 364.9,-15.3 z m 2307.3,901.2 -101.5,82.7 -324.7,46 -390.9,-350.8 -159.4,5.9 -106.3,-12.9 -311.7,-165.4 3.5,-83.9 -109.8,-174.8 h -334.2 l -98,-24.8 v 578.8 l 1086.4,43.7 -257.5,552.7 1104.1,-43.7 z M 0,4738.7 l 233.809,-88.6 278.679,598.8 -242.074,-23.6 320.008,663.8 -194.836,-62.6 327.094,585.8 -311.746,-69.7 648.286,1054.8 -304.657,-47.3 406.207,719.4 -238.528,-89.8 465.248,924.8 -187.75,-108.7 406.21,1249.7 406.21,-1249.7 -187.75,108.7 465.25,-924.8 -238.53,89.8 406.21,-719.4 -304.66,47.3 648.29,-1054.8 -312.93,69.7 328.28,-585.8 -194.84,62.6 320.01,-663.8 -242.07,23.6 367.24,-789 -780.54,-31.9 158.23,-141.7 250.34,10.6 166.5,-20 217.28,-115.8 198.38,427.6 -211.37,-21.3 279.86,578.8 -170.04,-54.4 285.76,510.3 -272.77,-60.3 565.62,919 -265.69,-41.4 354.26,626 -207.83,-77.9 405.03,806.7 -164.14,-95.7 354.25,1090.2 354.26,-1090.2 -164.14,95.7 405.03,-806.7 -206.65,77.9 353.07,-626 -264.51,41.4 564.45,-919 -272.78,60.3 286.95,-510.3 -171.22,54.4 279.86,-578.8 -211.37,21.3 320.01,-688.6 -1085.2,-42.5 v -341.4 l 14.17,-14.2 286.94,232.7 324.74,46.1 390.86,-352 159.41,7.1 106.28,-13 311.74,-166.5 -3.54,-82.7 4.72,-8.3 210.19,-11.8 99.19,80.3 324.74,47.3 38.96,-35.5 v 470.1 l -860.83,34.3 253.88,545.7 -167.68,-16.6 222,459.5 -135.8,-43.7 226.72,405.1 -216.09,-48.4 448.72,729.9 -210.19,-33.1 279.86,497.3 -164.14,-62.6 321.19,640.2 -129.89,-75.6 281.04,864.6 281.04,-864.6 -129.89,75.6 321.19,-640.2 -164.14,62.6 281.04,-497.3 -211.37,33.1 448.72,-729.9 -216.09,48.4 226.72,-405.1 -134.62,43.7 220.82,-459.5 -167.68,16.6 192.48,-412.3 307.02,499.7 -183.03,-28.4 244.43,433.5 -142.88,-54.3 279.86,557.4 -113.36,-64.9 244.44,752.4 245.61,-752.4 -113.36,64.9 279.86,-557.4 -142.88,54.3 244.44,-433.5 -184.22,28.4 390.86,-635.5 -187.75,42.5 197.2,-353.1 -118.08,37.8 193.65,-400.4 -146.42,14.1 222,-474.8 -751.02,-30.7 v -600 l 170.04,-111 h 3082.03 l 944.7,153.5 -416.9,16.6 222,476 -146.4,-14.2 192.5,399.2 -116.9,-36.6 197.2,352 -187.8,-41.4 390.9,635.5 -184.2,-28.4 244.4,432.3 -142.9,-54.3 279.9,558.7 -113.4,-66.2 244.5,752.4 245.6,-752.4 -113.4,66.2 279.9,-558.7 -142.9,54.3 244.4,-432.3 -184.2,28.4 308.2,-500.8 192.5,412.2 -167.7,-15.4 220.8,458.3 -134.6,-42.5 226.7,405.1 -216.1,-48.4 448.8,728.7 -211.4,-33 281,497.2 -164.1,-61.4 321.2,639 -129.9,-75.6 281,864.6 281.1,-864.6 -129.9,75.6 321.2,-639 -165.4,61.4 172.5,-303.5 449.9,732.3 -264.6,-40.2 353.1,626 -206.6,-77.9 405,806.7 -164.1,-95.7 354.2,1089 354.3,-1089 -164.2,95.7 405.1,-806.7 -207.9,77.9 354.3,-626 -265.7,40.2 565.6,-918.9 -272.8,61.4 285.8,-510.3 -170,54.4 157,-326 198.4,427.5 -242.1,-23.6 321.2,665 -196,-62.6 328.3,585.8 -312.9,-70.8 648.2,1054.7 -303.4,-46.1 405,718.2 -237.4,-89.8 464.1,926 -186.6,-109.8 406.3,1250.8 405,-1250.8 -186.6,109.8 464.1,-926 -237.4,89.8 405.1,-718.2 -303.5,46.1 648.3,-1054.7 -313,70.8 328.3,-585.8 -196,62.6 321.2,-665 -242.1,23.6 366.1,-789 -1245.8,-49.6 V 3554 l 21.2,9.5 202,180.7 168.8,-24.8 853.8,361.4 0,-4080.8 H 0 v 4738.7"
         style="fill:#0c1824;fill-opacity:1;fill-rule:evenodd;stroke:none"
         id="path38" /><path
         d="m 7987.25,13069.2 c 357.79,-174.8 323.55,-52 621.12,-128.8 108.64,-28.3 28.34,-120.5 203.11,-103.9 21.25,1.2 43.69,2.3 64.94,-3.6 28.35,-8.2 29.53,-18.9 48.42,-28.3 11.81,79.1 -29.52,48.4 -24.8,122.8 8.27,142.9 239.71,75.6 276.32,72.1 120.45,-13 277.5,131.1 363.7,212.6 -53.14,7.1 -136.98,-88.6 -199.56,-87.4 -70.85,0 -145.25,0 -216.1,4.7 -231.44,15.4 -158.23,-18.9 -255.06,-91 -47.23,-35.4 -54.32,-9.4 -93.29,8.3 -36.6,16.6 -62.58,5.9 -100.37,-3.5 -57.86,-14.2 -224.36,47.2 -297.57,43.7 -135.8,-86.2 -247.98,-8.3 -390.86,-17.7 v 0"
         style="fill:#336699;fill-opacity:1;fill-rule:evenodd;stroke:none"
         id="path40" /><path
         d="m 10041.9,12248.3 c -69.65,-26 -77.92,-1.2 -132.23,-1.2 16.53,-49.6 72.03,-114.6 103.93,-139.4 53.1,26 63.7,70.9 141.7,53.2 171.2,-40.2 133.4,50.8 252.7,125.2 216.1,137 218.4,111 356.6,204.3 73.2,48.4 36.6,216.2 29.5,298.8 -88.5,-278.7 -152.3,-292.9 -410.9,-445.3 -61.4,-36.6 -55.5,-16.5 -106.3,-3.5 -114.5,30.7 -96.8,-80.3 -193.6,66.1 -22.5,34.3 -44.9,66.2 -70.9,94.5 -99.19,113.4 -238.53,14.2 -350.71,99.3 -25.98,18.8 -63.77,18.8 -92.11,47.2 -36.6,36.6 -56.68,69.7 -83.84,82.7 111,-295.3 415.66,-96.9 556.16,-481.9 v 0"
         style="fill:#336699;fill-opacity:1;fill-rule:evenodd;stroke:none"
         id="path42" /><path
         d="m 11090.5,13175.5 c 219.7,-106.3 198.4,-31.9 380.2,-79.2 67.4,-16.5 17.8,-73.2 124,-63.8 13,1.2 27.2,2.4 40.2,-1.1 17.7,-4.8 18.9,-11.8 29.5,-17.8 7.1,48.5 -17.7,29.6 -15.3,74.5 5.9,88.5 147.6,47.2 168.8,44.8 74.4,-8.2 170.1,80.4 223.2,130 -31.9,4.7 -83.8,-54.4 -121.6,-53.2 -43.7,0 -89.8,0 -133.5,2.4 -140.5,9.4 -95.6,-11.8 -154.7,-55.5 -29.5,-21.3 -34.2,-5.9 -57.8,4.7 -22.5,10.6 -39,4.7 -61.4,-1.2 -35.5,-8.3 -138.2,28.3 -181.9,26 -82.6,-52 -152.3,-4.7 -239.7,-10.6 v 0"
         style="fill:#336699;fill-opacity:1;fill-rule:evenodd;stroke:none"
         id="path44" /><path
         d="m 12348.1,12673.5 c -42.5,-16.6 -47.2,-1.2 -81.5,-1.2 10.7,-30.7 44.9,-69.7 65,-85 31.9,15.3 38.9,43.7 86.2,31.8 105.1,-23.6 81.5,30.8 154.7,76.8 132.2,83.9 133.4,68.5 218.4,125.2 44.9,30.7 22.5,132.3 17.7,183.1 -54.3,-171.3 -93.2,-179.5 -251.5,-272.8 -37.8,-21.3 -34.2,-10.7 -64.9,-2.4 -69.7,18.9 -59.1,-48.4 -118.1,41.3 -14.2,21.3 -28.3,40.2 -43.7,57.9 -60.2,68.5 -145.2,8.3 -214.9,60.2 -15.4,11.9 -39,11.9 -56.7,29.6 -22.4,22.4 -34.2,42.5 -50.8,50.8 67.3,-181.9 253.9,-60.3 340.1,-295.3 v 0"
         style="fill:#336699;fill-opacity:1;fill-rule:evenodd;stroke:none"
         id="path46" /><path
         d="m 9250.75,14099.1 c 160.6,-78 145.25,-23.6 278.68,-57.9 49.6,-11.8 12.99,-54.3 90.93,-46 9.44,0 20.07,1.1 29.52,-1.2 12.99,-3.6 12.99,-9.5 21.25,-13 5.91,35.4 -12.98,21.2 -10.62,54.3 3.54,63.8 107.45,34.3 123.99,33.1 53.13,-5.9 123.98,57.9 162.95,95.7 -23.61,2.3 -61.4,-40.2 -89.74,-40.2 -31.88,0 -64.95,0 -96.83,2.4 -103.92,7.1 -70.85,-8.3 -114.54,-41.4 -21.26,-15.3 -23.62,-3.5 -41.33,3.6 -16.53,8.2 -28.34,3.5 -44.88,-1.2 -25.97,-5.9 -101.55,21.2 -133.43,20.1 -61.4,-39 -112.18,-3.6 -175.95,-8.3 v 0"
         style="fill:#336699;fill-opacity:1;fill-rule:evenodd;stroke:none"
         id="path48" /><path
         d="m 10171.8,13730.6 c -30.7,-11.8 -34.2,0 -59,0 8.2,-22.5 33,-52 47.2,-62.6 23.6,11.8 28.3,31.9 62.6,23.6 76.7,-17.7 60.2,22.5 113.4,56.7 96.8,61.4 99.1,49.6 160.5,91 33.1,22.4 16.6,96.8 13,134.6 -40.1,-125.2 -68.5,-131.1 -184.2,-199.6 -27.1,-16.5 -24.8,-8.3 -47.2,-2.4 -52,14.2 -43.7,-35.4 -87.4,30.7 -9.4,15.4 -20.1,29.6 -31.9,42.6 -43.7,49.6 -106.3,5.9 -157,43.7 -11.84,8.2 -28.37,8.2 -41.36,21.2 -16.53,16.6 -24.8,31.9 -37.78,36.6 49.59,-132.3 186.54,-43.7 249.14,-216.1 v 0"
         style="fill:#336699;fill-opacity:1;fill-rule:evenodd;stroke:none"
         id="path50" /><path
         d="m 10643,14146.3 c 98,-47.2 88.5,-14.1 170,-34.2 29.5,-8.3 8.3,-33.1 55.5,-29.5 5.9,1.1 11.8,1.1 17.7,0 8.3,-2.4 8.3,-5.9 14.2,-8.3 2.4,21.3 -8.3,13 -7.1,34.2 2.4,39 66.1,20.1 75.6,18.9 33,-3.5 76.7,36.7 100.4,59.1 -15.4,1.2 -37.8,-24.8 -55.5,-24.8 -18.9,0 -40.2,0 -59.1,2.4 -63.8,3.5 -43.7,-5.9 -69.7,-26 -12.9,-9.5 -15.3,-2.4 -25.9,2.3 -10.7,4.8 -17.7,2.4 -27.2,0 -16.5,-4.7 -62.6,13 -81.5,11.9 -37.8,-23.7 -68.5,-2.4 -107.4,-6 v 0"
         style="fill:#336699;fill-opacity:1;fill-rule:evenodd;stroke:none"
         id="path52" /><path
         d="m 11206.2,13921.9 c -18.9,-7.1 -21.2,-1.1 -36.6,0 4.8,-14.1 20.1,-31.9 29.5,-39 14.2,7.1 17.8,20.1 39,15.4 46.1,-11.8 36.6,13 68.5,34.3 60.2,36.6 60.2,29.5 98,55.5 20.1,13 10.6,59 8.3,82.7 -24.8,-76.8 -41.3,-80.4 -112.2,-122.9 -17.7,-9.4 -15.3,-4.7 -29.5,-1.2 -31.9,8.3 -27.2,-21.2 -53.2,18.9 -5.9,9.5 -12.9,17.8 -20,26 -27.2,30.7 -65,3.6 -95.7,26 -7.1,5.9 -17.7,5.9 -26,14.2 -9.4,9.4 -15.3,18.9 -22.4,22.4 30.7,-81.5 114.5,-27.1 152.3,-132.3 v 0"
         style="fill:#336699;fill-opacity:1;fill-rule:evenodd;stroke:none"
         id="path54" /><path
         d="m 12187.5,14191.2 c 131.1,-63.8 118.1,-18.9 226.7,-46 40.2,-10.7 10.7,-44.9 73.3,-39 8.2,1.2 16.5,1.2 23.6,0 10.6,-3.6 11.8,-8.3 18.9,-10.6 3.5,28.3 -11.8,17.7 -9.5,43.7 3.6,51.9 87.4,28.3 100.4,27.1 43.7,-4.7 100.4,47.3 132.2,76.8 -18.8,2.4 -49.6,-31.9 -72,-31.9 -26,0 -53.1,0 -79.1,2.4 -83.8,4.7 -57.9,-7.1 -93.3,-33.1 -16.5,-13 -18.9,-3.5 -33.1,2.4 -14.1,5.9 -23.6,2.3 -36.6,-1.2 -21.2,-4.7 -82.6,17.7 -108.6,16.5 -49.6,-31.9 -90.9,-3.5 -142.9,-7.1 v 0"
         style="fill:#336699;fill-opacity:1;fill-rule:evenodd;stroke:none"
         id="path56" /><path
         d="m 12936.2,13892.4 c -24.8,-9.5 -28.4,0 -48.4,0 5.9,-18.9 25.9,-42.5 37.7,-50.8 20.1,9.5 23.7,26 52,18.9 62.6,-14.2 48.4,18.9 92.1,46.1 77.9,49.6 79.1,40.1 129.9,74.4 26,17.7 13,77.9 10.6,108.7 -33,-101.6 -55.5,-106.3 -149.9,-161.9 -22.5,-13 -20.1,-7 -39,-1.1 -41.3,10.6 -35.4,-29.6 -69.7,23.6 -8.2,13 -16.5,23.6 -26,34.2 -36.6,41.4 -87.3,5.9 -127.5,36.6 -9.4,7.1 -23.6,7.1 -34.2,16.6 -13,14.2 -20.1,26 -30.7,30.7 40.1,-107.5 151.1,-35.5 203.1,-176 v 0"
         style="fill:#336699;fill-opacity:1;fill-rule:evenodd;stroke:none"
         id="path58" /><path
         d="m 13317.6,14230.2 c 80.3,-39 72,-11.8 138.1,-28.3 24.8,-6 7.1,-27.2 46.1,-23.7 4.7,0 9.4,1.2 14.2,0 5.9,-2.3 7.1,-4.7 10.6,-7.1 2.4,17.8 -5.9,10.7 -5.9,27.2 2.4,31.9 54.3,17.7 62.6,16.6 26,-3.6 61.4,29.5 80.3,47.2 -11.8,1.2 -30.7,-20.1 -43.7,-20.1 -16.5,1.2 -33.1,1.2 -48.4,1.2 -52,3.5 -35.5,-3.5 -56.7,-20.1 -10.6,-7.1 -13,-2.3 -21.3,2.4 -8.2,3.5 -14.1,1.2 -22.4,-1.2 -13,-2.4 -49.6,10.6 -66.1,9.5 -30.7,-18.9 -55.5,-1.2 -87.4,-3.6 v 0"
         style="fill:#336699;fill-opacity:1;fill-rule:evenodd;stroke:none"
         id="path60" /><path
         d="m 13775.8,14047.1 c -15.4,-5.9 -17.8,0 -29.6,0 3.6,-10.6 16.6,-26 23.7,-30.7 11.8,5.9 14.1,15.4 30.7,11.8 38.9,-9.4 30.7,10.7 56.6,27.2 48.5,30.7 48.5,24.8 79.2,46.1 16.5,10.6 8.2,48.4 7,66.1 -20,-61.4 -34.2,-65 -92.1,-99.2 -13,-8.3 -11.8,-3.6 -23.6,0 -24.8,5.9 -21.2,-18.9 -42.5,14.2 -4.7,8.2 -10.6,14.1 -16.5,21.2 -21.3,24.8 -53.2,3.6 -78,21.3 -5.9,4.7 -14.1,4.7 -20,11.8 -8.3,7.1 -13,15.4 -18.9,17.7 24.8,-66.1 92.1,-21.2 124,-107.5 v 0"
         style="fill:#336699;fill-opacity:1;fill-rule:evenodd;stroke:none"
         id="path62" /><path
         d="m 12648,14566.8 c 59.1,-28.3 53.2,-9.4 101.6,-21.2 17.7,-4.8 4.7,-20.1 33.1,-16.6 3.5,0 7,0 10.6,-1.2 4.7,-1.1 4.7,-3.5 8.3,-4.7 1.1,13 -4.8,8.3 -4.8,20.1 1.2,23.6 39,13 44.9,11.8 20.1,-2.3 46.1,21.3 60.2,35.4 -9.4,0 -22.4,-15.3 -33,-15.3 -11.8,0 -23.6,0 -35.5,1.2 -37.7,2.3 -25.9,-3.6 -41.3,-15.4 -8.3,-4.7 -9.4,-1.2 -15.3,2.4 -5.9,2.3 -10.7,0 -16.6,-1.2 -9.4,-2.4 -36.6,8.3 -48.4,7.1 -22.4,-14.2 -40.1,-1.2 -63.8,-2.4 v 0"
         style="fill:#336699;fill-opacity:1;fill-rule:evenodd;stroke:none"
         id="path64" /><path
         d="m 12983.4,14432.2 c -11.8,-3.6 -13,0 -21.2,0 2.3,-8.3 11.8,-18.9 16.5,-22.5 8.3,3.6 10.6,11.8 23.6,8.3 27.2,-5.9 21.3,8.3 41.3,21.3 34.3,21.2 35.5,17.7 57.9,33 11.8,8.3 5.9,35.5 4.7,48.5 -14.2,-46.1 -24.8,-47.3 -67.3,-72.1 -9.4,-5.9 -9.4,-3.5 -16.5,-1.2 -18.9,4.8 -16.6,-13 -31.9,10.7 -3.5,5.9 -7.1,10.6 -11.8,15.3 -16.5,18.9 -39,2.4 -57.9,16.6 -3.5,3.5 -9.4,3.5 -14.1,8.2 -5.9,5.9 -9.5,10.6 -14.2,13 17.7,-48.4 68.5,-16.5 90.9,-79.1 v 0"
         style="fill:#336699;fill-opacity:1;fill-rule:evenodd;stroke:none"
         id="path66" /><path
         d="m 13154.6,14583.4 c 35.5,-16.6 31.9,-4.8 62.6,-11.8 10.6,-3.6 2.4,-13 20.1,-10.7 2.4,0 3.5,0 5.9,-1.2 3.5,0 3.5,-1.1 4.7,-2.3 1.2,8.2 -2.3,4.7 -2.3,11.8 1.1,15.3 24.8,8.2 28.3,8.2 11.8,-2.3 27.2,13 35.4,21.3 -4.7,0 -13,-9.4 -18.9,-9.4 -7.1,0 -15.3,0 -22.4,1.1 -22.4,1.2 -15.4,-2.3 -24.8,-9.4 -4.7,-3.6 -5.9,-1.2 -9.5,1.2 -3.5,1.2 -7,0 -10.6,-1.2 -5.9,-1.2 -22.4,4.7 -29.5,4.7 -13,-8.3 -24.8,-1.2 -39,-2.3 v 0"
         style="fill:#336699;fill-opacity:1;fill-rule:evenodd;stroke:none"
         id="path68" /><path
         d="m 13360.1,14501.9 c -7.1,-2.4 -8.3,0 -13,0 1.2,-4.8 7.1,-11.8 10.6,-14.2 4.8,2.4 5.9,7.1 13,5.9 17.7,-4.7 14.2,4.7 26,11.8 21.3,14.2 21.3,11.8 35.4,20.1 7.1,5.9 3.6,22.4 3.6,30.7 -9.5,-28.4 -15.4,-29.5 -41.4,-44.9 -5.9,-3.5 -5.9,-1.2 -10.6,0 -11.8,2.4 -9.4,-8.3 -20.1,5.9 -1.1,3.6 -3.5,7.1 -7,9.5 -9.5,11.8 -23.7,2.3 -34.3,10.6 -3.5,1.2 -7.1,1.2 -9.4,4.7 -3.6,3.6 -5.9,7.1 -8.3,8.3 10.6,-29.5 41.3,-9.5 55.5,-48.4 v 0"
         style="fill:#336699;fill-opacity:1;fill-rule:evenodd;stroke:none"
         id="path70" /></g></g></svg>
