<?xml version="1.0" encoding="utf-8"?>
<!-- Generator: Adobe Illustrator 16.0.0, SVG Export Plug-In . SVG Version: 6.00 Build 0)  -->
<!DOCTYPE svg PUBLIC "-//W3C//DTD SVG 1.1//EN" "http://www.w3.org/Graphics/SVG/1.1/DTD/svg11.dtd">
<svg version="1.1" id="Layer_1" xmlns="http://www.w3.org/2000/svg" xmlns:xlink="http://www.w3.org/1999/xlink" x="0px" y="0px"
	 width="720px" height="503.999px" viewBox="0 0 720 503.999" enable-background="new 0 0 720 503.999" xml:space="preserve">
<symbol  id="New_Symbol" viewBox="-0.763 -0.763 1.526 1.525">
	<path fill="#FFFFFF" d="M0.763,0c0-0.421-0.342-0.762-0.763-0.762S-0.763-0.421-0.763,0S-0.421,0.763,0,0.763S0.763,0.42,0.763,0z"
		/>
</symbol>
<linearGradient id="SVGID_1_" gradientUnits="userSpaceOnUse" x1="360.0005" y1="503.999" x2="360.0005" y2="4.882812e-04">
	<stop  offset="3.388074e-04" style="stop-color:#FFD8BD"/>
	<stop  offset="0.4259" style="stop-color:#F0CB92"/>
	<stop  offset="0.7307" style="stop-color:#A6AC92"/>
	<stop  offset="0.9908" style="stop-color:#84A095"/>
</linearGradient>
<rect fill="url(#SVGID_1_)" width="720" height="503.999"/>
<g>
	<path fill="#D9DFCB" d="M719.494,79.482c-0.044,3.17-0.074,5.492-0.074,5.492l-95.698,0.729
		c10.854-2.702,21.637-6.429,32.757-7.912C677.762,75.428,699.044,71.918,719.494,79.482z"/>
	<path fill="#F0F3D7" d="M507.642,85.141c7.489-4.146,29.51-15.772,43.442-17.229c15.548-1.626,19.434,1.198,20.631,3.241
		c1.195,2.043,21.527-16.248,42.01-17.873c20.202-1.604,29.452,4.064,35.73,10.975c6.278,6.909,8.068-23.789,41.262-22.356
		c28.256,1.22,29.003,18.698,29.003,19.917c0,0.823-0.138,11.083-0.226,17.668c-20.45-7.564-41.732-4.055-63.016-1.69
		c-11.12,1.483-21.902,5.21-32.757,7.912l-48.624,0.37c-12.818-2.524-25.638-5.844-38.455-5.844
		C526.539,80.23,516.934,82.054,507.642,85.141z"/>
	<path fill="#D9DFCB" d="M507.642,85.141c9.292-3.087,18.897-4.91,29.001-4.91c12.817,0,25.637,3.319,38.455,5.844l-70.06,0.535
		C505.038,86.609,505.994,86.053,507.642,85.141z"/>
</g>
<g>
	<path fill="#D9DFCB" d="M0.184,178.115c0.036,2.879,0.061,4.989,0.061,4.989l78.009,0.663c-8.848-2.455-17.638-5.839-26.702-7.187
		C34.203,174.432,16.854,171.244,0.184,178.115z"/>
	<path fill="#F0F3D7" d="M172.878,183.255c-6.105-3.767-24.055-14.327-35.413-15.65c-12.674-1.477-15.842,1.088-16.818,2.944
		c-0.974,1.856-17.548-14.758-34.244-16.234c-16.468-1.458-24.009,3.692-29.126,9.968c-5.118,6.276-6.577-21.608-33.635-20.307
		C0.609,145.084,0,160.96,0,162.067c0,0.748,0.112,10.067,0.184,16.048c16.67-6.871,34.019-3.683,51.368-1.536
		c9.064,1.348,17.854,4.732,26.702,7.187l39.636,0.336c10.449-2.293,20.899-5.308,31.347-5.308
		C157.473,178.795,165.304,180.451,172.878,183.255z"/>
	<path fill="#D9DFCB" d="M172.878,183.255c-7.574-2.804-15.405-4.46-23.641-4.46c-10.448,0-20.898,3.015-31.347,5.308l57.11,0.486
		C175,184.589,174.221,184.083,172.878,183.255z"/>
</g>
<g>
	<path fill="#D9DFBB" d="M719.849,250.294c-0.029,2.879-0.05,4.988-0.05,4.988l-64.146,0.662c7.275-2.454,14.503-5.839,21.957-7.187
		C691.875,246.61,706.142,243.423,719.849,250.294z"/>
	<path fill="#F0F3D7" d="M577.843,255.433c5.02-3.766,19.78-14.326,29.12-15.649c10.422-1.478,13.026,1.089,13.829,2.944
		c0.8,1.855,14.429-14.759,28.159-16.234c13.541-1.458,19.742,3.691,23.949,9.968c4.209,6.276,5.41-21.608,27.659-20.307
		c18.939,1.108,19.44,16.983,19.44,18.091c0,0.748-0.092,10.066-0.151,16.049c-13.707-6.871-27.974-3.684-42.239-1.536
		c-7.454,1.348-14.682,4.732-21.957,7.187l-32.594,0.336c-8.592-2.293-17.185-5.307-25.776-5.307
		C590.511,250.974,584.07,252.629,577.843,255.433z"/>
	<path fill="#D9DFBB" d="M577.843,255.433c6.228-2.804,12.668-4.459,19.439-4.459c8.592,0,17.185,3.014,28.294,4.721l-46.961,0.487
		C578.615,256.182,576.738,256.261,577.843,255.433z"/>
</g>
<circle fill="#F8F3E4" cx="141.5" cy="62.461" r="1.559"/>
<circle fill="#F8F3E4" cx="55" cy="104" r="1.559"/>
<circle fill="#F8F3E4" cx="370.559" cy="150" r="1.559"/>
<circle fill="#F8F3E4" cx="463.676" cy="163.592" r="1.559"/>
<circle fill="#F8F3E4" cx="402.848" cy="239.98" r="1.559"/>
<circle fill="#F8F3E4" cx="258.441" cy="49.441" r="1.559"/>
<circle fill="#F8F3E4" cx="575.098" cy="30.35" r="1.559"/>
<circle fill="#F8F3E4" cx="671.607" cy="104" r="1.559"/>
<circle fill="#F8F3E4" cx="578.304" cy="151.559" r="1.559"/>
<circle fill="#F8F3E4" cx="698" cy="209.017" r="1.559"/>
<circle fill="#F8F3E4" cx="653.559" cy="264.075" r="1.559"/>
<circle fill="#F8F3E4" cx="492.559" cy="143.932" r="0.775"/>
<circle fill="#F8F3E4" cx="415" cy="115.5" r="0.424"/>
<circle fill="#F8F3E4" cx="236.924" cy="193.5" r="0.424"/>
<circle fill="#F8F3E4" cx="343.576" cy="210.575" r="0.424"/>
<circle fill="#F8F3E4" cx="55" cy="41.849" r="0.424"/>
<circle fill="#F8F3E4" cx="20.424" cy="42.273" r="0.424"/>
<circle fill="#F8F3E4" cx="228.5" cy="29.075" r="0.424"/>
<circle fill="#F8F3E4" cx="192.271" cy="41.424" r="0.424"/>
<circle fill="#F8F3E4" cx="203.348" cy="134.559" r="0.424"/>
<circle fill="#F8F3E4" cx="236.5" cy="151.559" r="0.841"/>
<circle fill="#F8F3E4" cx="492.135" cy="29.5" r="0.424"/>
<circle fill="#F8F3E4" cx="486" cy="75.733" r="0.424"/>
<circle fill="#F8F3E4" cx="382.576" cy="74.884" r="0.424"/>
<circle fill="#F8F3E4" cx="401.289" cy="87.034" r="0.642"/>
<circle fill="#F8F3E4" cx="343.152" cy="58.92" r="0.424"/>
<circle fill="#F8F3E4" cx="402.424" cy="28.65" r="0.424"/>
<circle fill="#F8F3E4" cx="392.576" cy="58.496" r="0.424"/>
<circle fill="#F8F3E4" cx="624.146" cy="29.925" r="0.424"/>
<circle fill="#F8F3E4" cx="669.424" cy="136.542" r="0.424"/>
<circle fill="#F8F3E4" cx="688" cy="15.442" r="0.424"/>
<circle fill="#F8F3E4" cx="592" cy="164.017" r="0.424"/>
<circle fill="#F8F3E4" cx="60.5" cy="233.075" r="0.424"/>
<circle fill="#F8F3E4" cx="159.424" cy="121.883" r="0.424"/>
<circle fill="#F8F3E4" cx="117.89" cy="102.441" r="0.424"/>
<circle fill="#F8F3E4" cx="86.439" cy="133" r="0.424"/>
<circle fill="#F8F3E4" cx="112.576" cy="21" r="0.424"/>
<circle fill="#F8F3E4" cx="56.559" cy="253.558" r="0.424"/>
<circle fill="#F8F3E4" cx="112.152" cy="264.075" r="0.424"/>
<circle fill="#F8F3E4" cx="393" cy="230.075" r="0.424"/>
<circle fill="#F8F3E4" cx="517.559" cy="193.075" r="0.424"/>
<circle fill="#F8F3E4" cx="644.924" cy="211" r="0.424"/>
<path fill="#F8F3E4" d="M597.387,115.925c0-0.618,0.495-1.115,1.113-1.115c0.617,0,1.112,0.498,1.112,1.115
	c0,0.613-0.495,1.115-1.112,1.115C597.882,117.04,597.387,116.538,597.387,115.925z"/>
<path fill="#F8F3E4" d="M690.119,167.505c0-0.618,0.495-1.115,1.113-1.115c0.617,0,1.112,0.498,1.112,1.115
	c0,0.613-0.495,1.115-1.112,1.115C690.614,168.62,690.119,168.118,690.119,167.505z"/>
<path fill="#F8F3E4" d="M643.811,21.425c0-0.618,0.495-1.115,1.113-1.115c0.617,0,1.112,0.498,1.112,1.115
	c0,0.613-0.495,1.115-1.112,1.115C644.306,22.54,643.811,22.038,643.811,21.425z"/>
<path fill="#F8F3E4" d="M690.119,22.54c0-0.618,0.495-1.115,1.113-1.115c0.617,0,1.112,0.498,1.112,1.115
	c0,0.613-0.495,1.115-1.112,1.115C690.614,23.655,690.119,23.153,690.119,22.54z"/>
<path fill="#F8F3E4" d="M433.887,25.614c0-0.618,0.495-1.115,1.113-1.115c0.617,0,1.112,0.498,1.112,1.115
	c0,0.613-0.495,1.115-1.112,1.115C434.382,26.729,433.887,26.227,433.887,25.614z"/>
<path fill="#F8F3E4" d="M306.697,173.703c0-0.618,0.495-1.115,1.113-1.115c0.617,0,1.112,0.498,1.112,1.115
	c0,0.613-0.495,1.115-1.112,1.115C307.192,174.818,306.697,174.316,306.697,173.703z"/>
<path fill="#F8F3E4" d="M207.151,162.034c0-0.618,0.495-1.115,1.113-1.115c0.617,0,1.112,0.498,1.112,1.115
	c0,0.613-0.495,1.115-1.112,1.115C207.646,163.149,207.151,162.646,207.151,162.034z"/>
<path fill="#F8F3E4" d="M198.357,59.345c0-0.618,0.495-1.115,1.113-1.115c0.617,0,1.112,0.498,1.112,1.115
	c0,0.613-0.495,1.115-1.112,1.115C198.852,60.46,198.357,59.958,198.357,59.345z"/>
<path fill="#F8F3E4" d="M311.042,90.539c0-0.618,0.495-1.115,1.113-1.115c0.617,0,1.112,0.498,1.112,1.115
	c0,0.613-0.495,1.115-1.112,1.115C311.537,91.654,311.042,91.151,311.042,90.539z"/>
<path fill="#F8F3E4" d="M360.581,30.35c0-0.618,0.496-1.115,1.113-1.115s1.113,0.498,1.113,1.115c0,0.613-0.496,1.115-1.113,1.115
	S360.581,30.962,360.581,30.35z"/>
<path fill="#F8F3E4" d="M322.117,125c0-0.618,0.496-1.115,1.113-1.115s1.113,0.498,1.113,1.115c0,0.613-0.496,1.115-1.113,1.115
	S322.117,125.613,322.117,125z"/>
<path fill="#F8F3E4" d="M505.494,37.91c0-0.618,0.495-1.115,1.112-1.115s1.113,0.498,1.113,1.115c0,0.613-0.496,1.115-1.113,1.115
	S505.494,38.523,505.494,37.91z"/>
<path fill="#F8F3E4" d="M530.392,123.441c0-0.618,0.495-1.115,1.112-1.115s1.113,0.498,1.113,1.115c0,0.613-0.496,1.115-1.113,1.115
	S530.392,124.054,530.392,123.441z"/>
<path fill="#F8F3E4" d="M584.922,207.458c0-0.618,0.495-1.115,1.112-1.115s1.113,0.498,1.113,1.115c0,0.613-0.496,1.115-1.113,1.115
	S584.922,208.071,584.922,207.458z"/>
<path fill="#F8F3E4" d="M632.556,135.073c0-0.618,0.495-1.115,1.112-1.115s1.113,0.498,1.113,1.115c0,0.613-0.496,1.115-1.113,1.115
	S632.556,135.686,632.556,135.073z"/>
<path fill="#F8F3E4" d="M605.321,25.356c0-0.618,0.495-1.115,1.112-1.115s1.113,0.498,1.113,1.115c0,0.613-0.496,1.115-1.113,1.115
	S605.321,25.969,605.321,25.356z"/>
<path fill="#F8F3E4" d="M25.528,211.425c0-0.618,0.495-1.115,1.112-1.115s1.113,0.498,1.113,1.115c0,0.613-0.496,1.115-1.113,1.115
	S25.528,212.038,25.528,211.425z"/>
<path fill="#F8F3E4" d="M178.993,24.241c0-0.618,0.495-1.115,1.112-1.115s1.113,0.498,1.113,1.115c0,0.613-0.496,1.115-1.113,1.115
	S178.993,24.854,178.993,24.241z"/>
<path fill="#F8F3E4" d="M24.304,13.857c0-0.618,0.495-1.115,1.112-1.115s1.113,0.498,1.113,1.115c0,0.613-0.496,1.115-1.113,1.115
	S24.304,14.47,24.304,13.857z"/>
<path fill="#F8F3E4" d="M272.151,18.559c0-0.618,0.495-1.115,1.112-1.115s1.113,0.498,1.113,1.115c0,0.613-0.496,1.115-1.113,1.115
	S272.151,19.171,272.151,18.559z"/>
<path fill="#F8F3E4" d="M309.929,56.405c0-0.618,0.495-1.115,1.112-1.115s1.113,0.498,1.113,1.115c0,0.613-0.496,1.115-1.113,1.115
	S309.929,57.018,309.929,56.405z"/>
<path fill="#F8F3E4" d="M403.294,15.867c0-0.618,0.495-1.115,1.112-1.115s1.113,0.498,1.113,1.115c0,0.613-0.496,1.115-1.113,1.115
	S403.294,16.479,403.294,15.867z"/>
<path fill="#F8F3E4" d="M198.357,110.022c0-0.618,0.495-1.115,1.113-1.115c0.617,0,1.112,0.498,1.112,1.115
	c0,0.613-0.495,1.115-1.112,1.115C198.852,111.137,198.357,110.635,198.357,110.022z"/>
<path fill="#F8F3E4" d="M38.106,39.025c0-0.618,0.495-1.115,1.113-1.115c0.617,0,1.112,0.498,1.112,1.115
	c0,0.613-0.495,1.115-1.112,1.115C38.602,40.141,38.106,39.638,38.106,39.025z"/>
<path fill="#F8F3E4" d="M89.198,90.539c0-0.618,0.495-1.115,1.113-1.115c0.617,0,1.112,0.498,1.112,1.115
	c0,0.613-0.495,1.115-1.112,1.115C89.693,91.654,89.198,91.151,89.198,90.539z"/>
<circle fill="#F8F3E4" cx="435.424" cy="185.014" r="0.424"/>
<circle fill="#F8F3E4" cx="288.424" cy="225.5" r="0.424"/>
<circle fill="#F8F3E4" cx="213.348" cy="239.556" r="0.424"/>
<circle fill="#F8F3E4" cx="288" cy="75.309" r="0.424"/>
<circle fill="#F8F3E4" cx="298" cy="115.075" r="0.424"/>
<circle fill="#F8F3E4" cx="298" cy="163.592" r="0.424"/>
<circle fill="#F8F3E4" cx="351.576" cy="105.558" r="0.424"/>
<circle fill="#F8F3E4" cx="372.117" cy="105.983" r="0.424"/>
<circle fill="#F8F3E4" cx="213.771" cy="83.42" r="0.424"/>
<circle fill="#F8F3E4" cx="224.424" cy="51" r="0.424"/>
<circle fill="#F8F3E4" cx="173.726" cy="86.609" r="0.424"/>
<circle fill="#F8F3E4" cx="460.559" cy="60.903" r="1.559"/>
<circle fill="#F8F3E4" cx="360.092" cy="58.92" r="1.559"/>
<circle fill="#F8F3E4" cx="678" cy="134.558" r="1.559"/>
<circle fill="#F8F3E4" cx="517.559" cy="237.997" r="1.559"/>
<circle fill="#F8F3E4" cx="261.559" cy="251.999" r="1.559"/>
<circle fill="#F8F3E4" cx="263.117" cy="123.441" r="1.559"/>
<circle fill="#F8F3E4" cx="121.279" cy="33.799" r="1.559"/>
<circle fill="#F8F3E4" cx="91.338" cy="13.433" r="0.424"/>
<circle fill="#F8F3E4" cx="54.262" cy="25.781" r="0.424"/>
<circle fill="#F8F3E4" cx="65.338" cy="118.916" r="0.424"/>
<circle fill="#F8F3E4" cx="99.338" cy="135.916" r="0.841"/>
<circle fill="#F8F3E4" cx="21.414" cy="106.241" r="0.424"/>
<circle fill="#F8F3E4" cx="75.762" cy="67.777" r="0.424"/>
<circle fill="#F8F3E4" cx="86.414" cy="35.357" r="0.424"/>
<circle fill="#F8F3E4" cx="35.716" cy="70.967" r="0.424"/>
<circle fill="#F8F3E4" cx="125.955" cy="107.799" r="1.559"/>
<circle fill="#F8F3E4" cx="417.211" cy="72.429" r="1.559"/>
<circle fill="#F8F3E4" cx="387.27" cy="52.063" r="0.424"/>
<circle fill="#F8F3E4" cx="350.193" cy="64.412" r="0.424"/>
<circle fill="#F8F3E4" cx="241.535" cy="63.455" r="0.424"/>
<circle fill="#F8F3E4" cx="252.611" cy="156.589" r="0.424"/>
<circle fill="#F8F3E4" cx="208.688" cy="143.914" r="0.424"/>
<circle fill="#F8F3E4" cx="337.264" cy="97.339" r="0.424"/>
<circle fill="#F8F3E4" cx="347.264" cy="137.106" r="0.424"/>
<circle fill="#F8F3E4" cx="263.035" cy="105.451" r="0.424"/>
<circle fill="#F8F3E4" cx="273.688" cy="73.031" r="0.424"/>
<circle fill="#F8F3E4" cx="222.989" cy="108.64" r="0.424"/>
<circle fill="#F8F3E4" cx="399.457" cy="86.442" r="0.424"/>
<circle fill="#F8F3E4" cx="508.471" cy="16.462" r="0.424"/>
<circle fill="#F8F3E4" cx="519.547" cy="109.597" r="0.424"/>
<circle fill="#F8F3E4" cx="475.623" cy="96.922" r="0.424"/>
<circle fill="#F8F3E4" cx="604.199" cy="50.347" r="0.424"/>
<circle fill="#F8F3E4" cx="614.199" cy="90.114" r="0.424"/>
<circle fill="#F8F3E4" cx="529.971" cy="58.458" r="0.424"/>
<circle fill="#F8F3E4" cx="540.623" cy="26.039" r="0.424"/>
<circle fill="#F8F3E4" cx="489.925" cy="61.648" r="0.424"/>
<circle fill="#F8F3E4" cx="666.393" cy="39.45" r="0.424"/>
<circle fill="#F8F3E4" cx="561.185" cy="93.429" r="0.424"/>
<circle fill="#F8F3E4" cx="572.261" cy="186.563" r="0.424"/>
<circle fill="#F8F3E4" cx="528.337" cy="173.888" r="0.424"/>
<circle fill="#F8F3E4" cx="656.913" cy="127.313" r="0.424"/>
<circle fill="#F8F3E4" cx="666.913" cy="167.08" r="0.424"/>
<circle fill="#F8F3E4" cx="582.685" cy="135.425" r="0.424"/>
<circle fill="#F8F3E4" cx="593.337" cy="103.005" r="0.424"/>
<circle fill="#F8F3E4" cx="542.639" cy="138.614" r="0.424"/>
<circle fill="#F8F3E4" cx="719.106" cy="116.417" r="0.424"/>
<circle fill="#F8F3E4" cx="552.086" cy="10.794" r="0.424"/>
<circle fill="#F8F3E4" cx="563.162" cy="103.929" r="0.424"/>
<circle fill="#F8F3E4" cx="519.238" cy="91.254" r="0.424"/>
<circle fill="#F8F3E4" cx="647.814" cy="44.679" r="0.424"/>
<circle fill="#F8F3E4" cx="657.814" cy="84.446" r="0.424"/>
<circle fill="#F8F3E4" cx="573.586" cy="52.791" r="0.424"/>
<circle fill="#F8F3E4" cx="584.238" cy="20.371" r="0.424"/>
<circle fill="#F8F3E4" cx="533.54" cy="55.98" r="0.424"/>
<circle fill="#F8F3E4" cx="710.008" cy="33.782" r="0.424"/>
<circle fill="#F8F3E4" cx="361.27" cy="157.546" r="0.424"/>
<circle fill="#F8F3E4" cx="395.27" cy="174.546" r="0.842"/>
<circle fill="#F8F3E4" cx="317.346" cy="144.871" r="0.424"/>
<circle fill="#F8F3E4" cx="371.693" cy="106.408" r="0.424"/>
<circle fill="#F8F3E4" cx="382.346" cy="73.988" r="0.424"/>
<circle fill="#F8F3E4" cx="331.647" cy="109.597" r="0.424"/>
<path fill="#F8F3E4" d="M152.138,36.003c0-0.618,0.496-1.115,1.113-1.115s1.113,0.498,1.113,1.115c0,0.613-0.496,1.115-1.113,1.115
	S152.138,36.616,152.138,36.003z"/>
<circle fill="#F8F3E4" cx="128.021" cy="26.078" r="0.424"/>
<circle fill="#F8F3E4" cx="181.597" cy="16.561" r="0.424"/>
<circle fill="#F8F3E4" cx="167.285" cy="8.342" r="0.424"/>
<circle fill="#F8F3E4" cx="177.285" cy="48.109" r="0.424"/>
<circle fill="#F8F3E4" cx="161.668" cy="20.6" r="0.424"/>
<path fill="#F8F3E4" d="M71.581,67.123c0-0.618,0.496-1.115,1.113-1.115s1.113,0.498,1.113,1.115c0,0.613-0.496,1.115-1.113,1.115
	S71.581,67.735,71.581,67.123z"/>
<circle fill="#F8F3E4" cx="47.464" cy="57.198" r="0.424"/>
<circle fill="#F8F3E4" cx="101.04" cy="47.681" r="0.424"/>
<circle fill="#F8F3E4" cx="86.728" cy="39.462" r="0.424"/>
<circle fill="#F8F3E4" cx="96.728" cy="79.229" r="0.424"/>
<circle fill="#F8F3E4" cx="81.111" cy="51.72" r="0.424"/>
<path fill="#F8F3E4" d="M226.253,33.559c0-0.618,0.496-1.115,1.113-1.115s1.113,0.498,1.113,1.115c0,0.613-0.496,1.115-1.113,1.115
	S226.253,34.171,226.253,33.559z"/>
<circle fill="#F8F3E4" cx="202.136" cy="23.634" r="0.424"/>
<circle fill="#F8F3E4" cx="255.712" cy="14.117" r="0.424"/>
<circle fill="#F8F3E4" cx="241.399" cy="5.898" r="0.424"/>
<circle fill="#F8F3E4" cx="251.399" cy="45.665" r="0.424"/>
<circle fill="#F8F3E4" cx="235.783" cy="18.156" r="0.424"/>
<circle fill="#F8F3E4" cx="618.949" cy="27.078" r="0.424"/>
<circle fill="#F8F3E4" cx="646.161" cy="12.119" r="0.424"/>
<circle fill="#F8F3E4" cx="631.849" cy="3.9" r="0.424"/>
<circle fill="#F8F3E4" cx="626.232" cy="16.158" r="0.424"/>
<circle fill="#F8F3E4" cx="575.809" cy="28.589" r="0.424"/>
<circle fill="#F8F3E4" cx="603.021" cy="13.63" r="0.424"/>
<circle fill="#F8F3E4" cx="588.708" cy="5.412" r="0.424"/>
<circle fill="#F8F3E4" cx="583.092" cy="17.669" r="0.424"/>
<circle fill="#F8F3E4" cx="604.92" cy="139.327" r="0.424"/>
<circle fill="#F8F3E4" cx="632.132" cy="124.368" r="0.424"/>
<circle fill="#F8F3E4" cx="617.819" cy="116.149" r="0.424"/>
<circle fill="#F8F3E4" cx="612.203" cy="128.407" r="0.424"/>
<circle fill="#F8F3E4" cx="639.953" cy="116.615" r="0.424"/>
<circle fill="#F8F3E4" cx="667.165" cy="101.656" r="0.424"/>
<circle fill="#F8F3E4" cx="652.853" cy="93.438" r="0.424"/>
<circle fill="#F8F3E4" cx="647.236" cy="105.695" r="0.424"/>
<circle fill="#F8F3E4" cx="684.395" cy="118.421" r="0.424"/>
<circle fill="#F8F3E4" cx="711.606" cy="103.463" r="0.424"/>
<circle fill="#F8F3E4" cx="697.294" cy="95.244" r="0.424"/>
<circle fill="#F8F3E4" cx="691.678" cy="107.502" r="0.424"/>
<circle fill="#F8F3E4" cx="649.911" cy="184.327" r="0.424"/>
<circle fill="#F8F3E4" cx="615.199" cy="186.332" r="0.424"/>
<circle fill="#F8F3E4" cx="642.411" cy="171.373" r="0.424"/>
<circle fill="#F8F3E4" cx="622.482" cy="175.412" r="0.424"/>
<circle fill="#F8F3E4" cx="693.798" cy="23.569" r="0.424"/>
<circle fill="#F8F3E4" cx="626.656" cy="107.077" r="0.424"/>
<circle fill="#F8F3E4" cx="659.086" cy="25.574" r="0.424"/>
<circle fill="#F8F3E4" cx="686.298" cy="10.615" r="0.424"/>
<circle fill="#F8F3E4" cx="666.369" cy="14.654" r="0.424"/>
<circle fill="#F8F3E4" cx="701.722" cy="36.098" r="0.424"/>
<circle fill="#F8F3E4" cx="667.01" cy="38.103" r="0.424"/>
<circle fill="#F8F3E4" cx="694.222" cy="23.144" r="0.424"/>
<circle fill="#F8F3E4" cx="674.293" cy="27.183" r="0.424"/>
<path fill="#F8F3E4" d="M319.446,37.702c0-0.618,0.496-1.115,1.113-1.115s1.113,0.498,1.113,1.115c0,0.613-0.496,1.115-1.113,1.115
	S319.446,38.315,319.446,37.702z"/>
<circle fill="#F8F3E4" cx="295.329" cy="27.777" r="0.424"/>
<circle fill="#F8F3E4" cx="348.905" cy="18.26" r="0.424"/>
<circle fill="#F8F3E4" cx="334.593" cy="10.042" r="0.424"/>
<circle fill="#F8F3E4" cx="344.593" cy="49.808" r="0.424"/>
<circle fill="#F8F3E4" cx="328.977" cy="22.299" r="0.424"/>
<path fill="#F8F3E4" d="M369.869,34.506c0-0.618,0.496-1.115,1.113-1.115s1.113,0.498,1.113,1.115c0,0.613-0.496,1.115-1.113,1.115
	S369.869,35.119,369.869,34.506z"/>
<circle fill="#F8F3E4" cx="345.752" cy="24.582" r="0.424"/>
<circle fill="#F8F3E4" cx="399.328" cy="15.064" r="0.424"/>
<circle fill="#F8F3E4" cx="385.016" cy="6.846" r="0.424"/>
<circle fill="#F8F3E4" cx="395.016" cy="46.612" r="0.424"/>
<circle fill="#F8F3E4" cx="379.4" cy="19.104" r="0.424"/>
<path fill="#F8F3E4" d="M442.803,36.428c0-0.618,0.496-1.115,1.113-1.115s1.113,0.498,1.113,1.115c0,0.613-0.496,1.115-1.113,1.115
	S442.803,37.041,442.803,36.428z"/>
<circle fill="#F8F3E4" cx="418.686" cy="26.503" r="0.424"/>
<circle fill="#F8F3E4" cx="472.262" cy="16.986" r="0.424"/>
<circle fill="#F8F3E4" cx="457.949" cy="8.767" r="0.424"/>
<circle fill="#F8F3E4" cx="467.949" cy="48.534" r="0.424"/>
<circle fill="#F8F3E4" cx="452.334" cy="21.025" r="0.424"/>
<path fill="#F8F3E4" d="M439.545,98.606c0-0.618,0.496-1.115,1.113-1.115s1.113,0.498,1.113,1.115c0,0.613-0.496,1.115-1.113,1.115
	S439.545,99.219,439.545,98.606z"/>
<circle fill="#F8F3E4" cx="415.428" cy="88.682" r="0.424"/>
<circle fill="#F8F3E4" cx="469.004" cy="79.165" r="0.424"/>
<circle fill="#F8F3E4" cx="454.691" cy="70.946" r="0.424"/>
<circle fill="#F8F3E4" cx="464.691" cy="110.712" r="0.424"/>
<circle fill="#F8F3E4" cx="449.076" cy="83.204" r="0.424"/>
<path fill="#F8F3E4" d="M441.245,57.161c0-0.618,0.496-1.115,1.113-1.115s1.113,0.498,1.113,1.115c0,0.613-0.496,1.115-1.113,1.115
	S441.245,57.773,441.245,57.161z"/>
<circle fill="#F8F3E4" cx="417.128" cy="47.236" r="0.424"/>
<circle fill="#F8F3E4" cx="470.704" cy="37.719" r="0.424"/>
<circle fill="#F8F3E4" cx="456.392" cy="29.5" r="0.424"/>
<circle fill="#F8F3E4" cx="466.392" cy="69.267" r="0.424"/>
<circle fill="#F8F3E4" cx="450.776" cy="41.758" r="0.424"/>
<path fill="#F8F3E4" d="M525.242,34.506c0-0.618,0.496-1.115,1.113-1.115s1.113,0.498,1.113,1.115c0,0.613-0.496,1.115-1.113,1.115
	S525.242,35.119,525.242,34.506z"/>
<circle fill="#F8F3E4" cx="501.125" cy="24.582" r="0.424"/>
<circle fill="#F8F3E4" cx="554.701" cy="15.064" r="0.424"/>
<circle fill="#F8F3E4" cx="540.389" cy="6.846" r="0.424"/>
<circle fill="#F8F3E4" cx="550.389" cy="46.612" r="0.424"/>
<circle fill="#F8F3E4" cx="534.773" cy="19.104" r="0.424"/>
<path fill="#F8F3E4" d="M509.699,83.511c0-0.618,0.496-1.115,1.113-1.115s1.113,0.498,1.113,1.115c0,0.613-0.496,1.115-1.113,1.115
	S509.699,84.124,509.699,83.511z"/>
<circle fill="#F8F3E4" cx="485.582" cy="73.586" r="0.424"/>
<circle fill="#F8F3E4" cx="539.158" cy="64.069" r="0.424"/>
<circle fill="#F8F3E4" cx="524.846" cy="55.85" r="0.424"/>
<circle fill="#F8F3E4" cx="534.846" cy="95.617" r="0.424"/>
<circle fill="#F8F3E4" cx="519.23" cy="68.108" r="0.424"/>
<circle fill="#F8F3E4" cx="421.887" cy="146.429" r="1.559"/>
<circle fill="#F8F3E4" cx="320.559" cy="17" r="1.559"/>
<rect x="0.089" y="397.115" fill="#BC7B5F" width="720" height="106.999"/>
<polygon opacity="0.5" fill="#82462F" points="693.926,473.746 720,471.344 720,450.969 694.145,443.902 720,437.618 720,414.288 
	633.672,409.145 680.257,397.539 524.667,396.397 603.675,408.925 519.599,419.559 633.59,420.395 478.962,438.253 655.938,440.909 
	483.323,457.277 655.74,468.039 409.493,502.555 720,504.832 720,481.331 "/>
<polygon fill="#E1A46E" points="0,333.001 27.252,341.442 40.015,350.478 78.303,348.334 145.309,363.72 204.869,351.287 
	223.616,341.64 252.729,358.453 467.57,379.72 501.605,374.009 571.801,379.72 624.979,374.764 720.18,379.584 719.996,396.999 
	0,396.999 "/>
<polygon opacity="0.6" fill="#AF7A61" points="78.254,350 144,365.381 128.333,365.381 "/>
<polygon opacity="0.6" fill="#AF7A61" points="26.667,343.334 38.67,352.003 33.583,352.003 25.417,343.334 "/>
<polygon opacity="0.6" fill="#AF7A61" points="223.667,343.334 250.25,359.666 244.833,359.666 "/>
<polygon opacity="0.6" fill="#AF7A61" points="39.75,355 96.5,374.5 88.75,374.5 34.833,355 "/>
<polygon opacity="0.6" fill="#AF7A61" points="501.667,376.625 570.892,384.561 553.75,385.412 "/>
<polygon opacity="0.6" fill="#AF7A61" points="625.5,376.625 700.523,383.164 680.773,384.117 "/>
<polygon opacity="0.6" fill="#AF7A61" points="250.833,360.5 356.167,372.25 245.326,360.652 "/>
<polygon opacity="0.6" fill="#AF7A61" points="231.067,365 336.4,376.75 225.56,365.152 "/>
<polygon opacity="0.6" fill="#AF7A61" points="100.333,374.5 145.833,369.334 145.833,371.917 "/>
<polygon opacity="0.6" fill="#AF7A61" points="145.833,369.334 145.833,371.917 205.333,377.501 "/>
<g opacity="0.8">
	<path opacity="0.5" fill="#F0F3D7" d="M217.927,280.805c-14.101-0.462-43.543,0.562-48.034,3.764
		c-4.49,3.202-14.097,4.34-24.303,2.794c-10.207-1.546-26.417-3.107-32.42,0.791c-1.831,1.189-5.185,2.414-9.027,3.522
		c6.392,0.265,12.784,0.719,19.176,0.719c24.315,1.817,48.63-0.908,73.846-2.726c19.604-1.913,42.317,4.685,61.278-0.025
		c-2.507-0.59-4.895-1.119-6.841-1.49C243.451,286.597,232.027,281.266,217.927,280.805z"/>
	<path opacity="0.5" fill="#D9DFCB" d="M197.165,289.669c-25.216,1.817-49.531,4.543-73.846,2.726
		c-6.392,0-12.784-0.454-19.176-0.719c-5.559,1.603-12.138,2.959-16.635,3.596c8.589,0.013,24.759,0.508,24.759,0.508l163.377-1.755
		c0,0-9.208-2.501-17.201-4.381C239.482,294.354,216.769,287.756,197.165,289.669z"/>
</g>
<g opacity="0.5">
	<path opacity="0.5" fill="#F0F3D7" d="M469.763,297.979c-10.603-0.464-32.742,0.564-36.119,3.778s-10.6,4.355-18.274,2.804
		c-7.676-1.552-19.864-3.119-24.379,0.794c-1.377,1.194-3.898,2.423-6.787,3.535c4.806,0.266,9.612,0.722,14.418,0.722
		c18.285,1.824,36.568-0.911,55.53-2.735c14.741-1.92,31.82,4.702,46.078-0.025c-1.885-0.592-3.681-1.123-5.144-1.496
		C488.956,303.793,480.366,298.442,469.763,297.979z"/>
	<path opacity="0.5" fill="#D9DFCB" d="M454.151,306.877c-18.962,1.824-37.245,4.56-55.53,2.735c-4.806,0-9.612-0.456-14.418-0.722
		c-4.181,1.609-9.128,2.971-12.51,3.609c6.459,0.013,18.618,0.51,18.618,0.51l122.853-1.762c0,0-6.924-2.51-12.935-4.396
		C485.972,311.579,468.893,304.957,454.151,306.877z"/>
</g>
<g opacity="0.5">
	<path opacity="0.5" fill="#F0F3D7" d="M698.941,316.658c-10.603-0.464-32.742,0.564-36.119,3.778s-10.6,4.355-18.274,2.804
		c-7.676-1.552-19.864-3.119-24.379,0.794c-1.377,1.194-3.898,2.423-6.787,3.535c4.806,0.266,9.612,0.722,14.418,0.722
		c18.285,1.824,36.568-0.911,55.53-2.735c11.613-1.513,24.677,2.273,36.67,1.638v-4.599
		C714.369,320.404,707.281,317.022,698.941,316.658z"/>
	<path opacity="0.5" fill="#D9DFCB" d="M683.33,325.556c-18.962,1.824-37.245,4.56-55.53,2.735c-4.806,0-9.612-0.456-14.418-0.722
		c-4.181,1.609-9.128,2.971-12.51,3.609c6.459,0.013,18.618,0.51,18.618,0.51L720,330.247v-3.054
		C708.007,327.829,694.943,324.043,683.33,325.556z"/>
</g>
<polygon opacity="0.6" fill="#AF7A61" points="26.641,343.084 25.167,343.084 0,335.584 0,334.751 "/>
<polygon opacity="0.6" fill="#AF7A61" points="206.333,351.5 230.119,364.091 224.833,364 "/>
<path opacity="0.6" fill="#AF7A61" d="M467.5,382.25c0.375,0,48.75,8.125,48.75,8.125h-7L467.5,382.25z"/>
<polygon opacity="0.5" fill="#82462F" points="235.659,407 139.941,429 237.348,437 53.441,463 158.152,479 39.219,503.999 
	0,503.999 0,455.5 123.083,439.754 86.863,432 "/>
<g>
	<g>
		<g>
			<g>
				<path fill="#544728" d="M64.798,327.608c-0.848-5.29-7.467-6.917-7.173,2.565c0.417,13.452,11.86,40.262,20.073,51.71
					c0.696,0.971,1.379,1.896,2.055,2.799c0.019-4.743,0.315-9.491,0.677-14.351C75.854,363.068,67.569,344.904,64.798,327.608z"/>
				<path fill="#42361F" d="M81.62,372.092c-0.357-0.48-0.758-1.075-1.189-1.76c-0.362,4.859-0.659,9.607-0.677,14.351
					c2.712,3.621,5.263,6.717,7.632,9.356c0.879-2.463,1.804-4.908,2.74-7.324c0.232-1.018,0.446-2.041,0.628-3.075
					C88.153,380.591,85.125,376.806,81.62,372.092z"/>
			</g>
			<g>
				<path fill="#3C3A25" d="M76.914,368.07c-14.987-27.7-14.102-44.79-14.091-44.96l-0.998-0.064
					c-0.011,0.172-0.931,17.516,14.21,45.5c4.939,9.129,9.708,15.678,13.916,20.375c0.128-0.374,0.259-0.746,0.391-1.119
					C86.259,383.192,81.657,376.836,76.914,368.07z"/>
			</g>
			<g>
				<path fill="#33311F" d="M74.572,370.711c-14.993-27.712-14.268-46.992-14.259-47.185l-0.999-0.048
					c-0.009,0.195-0.76,19.729,14.378,47.708c4.937,9.124,10.24,15.978,15.155,21.077c0.114-0.36,0.234-0.719,0.351-1.079
					C84.448,386.188,79.342,379.527,74.572,370.711z"/>
			</g>
		</g>
	</g>
	<g>
		<g>
			<path fill="#836637" d="M127.189,356.325c6.188-12.658,12.999-41.001,11.166-54.334c-1.292-9.398-7.547-6.69-7.5-1.333
				c0.167,19.166-6.003,40.467-9.166,46.666c-8.985,17.61-14.428,24.026-16.779,26.242c0.547,3.813,2.068,7.075,4.262,9.782
				C113.617,379.031,120.034,370.959,127.189,356.325z"/>
		</g>
		<g>
			<path fill="#725730" d="M103.543,374.657c0,0-2.665,14.501,0.359,12.833c1.057-0.583,2.879-1.821,5.269-4.142
				c-2.193-2.707-3.715-5.969-4.262-9.782C103.99,374.434,103.543,374.657,103.543,374.657z"/>
		</g>
		<g>
			<path fill="#604726" d="M103.013,379.315l-0.408-0.913c0.128-0.058,12.932-6.122,23.053-35.828
				c10.169-29.848,6.433-46.516,6.394-46.68l0.974-0.23c0.04,0.168,3.84,17.115-6.421,47.232
				C116.319,373.085,103.551,379.075,103.013,379.315z"/>
		</g>
		<g>
			<path fill="#4C461D" d="M101.64,385.013l-0.477-0.879c0.17-0.093,17.104-9.583,27.245-39.347
				c10.17-29.852,6.229-48.714,6.188-48.9l0.977-0.215c0.042,0.19,4.041,19.325-6.219,49.438
				C119.077,375.274,101.813,384.919,101.64,385.013z"/>
		</g>
	</g>
	<path fill="#544727" d="M84.857,444.158c0,5.154,3.582,9.333,7.999,9.333c4.418,0,12.666-3.512,12.666-8.666l-0.233-8.338
		c-6.995-1.566-13.846-4.458-20.354-7.886L84.857,444.158z"/>
	<path fill="#5F522E" d="M92.856,233.158c-4.417,0-6.999,4.179-6.999,9.333l-0.923,186.11c6.509,3.428,13.36,6.319,20.354,7.886
		l-5.433-193.996C99.856,237.337,97.274,233.158,92.856,233.158z"/>
	<path fill="#3C3A25" d="M96.134,453.011c0,0-1.591,0.499-2.235,0.499l0,0c-0.644,0-1.042-0.019-1.042-0.019l-0.7-219.324
		c0-0.645-0.188-1.009,0.673-1.009l0,0c0.796,0,0.671,0.364,0.671,1.009L96.134,453.011z"/>
	<path fill="#44412D" d="M97.498,235.992c-0.008-0.645,0.07-0.841-0.669-1.4c-0.86,0.01-0.683,0.772-0.675,1.417l2.143,216.306
		c1.037-0.519,2.068-1.045,3.105-1.563L97.498,235.992z"/>
	<path fill="#33311F" d="M90.311,453.006L89,235.417c-0.042-1.094,0.089-0.993-0.62-0.453c-0.677,0.83-0.726,1.109-0.726,0.992
		l-0.486,214.898C87.95,451.971,89.082,452.336,90.311,453.006z"/>
</g>
<g>
	<g>
		<g>
			<g>
				<path fill="#544728" d="M501.654,357.665c-0.443-2.771-3.91-3.623-3.757,1.344c0.218,7.046,6.212,21.089,10.515,27.086
					c0.364,0.509,0.722,0.993,1.076,1.466c0.01-2.484,0.165-4.971,0.355-7.517C507.446,376.239,503.106,366.725,501.654,357.665z"/>
				<path fill="#42361F" d="M510.466,380.966c-0.187-0.252-0.397-0.563-0.622-0.922c-0.19,2.546-0.346,5.032-0.355,7.517
					c1.421,1.897,2.757,3.519,3.998,4.901c0.461-1.29,0.945-2.57,1.436-3.836c0.121-0.533,0.234-1.069,0.329-1.611
					C513.888,385.417,512.303,383.436,510.466,380.966z"/>
			</g>
			<g>
				<path fill="#3C3A25" d="M508.001,378.859c-7.851-14.51-7.387-23.462-7.381-23.55l-0.522-0.034
					c-0.006,0.09-0.488,9.175,7.443,23.833c2.587,4.781,5.085,8.212,7.289,10.673c0.066-0.196,0.136-0.391,0.205-0.587
					C512.896,386.78,510.485,383.45,508.001,378.859z"/>
			</g>
			<g>
				<path fill="#33311F" d="M506.773,380.242c-7.854-14.515-7.473-24.614-7.468-24.715l-0.523-0.026
					c-0.005,0.103-0.398,10.335,7.531,24.991c2.587,4.778,5.364,8.368,7.938,11.04c0.06-0.188,0.123-0.377,0.184-0.565
					C511.947,388.35,509.273,384.861,506.773,380.242z"/>
			</g>
		</g>
	</g>
	<g>
		<g>
			<path fill="#836637" d="M534.336,372.707c3.241-6.631,6.809-21.477,5.848-28.461c-0.676-4.923-3.952-3.504-3.927-0.698
				c0.087,10.039-3.146,21.197-4.802,24.444c-4.707,9.225-7.558,12.586-8.79,13.746c0.287,1.997,1.083,3.706,2.232,5.124
				C527.227,384.601,530.588,380.372,534.336,372.707z"/>
		</g>
		<g>
			<path fill="#725730" d="M521.95,382.31c0,0-1.396,7.596,0.188,6.723c0.553-0.306,1.508-0.954,2.759-2.17
				c-1.149-1.418-1.945-3.127-2.232-5.124C522.184,382.192,521.95,382.31,521.95,382.31z"/>
		</g>
		<g>
			<path fill="#604726" d="M521.672,384.749l-0.214-0.478c0.067-0.03,6.774-3.207,12.075-18.768
				c5.327-15.634,3.369-24.365,3.35-24.451l0.51-0.121c0.021,0.089,2.012,8.966-3.363,24.741
				C528.642,381.486,521.953,384.624,521.672,384.749z"/>
		</g>
		<g>
			<path fill="#4C461D" d="M520.952,387.733l-0.249-0.46c0.089-0.049,8.96-5.02,14.271-20.61
				c5.327-15.637,3.263-25.517,3.241-25.614l0.511-0.112c0.022,0.1,2.117,10.123-3.258,25.896
				C530.086,382.633,521.044,387.685,520.952,387.733z"/>
		</g>
	</g>
	<path fill="#544727" d="M512.161,418.715c0,2.7,1.877,4.889,4.191,4.889c2.313,0,6.634-1.839,6.634-4.539l-0.123-4.367
		c-3.663-0.82-7.252-2.336-10.662-4.131L512.161,418.715z"/>
	<path fill="#5F522E" d="M516.353,308.191c-2.314,0-3.667,2.188-3.667,4.889l-0.484,97.486c3.41,1.795,6.999,3.311,10.662,4.131
		l-2.846-101.617C520.018,310.38,518.666,308.191,516.353,308.191z"/>
	<path fill="#3C3A25" d="M518.068,423.353c0,0-0.833,0.261-1.171,0.261l0,0c-0.338,0-0.545-0.01-0.545-0.01l-0.368-114.884
		c0-0.338-0.098-0.528,0.354-0.528l0,0c0.416,0,0.351,0.19,0.351,0.528L518.068,423.353z"/>
	<path fill="#44412D" d="M518.783,309.675c-0.004-0.337,0.036-0.439-0.351-0.732c-0.45,0.005-0.356,0.404-0.354,0.741l1.123,113.304
		c0.543-0.271,1.083-0.547,1.626-0.818L518.783,309.675z"/>
	<path fill="#33311F" d="M515.019,423.35l-0.686-113.976c-0.022-0.573,0.046-0.521-0.326-0.237c-0.354,0.435-0.38,0.581-0.38,0.52
		l-0.254,112.566C513.782,422.808,514.375,422.999,515.019,423.35z"/>
</g>
<g>
	<path fill="#514525" d="M163.848,433.102l4.002,3.531c0.229,0.076,2.627,0.115,6.125,0.131c0.504,0.002,1.038,0.004,1.584,0.005
		l-5.849-3.689C167.76,432.961,165.805,432.944,163.848,433.102z"/>
	<path fill="#5F522E" d="M163.848,433.102c1.957-0.157,3.912-0.141,5.863-0.022l-20.649-13.024L163.848,433.102z"/>
	<path fill="#514525" d="M189.578,435.343l-0.095,1.398c0.825-0.004,1.644-0.008,2.452-0.012c0.273-0.457,0.557-0.933,0.846-1.416
		C191.718,435.368,190.65,435.378,189.578,435.343z"/>
	<path fill="#5F522E" d="M196.059,422.842l-3.594-30.219l-2.887,42.72c1.072,0.035,2.14,0.025,3.203-0.029
		c5.958-9.979,15.157-25.423,18.968-31.938L196.059,422.842z"/>
	<path fill="#725730" d="M186.029,420.647l-14.839-26.71l14.165,41.093c1.247,0.135,2.488,0.236,3.724,0.29l2.875-42.529
		L186.029,420.647z"/>
	<path fill="#604828" d="M185.949,436.756c1.011-0.003,2.025-0.008,3.033-0.012l0.096-1.424c-1.235-0.054-2.477-0.155-3.724-0.29
		L185.949,436.756z"/>
	<path fill="#604828" d="M176.501,436.771c1.733,0.003,3.629,0.001,5.605-0.003l-2-2.43c-3.093-0.454-6.21-0.938-9.341-1.186
		L176.501,436.771z"/>
	<path fill="#725730" d="M170.044,427.856l-23.507-10.03l0.172,0.152l24.056,15.174c3.131,0.247,6.248,0.731,9.341,1.186
		l-24.636-29.914L170.044,427.856z"/>
	<path fill="#604828" d="M193.382,435.281c-0.365,0.611-0.663,1.11-0.863,1.445c2.2-0.012,4.295-0.025,6.163-0.037l4.231-3.53
		c-0.684,0.172-1.371,0.345-2.068,0.52C198.391,434.623,195.901,435.103,193.382,435.281z"/>
	<path fill="#725730" d="M201.388,428.797l10.918-25.377c-1.464,2.52-4.183,7.104-9.195,15.532
		c-3.922,6.595-7.834,13.154-9.729,16.329c2.519-0.179,5.009-0.658,7.463-1.603c0.697-0.175,1.384-0.348,2.068-0.52l20.233-16.881
		L201.388,428.797z"/>
	<path fill="#514525" d="M199.47,436.684c4.11-0.027,6.933-0.051,6.933-0.051l4.448-5.229c-2.245,0.373-4.501,0.9-6.823,1.477
		L199.47,436.684z"/>
	<path fill="#5F522E" d="M204.027,432.881c2.322-0.576,4.579-1.104,6.823-1.477l12.359-14.526L204.027,432.881z"/>
	<path fill="#514525" d="M182.752,436.766c0.88-0.002,1.771-0.004,2.669-0.008l-0.616-1.787c-1.315-0.151-2.637-0.332-3.963-0.524
		L182.752,436.766z"/>
	<path fill="#5F522E" d="M177.253,423.155l-22.444-20.321l26.033,31.612c1.326,0.192,2.647,0.373,3.963,0.524l-14.051-40.765
		L177.253,423.155z"/>
</g>
<g>
	<path fill="#514525" d="M565.864,431.855l3.454,3.049c0.197,0.065,2.268,0.099,5.288,0.112c0.435,0.002,0.896,0.004,1.367,0.004
		l-5.049-3.184C569.241,431.734,567.554,431.72,565.864,431.855z"/>
	<path fill="#5F522E" d="M565.864,431.855c1.689-0.136,3.377-0.121,5.061-0.019l-17.823-11.242L565.864,431.855z"/>
	<path fill="#514525" d="M588.073,433.79l-0.082,1.207c0.713-0.003,1.419-0.007,2.117-0.01c0.235-0.395,0.48-0.805,0.729-1.223
		C589.92,433.812,588.999,433.82,588.073,433.79z"/>
	<path fill="#5F522E" d="M593.667,423l-3.102-26.083l-2.492,36.873c0.926,0.03,1.847,0.022,2.765-0.025
		c5.142-8.612,13.082-21.943,16.371-27.566L593.667,423z"/>
	<path fill="#725730" d="M585.011,421.106l-12.81-23.055l12.227,35.469c1.076,0.116,2.147,0.204,3.214,0.25l2.481-36.709
		L585.011,421.106z"/>
	<path fill="#604828" d="M584.941,435.01c0.872-0.002,1.748-0.007,2.618-0.01l0.082-1.229c-1.066-0.046-2.138-0.134-3.214-0.25
		L584.941,435.01z"/>
	<path fill="#604828" d="M576.786,435.022c1.496,0.003,3.133,0.001,4.838-0.002l-1.727-2.098c-2.671-0.392-5.361-0.81-8.063-1.023
		L576.786,435.022z"/>
	<path fill="#725730" d="M571.213,427.328l-20.29-8.657l0.148,0.132l20.763,13.097c2.702,0.214,5.393,0.632,8.063,1.023
		l-21.265-25.82L571.213,427.328z"/>
	<path fill="#604828" d="M591.356,433.737c-0.314,0.527-0.572,0.958-0.744,1.247c1.898-0.01,3.707-0.021,5.318-0.031l3.652-3.048
		c-0.59,0.148-1.182,0.298-1.784,0.448C595.68,433.169,593.53,433.583,591.356,433.737z"/>
	<path fill="#725730" d="M598.267,428.141l9.425-21.904c-1.265,2.175-3.611,6.131-7.937,13.406
		c-3.386,5.692-6.762,11.354-8.398,14.095c2.174-0.154,4.323-0.568,6.442-1.384c0.603-0.15,1.194-0.3,1.784-0.448l17.465-14.57
		L598.267,428.141z"/>
	<path fill="#514525" d="M596.611,434.947c3.548-0.023,5.983-0.043,5.983-0.043l3.84-4.514c-1.938,0.322-3.885,0.777-5.89,1.274
		L596.611,434.947z"/>
	<path fill="#5F522E" d="M600.545,431.665c2.005-0.497,3.952-0.952,5.89-1.274l10.667-12.538L600.545,431.665z"/>
	<path fill="#514525" d="M582.182,435.019c0.76-0.002,1.528-0.004,2.305-0.007l-0.533-1.543c-1.135-0.13-2.275-0.286-3.421-0.452
		L582.182,435.019z"/>
	<path fill="#5F522E" d="M577.435,423.271l-19.372-17.54l22.47,27.286c1.146,0.166,2.286,0.322,3.421,0.452l-12.128-35.186
		L577.435,423.271z"/>
</g>
<g>
	<path fill="#514525" d="M669.411,410.821l2.451,2.164c0.141,0.046,1.609,0.069,3.753,0.079c0.309,0.002,0.636,0.003,0.971,0.003
		l-3.583-2.26C671.808,410.735,670.61,410.725,669.411,410.821z"/>
	<path fill="#5F522E" d="M669.411,410.821c1.199-0.097,2.396-0.086,3.592-0.014l-12.649-7.979L669.411,410.821z"/>
	<path fill="#514525" d="M685.173,412.194l-0.059,0.856c0.507-0.002,1.007-0.005,1.503-0.007c0.167-0.28,0.341-0.571,0.518-0.868
		C686.483,412.21,685.83,412.216,685.173,412.194z"/>
	<path fill="#5F522E" d="M689.143,404.536l-2.201-18.511l-1.769,26.169c0.657,0.021,1.311,0.016,1.962-0.019
		c3.649-6.111,9.284-15.572,11.618-19.563L689.143,404.536z"/>
	<path fill="#725730" d="M682.999,403.192l-9.091-16.361l8.678,25.172c0.764,0.082,1.523,0.145,2.28,0.178l1.762-26.053
		L682.999,403.192z"/>
	<path fill="#604828" d="M682.95,413.06c0.619-0.001,1.24-0.005,1.858-0.007l0.058-0.872c-0.757-0.033-1.517-0.096-2.28-0.178
		L682.95,413.06z"/>
	<path fill="#604828" d="M677.162,413.068c1.062,0.003,2.224,0.001,3.434-0.001l-1.225-1.488c-1.896-0.278-3.806-0.575-5.723-0.727
		L677.162,413.068z"/>
	<path fill="#725730" d="M673.207,407.608l-14.399-6.145l0.105,0.094l14.735,9.295c1.917,0.151,3.826,0.448,5.723,0.727
		l-15.092-18.325L673.207,407.608z"/>
	<path fill="#604828" d="M687.503,412.157c-0.224,0.374-0.406,0.68-0.528,0.885c1.348-0.007,2.631-0.016,3.774-0.022l2.592-2.163
		c-0.418,0.105-0.838,0.212-1.266,0.318C690.571,411.753,689.046,412.047,687.503,412.157z"/>
	<path fill="#725730" d="M692.407,408.185l6.688-15.545c-0.897,1.543-2.562,4.351-5.633,9.515c-2.402,4.039-4.799,8.058-5.96,10.003
		c1.543-0.11,3.068-0.404,4.572-0.982c0.428-0.106,0.848-0.213,1.266-0.318l12.396-10.34L692.407,408.185z"/>
	<path fill="#514525" d="M691.232,413.016c2.518-0.017,4.246-0.03,4.246-0.03l2.725-3.204c-1.375,0.229-2.757,0.552-4.18,0.905
		L691.232,413.016z"/>
	<path fill="#5F522E" d="M694.023,410.687c1.423-0.354,2.805-0.676,4.18-0.905l7.57-8.897L694.023,410.687z"/>
	<path fill="#514525" d="M680.992,413.066c0.539-0.002,1.084-0.003,1.635-0.005l-0.378-1.096c-0.806-0.092-1.615-0.203-2.428-0.32
		L680.992,413.066z"/>
	<path fill="#5F522E" d="M677.623,404.729l-13.748-12.448l15.946,19.365c0.812,0.117,1.622,0.229,2.428,0.32l-8.607-24.971
		L677.623,404.729z"/>
</g>
<path opacity="0.5" fill="#33311F" d="M445.474,140.261c0,0,12,4.791,9,8.062s9.667-3.938,15.667,0
	c6,3.938-8.999-4.139-12.333-2.069S458.808,138.261,445.474,140.261z"/>
<path opacity="0.5" fill="#33311F" d="M422.355,169.832c0,0,12,4.791,9,8.062c-1.309,1.426,2.357-1.331,7.125-0.688
	c4.625,0.625,11.228,1.691,8.542,0.688c-2.792-1.045-8.999-4.138-12.333-2.068C431.355,177.894,435.689,167.832,422.355,169.832z"/>
<path opacity="0.5" fill="#33311F" d="M512.558,186.357c0,0,7.494,2.992,5.62,5.035c-0.817,0.891,1.472-0.832,4.449-0.43
	c2.888,0.391,7.012,1.057,5.335,0.43c-1.744-0.652-3.538-3.875-5.62-2.584C520.26,190.102,520.884,185.108,512.558,186.357z"/>
<path opacity="0.3" fill="#82462F" d="M390.559,396.196c-2,0.5-132,9.5-132,9.5l39,3.117l-63.809,10.537l134.5-11.577l-67.691-1.538
	L390.559,396.196z"/>
<polygon opacity="0.3" fill="#82462F" points="420.856,403.137 427.762,402.543 461.106,402.599 386.778,417.02 435.564,404.67 "/>
<path opacity="0.5" fill="#F0F3D7" d="M240.693,225.695c0.677,0.218,2.786,0.075,5.66-0.33
	C242.424,225.36,239.915,225.444,240.693,225.695z"/>
<g>
	<path opacity="0.5" fill="#F0F3D7" d="M391.172,209.444c-15.657-0.508-48.351,0.618-53.337,4.142s-15.653,4.776-26.986,3.075
		c-11.334-1.702-29.334-3.42-36,0.87c-2.033,1.309-5.757,2.657-10.023,3.877c7.098,0.292,14.195,0.792,21.293,0.792c27,2,54-1,82-3
		c21.769-2.106,46.989,5.155,68.044-0.029c-2.783-0.649-5.435-1.231-7.596-1.64C419.515,215.819,406.829,209.952,391.172,209.444z"
		/>
	<path opacity="0.5" fill="#D9DFCB" d="M368.118,219.2c-28,2-55,5-82,3c-7.098,0-14.195-0.5-21.293-0.792
		c-6.172,1.764-13.479,3.256-18.472,3.958c9.537,0.014,27.493,0.559,27.493,0.559l181.416-1.933c0,0-10.225-2.751-19.101-4.821
		C415.107,224.355,389.887,217.094,368.118,219.2z"/>
</g>
<path opacity="0.1" fill="#33311F" d="M295.801,445.898c-0.48,0.444,40.64-2.114,40.64-2.114s-10.941-4.806-22.106-4.037
	C303.169,440.517,298.703,443.207,295.801,445.898z"/>
<path opacity="0.1" fill="#33311F" d="M18.352,426.704c-0.48,0.444,40.64-2.114,40.64-2.114s-10.941-4.806-22.106-4.037
	C25.72,421.322,21.254,424.013,18.352,426.704z"/>
<path opacity="0.2" fill="#33311F" d="M214.643,487.948c-0.31,0.515,31.363-3.081,22.691-2.114c0,0-6.109-4.806-12.344-4.037
	C218.757,482.566,216.264,485.257,214.643,487.948z"/>
<path opacity="0.2" fill="#33311F" d="M386.402,488.296c-0.269,0.274,22.689-1.306,22.689-1.306s-6.108-2.968-12.342-2.493
	C390.516,484.973,388.022,486.634,386.402,488.296z"/>
<path opacity="0.1" fill="#33311F" d="M437.297,430.615c-0.269,0.309,22.69-1.469,22.69-1.469s-6.109-3.338-12.343-2.804
	C441.411,426.878,438.917,428.746,437.297,430.615z"/>
<path opacity="0.1" fill="#33311F" d="M381.655,407.737c-0.19,0.309,16.091-1.469,16.091-1.469s-4.332-3.338-8.753-2.804
	C384.573,404,382.805,405.868,381.655,407.737z"/>
<path opacity="0.2" fill="#33311F" d="M286.232,490.475c-0.269,0.309,22.69-1.469,22.69-1.469s-6.109-3.338-12.343-2.804
	C290.347,486.737,287.853,488.605,286.232,490.475z"/>
<path opacity="0.1" fill="#33311F" d="M357.656,457.646c-0.269,0.309,22.69-1.469,22.69-1.469s-6.109-3.338-12.343-2.804
	C361.771,453.909,359.276,455.777,357.656,457.646z"/>
<path opacity="0.1" fill="#33311F" d="M122.401,411.929c-0.269,0.309,22.69-1.469,22.69-1.469s-6.109-3.338-12.343-2.804
	C126.516,408.191,124.021,410.06,122.401,411.929z"/>
<path opacity="0.2" fill="#33311F" d="M515.844,478.895c-0.593,0.769,50.139-3.65,50.139-3.65s-13.499-8.296-27.273-6.969
	S519.425,474.249,515.844,478.895z"/>
</svg>
