<?xml version="1.0" encoding="utf-8"?>
<!-- Generator: Adobe Illustrator 16.0.0, SVG Export Plug-In . SVG Version: 6.00 Build 0)  -->
<!DOCTYPE svg PUBLIC "-//W3C//DTD SVG 1.1//EN" "http://www.w3.org/Graphics/SVG/1.1/DTD/svg11.dtd">
<svg version="1.1" id="Layer_1" xmlns="http://www.w3.org/2000/svg" xmlns:xlink="http://www.w3.org/1999/xlink" x="0px" y="0px"
	 width="720px" height="503.999px" viewBox="0 0 720 503.999" enable-background="new 0 0 720 503.999" xml:space="preserve">
<symbol  id="New_Symbol" viewBox="-0.763 -0.763 1.526 1.525">
	<path fill="#FFFFFF" d="M0.763,0c0-0.421-0.342-0.762-0.763-0.762S-0.763-0.421-0.763,0S-0.421,0.763,0,0.763S0.763,0.42,0.763,0z"
		/>
</symbol>
<linearGradient id="SVGID_1_" gradientUnits="userSpaceOnUse" x1="360.0005" y1="503.999" x2="360.0005" y2="4.882812e-04">
	<stop  offset="0" style="stop-color:#FFFFFF"/>
	<stop  offset="0.4712" style="stop-color:#FBE8C7"/>
	<stop  offset="0.6991" style="stop-color:#E3BEBB"/>
	<stop  offset="1" style="stop-color:#BC7F91"/>
</linearGradient>
<rect fill="url(#SVGID_1_)" width="720" height="503.999"/>
<circle fill="#FEF8E7" cx="407.987" cy="274.491" r="71.818"/>
<g opacity="0.4">
	<path fill="#FEF8E7" d="M689.334,253.667c-10.237-1.44-39.782-12.04-46.334-15.667c-4.136-2.29-11.897-6.43-16.667-5.333
		c4.727-2.627,15.252-1.084,19.018,0.001c6.169,1.777,38.562,4.521,49.316,2.072c8.145-1.854,17.463-5.314,23.454-11.353
		c0.424-0.427,0.793-0.841,1.129-1.249v-15.471c-16.455,19.564-59.723,16.948-80.75,14.32c-35-6-63,1-92,23c28-14,81-5,107,11
		c10.899,6.812,47.764,18.712,65.75,12.027V249.91C710.491,254.759,698.495,254.956,689.334,253.667z"/>
</g>
<g opacity="0.2">
	<path fill="#FEF8E7" d="M688.113,107.381c-10.237-1.44-39.782-12.04-46.334-15.667c-4.136-2.29-11.897-6.43-16.667-5.333
		c4.727-2.627,15.252-1.084,19.018,0.001c6.169,1.777,38.562,4.521,49.316,2.072c8.145-1.854,17.463-5.314,23.454-11.353
		c0.424-0.427,0.793-0.841,1.129-1.249V60.382c-16.455,19.564-59.723,16.948-80.75,14.32c-35-6-63,1-92,23c28-14,81-5,107,11
		c10.899,6.812,47.764,18.712,65.75,12.027v-17.105C709.271,108.473,697.274,108.67,688.113,107.381z"/>
</g>
<g opacity="0.2">
	<path fill="#FEF8E7" d="M719,188c-2.5,7.664-32.999,8.667-49.666,8c-34.667-2-69.335-18.772-103.335-22.105
		c-32.666-3.333-62.666,9.333-94,13.333c-11.333,1.333-74,10-72.666-10.667C404.666,191.895,476.667,166.5,490,162.5
		c30.667-10,53.5-33.333,85.5-36c27.333-2.667,49.833,9.395,76.5,12.728c18.667,2,52.334-2.895,67-20.228
		c-0.834,0.986-0.177,5.852-0.196,7.136c-0.056,3.513-0.099,14.055-0.09,10.541c0,0-5.38,5.989-14.722,10.498
		c-10.804,5.214-24.165,8.91-37.324,9.492c-7.577,0.335-39.845-7.076-47.334-8.167c-12.818-1.867-26.815-3.97-39.674-0.666
		c-4.381,1.125-7.946,3.209-11.146,6.262c6.312-1.015,12.409-1.533,18.859-0.72c24.794,3.124,41.793,17.124,62.827,20.832
		c12.107,2.134,23.897,1.676,36.003,0.292c10.643-1.217,26.1-1.441,32.796-10.417"/>
</g>
<g>
	<g opacity="0.5">
		<path fill="#FEF8E7" d="M167.169,283.271c-49.4,1.918-123.078-9.977-165.135-38.309v20.829c0.765,0.591,1.641,1.194,2.647,1.821
			c11.768,7.341,26.377,10.412,40.489,13.991c8.44,2.142,19.697,4.894,28.833,5.831c11.047,1.135,23.504,0.575,34.427-0.496
			c-14.873,4.014-36.695,4.367-54.057,4.496c-15.03,0.113-30.326-0.625-44.956-3.375c-3.142-0.592-5.525-1.479-7.383-1.893v15.117
			c40.749,7.162,98.223-2.014,138.725-2.014c35.653,0,72.627-2,108.28-1c17.166,0,47.538-2,63.383,3
			C309.782,273.271,189.618,282.271,167.169,283.271z"/>
	</g>
	<g opacity="0.3">
		<path fill="#FEF8E7" d="M174.949,227.206c-34.266,4-55.479,3-86.482-10c-24.476-11-44.057-23-78.323-23
			c-3.145-0.128-6.242-0.086-9.58,0.136v12.58c-0.544,0.417,0.855-0.274,1.874-0.767c3.903-1.888,18.694-0.126,23.302,0.341
			c8.633,0.875,16.97,2.678,24.362,5.573c13.75,5.384,22.701,15.19,39.753,16.624c-12.941,3.485-34.963-4.812-47.076-7.473
			c-9.921-2.179-36.113-11.002-42.215-1.818c0,0,0,5.682,0,7.125c20.856,4.7,45.806,8.229,61.796,10.679
			c32.634,7,65.268,12,99.535,9c24.476-2,60.374-14,84.849-8C228.795,219.206,204.319,223.206,174.949,227.206z"/>
	</g>
	<g opacity="0.1">
		<path fill="#FEF8E7" d="M337.687,65.584c-20.338-9.333-39.751-19.333-65.637-16.666c-22.188,2-80.04,28.536-134.048,23.333
			c-29.337-2.826-36.979-5.333-56.393-19.333C67.742,43.584,9.889,26.254,0.644,26.254c0,0-0.088,12.44-0.165,27.645l0.007-0.565
			c0,0,42.171,9.708,80.433,30.408C146.095,119,187.234,98.333,216.817,87c0,0-21.263,30.333-62.864,33.667
			C100.177,124.976,40.126,89.871,0.371,86.918c-0.007,13.184,0.057,22.89,0.273,21.486c24.345-4.65,31.972,1.85,92.293,23.35
			c79.358,28.285,123.11-32.167,165.636-41.5c32.999-7.224,46.938-5.42,75.878,4.667c66.951,23.334,151.022,7.718,158.549-11.333
			C448.551,90.254,349.902,71.19,337.687,65.584z"/>
	</g>
</g>
<path fill="#FEF8E7" d="M0.124,86.89c0.082,0.008,0.166,0.02,0.248,0.028C0.375,76.811,0.41,64.665,0.449,53.899L0.124,86.89z"/>
<polygon fill="#D8C0CB" points="720.333,323.903 719.25,249.91 418.66,339.173 319.297,285.805 196.899,332.057 100.373,287.603 
	100.373,349.214 720,382.833 "/>
<polygon fill="#E5D3DC" points="318.89,285.402 260.671,348.88 168.991,364.864 196.899,332.057 "/>
<path fill="#8085B4" d="M498.118,281.2C498.118,281.2,498.229,281.195,498.118,281.2c-7.873,0.318-39.292,21.39-79.458,40.508
	c-21.411,10.191-46.933,15.478-76.054,7.781c-42.292-11.178-64.629,12.236-97.892,19.001c-103.262,21-121.539-65.234-236.716-64.599
	v181.597h537.175C540.361,449.853,510.217,324.668,498.118,281.2z"/>
<path fill="#747AB0" d="M370.661,351.207l49.965-30.454c0,0-11.639,8.115-36.603,11.486L370.661,351.207z"/>
<path fill="#747AB0" d="M216.512,370.079l47.441-27.368c0,0-11.839,5.839-28.507,7.447L216.512,370.079z"/>
<path fill="#747AB0" d="M610.416,331.296c-10.401-0.599-20.668-3.403-30.565-7.563c-40.63-17.078-69.687-41.453-81.732-42.532
	c1.665,3.887,11.05,55.914,23.942,105.8C560.729,384.624,588.334,361.182,610.416,331.296z"/>
<path fill="#656CA3" d="M632.74,328.892c-7.454,2.146-14.923,2.83-22.324,2.404c-22.082,29.886-49.688,53.328-88.355,55.704
	c0.087,0.335,0.174,0.672,0.26,1.005c2.933,11.316,5.765,21.703,8.316,30.195c4.466,15.911,9.127,31.652,13.878,47.288H720V343.764
	C720,343.764,684.922,313.866,632.74,328.892z"/>
<g>
	<path fill="#5E5F91" d="M121.416,346.208c10-5.333,21.333,4,28.667,9.333c13.334,10,55.165,30.109,64.872,30.109
		c14.725,0,52.462-28.109,71.795-24.109c17.333,3.334,31.333,4,48.667,1.334c17.999-3.334,25.999,2,41.999,8.666
		c15.334,6.667,67.454,22.085,76.763,23.041c23.822,2.447,49.373-11.083,56.039-11.749c21.133-1.922,42.383,7.661,48.939,8.317
		c13.333,0.667,21.667-16.035,33.667-19.369c14.667-3.333,29.511,3.703,44.177,1.037c-8.666,1.333-24.918,12.057-32.251,17.39
		c-8.667,5.333-18,9.333-28,12.667c-42,14.666-84,16.666-128.667,14c-58.667-3.334-116.666-13.334-176-12
		c-34.666,0.666-74.666-0.667-107.333-12.667c-11.333-4-24.667-11.333-32-20.667c-3.333-4.666-15.333-23.333-10.667-24.666"/>
</g>
<g>
	<g>
		<path fill="#504370" d="M203.705,398.213l5.126-19.99l1.874,18.284l6.462-29.407l3.822,26.115l6.178-15.803l4.773,15.66
			l3.246-22.993l6.522,18.069l3.959-12.036l4.833,11.602l3.925-22.375l6.246,22.736C260.671,388.075,254.257,420.33,203.705,398.213
			z"/>
		<polygon fill="#504370" points="275.99,380.006 279.096,365.339 282.844,378.223 		"/>
		<polygon fill="#504370" points="293.791,372.672 295.202,358.005 296.905,370.889 		"/>
		<polygon fill="#504370" points="324.269,370.079 325.68,355.413 327.383,368.296 		"/>
		<polygon fill="#504370" points="372.659,380.006 374.071,365.339 375.774,378.223 		"/>
		<polygon fill="#504370" points="375.774,378.223 377.529,362.746 379.835,380.815 		"/>
		<polygon fill="#504370" points="302.017,372.818 304.597,341.866 309.394,369.982 		"/>
		<polygon fill="#504370" points="354.169,378.223 356.749,347.271 361.546,375.386 		"/>
		<polygon fill="#504370" points="306.674,378.223 311.403,347.271 317.109,374.459 		"/>
		<polygon fill="#504370" points="397.55,392.888 402.279,361.936 407.986,389.124 		"/>
		<polygon fill="#504370" points="402.768,396.291 407.497,365.339 413.203,392.528 		"/>
		<polygon fill="#504370" points="390.456,398.052 395.188,367.1 400.893,394.288 		"/>
		<polygon fill="#504370" points="432.211,405.962 436.941,375.011 442.646,402.199 		"/>
		<polygon fill="#504370" points="440.643,410.958 445.373,380.006 451.078,407.194 		"/>
		<polygon fill="#504370" points="438.583,410.958 443.313,380.006 449.02,407.194 		"/>
		<polygon fill="#504370" points="448.959,410.562 453.69,388.476 459.396,407.876 		"/>
		<polygon fill="#504370" points="426.355,397.386 429.826,380.815 435.167,398.052 		"/>
		<polygon fill="#504370" points="311.891,382.576 316.621,351.624 322.327,378.812 		"/>
		<polygon fill="#504370" points="347.422,382.576 352.151,351.624 357.857,378.812 		"/>
		<polygon fill="#504370" points="360.226,388.148 364.955,357.196 370.661,384.385 		"/>
		<polygon fill="#504370" points="383.022,385.555 387.753,354.603 393.459,385.555 		"/>
	</g>
	<polygon fill="#504370" points="597.361,379.273 600.832,362.703 606.173,379.939 	"/>
	<polygon fill="#504370" points="585.032,388.147 589.763,357.195 595.468,384.384 	"/>
	<g>
		<polygon fill="#504370" points="510.217,404.057 511.629,389.39 515.362,404.865 		"/>
		<polygon fill="#504370" points="513.332,402.273 515.087,386.797 517.393,404.866 		"/>
		<polygon fill="#504370" points="491.727,402.273 494.307,371.321 500.25,405.962 		"/>
		<polygon fill="#504370" points="535.107,416.938 539.837,385.986 545.544,413.175 		"/>
		<polygon fill="#504370" points="540.325,420.342 545.055,389.39 550.761,416.579 		"/>
		<polygon fill="#504370" points="528.014,422.103 532.745,391.15 538.45,418.339 		"/>
		<polygon fill="#504370" points="484.979,406.627 489.709,375.675 495.415,405.962 		"/>
		<polygon fill="#504370" points="497.783,412.199 502.513,381.247 508.219,408.436 		"/>
		<polygon fill="#504370" points="520.58,409.605 525.311,378.653 531.017,409.605 		"/>
	</g>
</g>
<path fill="#5A4E7A" d="M717.543,353.379c0,0-39.832-28-104.559,15c-53.982,35.863-80.963,33.988-113.52,36
	c-64.727,4-96.592-24-163.309-36c-43.173-7.766-64.818,12.236-98.177,19.001c-103.562,21-131.851-113.973-237.404-103.001v218.199
	h716.968V353.379z"/>
<g>
	<path fill="#303236" d="M551.821,412.086c-0.031-0.132-0.062-0.264-0.093-0.393l-4.307,4.881c0,0,4.001-5.885,3.869-6.423
		c-0.398-1.622-0.799-3.209-1.191-4.722c-0.194-0.745-3.703,7.73-3.898,6.99c-0.191-0.727,3.272-8.468,3.272-8.468
		c-3.699-13.816-7.487-26.029-7.487-23.757c0,4.092-7.428,36.061-7.428,36.061l3.252,13.899l-4.437-8.183l-0.431,4.091
		c-0.63,3.354-0.943,6.553-1.015,9.588c1.558,8.426,4.849,16.572,9.012,23.974C545.416,443.758,549.888,428.273,551.821,412.086z"/>
	<path fill="#2A2930" d="M556.2,433.602c-0.55-4.149-2.521-13.659-4.379-21.516c-2.068,17.318-6.251,31.124-10.881,47.539
		c-4.163-7.401-7.454-15.548-9.012-23.974c-0.265,11.332,2.895,20.351,6.009,26.425h13.898
		C554.388,454.157,557.368,442.432,556.2,433.602z"/>
</g>
<g>
	<path fill="#3B3D42" d="M533.134,437.304c-0.031-0.132-0.062-0.264-0.093-0.393l-4.307,4.881c0,0,4.001-5.885,3.869-6.423
		c-0.398-1.622-0.799-3.209-1.191-4.722c-0.194-0.745-3.703,7.73-3.898,6.99c-0.191-0.727,3.272-8.468,3.272-8.468
		c-3.699-13.816-7.487-26.029-7.487-23.757c0,4.092-7.428,36.061-7.428,36.061l3.252,13.899l-4.437-8.183l-0.431,4.091
		c-0.63,3.354-0.943,6.553-1.015,9.588c1.558,8.426,4.849,16.572,9.012,23.974C526.729,468.976,531.2,453.491,533.134,437.304z"/>
	<path fill="#383640" d="M537.513,458.819c-0.55-4.149-2.521-13.659-4.379-21.516c-2.068,17.318-6.251,31.124-10.881,47.539
		c-4.163-7.401-7.454-15.548-9.012-23.974c-0.265,11.332,2.895,20.351,6.009,26.425h13.898
		C535.7,479.375,538.681,467.649,537.513,458.819z"/>
</g>
<g>
	<path fill="#3B3D42" d="M575.12,423.822c-0.031-0.132-0.062-0.264-0.093-0.393l-4.307,4.881c0,0,4.001-5.885,3.869-6.423
		c-0.398-1.622-0.799-3.209-1.191-4.722c-0.194-0.745-3.703,7.73-3.898,6.99c-0.191-0.727,3.272-8.468,3.272-8.468
		c-3.699-13.816-7.487-26.029-7.487-23.757c0,4.092-7.428,36.061-7.428,36.061l3.252,13.899l-4.437-8.183l-0.431,4.091
		c-0.63,3.354-0.943,6.553-1.015,9.588c1.558,8.426,4.849,16.572,9.012,23.974C568.715,455.494,573.187,440.01,575.12,423.822z"/>
	<path fill="#383640" d="M579.499,445.338c-0.55-4.149-2.521-13.659-4.379-21.516c-2.068,17.318-6.251,31.124-10.881,47.539
		c-4.163-7.401-7.454-15.548-9.012-23.974c-0.265,11.332,2.895,20.351,6.009,26.425h13.898
		C577.687,465.894,580.667,454.168,579.499,445.338z"/>
</g>
<g>
	<path fill="#3B3D42" d="M604.995,399.375c-0.031-0.132-0.062-0.264-0.093-0.393l-4.307,4.881c0,0,4.001-5.885,3.869-6.423
		c-0.398-1.622-0.799-3.209-1.191-4.722c-0.194-0.745-3.703,7.73-3.898,6.99c-0.191-0.727,3.272-8.468,3.272-8.468
		c-3.699-13.816-7.487-26.029-7.487-23.757c0,4.092-7.428,36.061-7.428,36.061l3.252,13.899l-4.437-8.183l-0.431,4.091
		c-0.63,3.354-0.943,6.553-1.015,9.588c1.558,8.426,4.849,16.572,9.012,23.974C598.59,431.047,603.062,415.562,604.995,399.375z"/>
	<path fill="#383640" d="M609.374,420.891c-0.55-4.149-2.521-13.659-4.379-21.516c-2.068,17.318-6.251,31.124-10.881,47.539
		c-4.163-7.401-7.454-15.548-9.012-23.974c-0.265,11.332,2.895,20.351,6.009,26.425h13.898
		C607.562,441.446,610.542,429.721,609.374,420.891z"/>
</g>
<path fill="#645880" d="M175.868,413.214c69.743,31.612,157.798,49.784,229.799,11.784c0,0-60.799,49.111-140.799,17.216
	c0,0,98.799,38.118,223-14.824c0,0-104,58.824-197,44.552c0,0-69-10.728-114-33.728c-33.848-17.3-124-89-124-89
	S124.831,390.08,175.868,413.214z"/>
<path fill="#645880" d="M0,324c5,0,42.538-4.024,100.373,39.842L0,350.951V324z"/>
<path fill="#645880" d="M379.835,474.174c0,0,53.915-6.924,77.332-21.544c4.117-2.57-32.833,21.544-50,21.544
	S379.835,474.174,379.835,474.174z"/>
<path fill="#645880" d="M720,382.833c-4.935-0.809-35.166-18.439-99.333,15.5L720,408.781V382.833z"/>
<g>
	<path fill="#3B3D42" d="M355.056,441.364c-0.031-0.132-0.062-0.264-0.092-0.393l-4.307,4.881c0,0,4-5.885,3.87-6.423
		c-0.399-1.622-0.799-3.209-1.192-4.722c-0.194-0.745-3.703,7.73-3.898,6.99c-0.191-0.727,3.272-8.468,3.272-8.468
		c-3.699-13.816-7.487-26.029-7.487-23.757c0,4.092-7.428,36.061-7.428,36.061l3.252,13.899l-4.437-8.183l-0.431,4.091
		c-0.63,3.354-0.943,6.553-1.015,9.588c1.558,8.426,4.849,16.572,9.012,23.974C348.651,473.036,353.123,457.552,355.056,441.364z"/>
	<path fill="#383640" d="M359.435,462.88c-0.549-4.149-2.521-13.659-4.379-21.516c-2.068,17.318-6.25,31.124-10.88,47.539
		c-4.163-7.401-7.454-15.548-9.012-23.974c-0.265,11.332,2.895,20.351,6.009,26.425h13.899
		C357.622,483.436,360.603,471.71,359.435,462.88z"/>
</g>
<g>
	<path fill="#3B3D42" d="M291.306,443.913c-0.031-0.132-0.062-0.264-0.093-0.393l-4.307,4.881c0,0,4.001-5.885,3.869-6.423
		c-0.398-1.622-0.799-3.209-1.191-4.722c-0.194-0.745-3.703,7.73-3.898,6.99c-0.191-0.727,3.272-8.468,3.272-8.468
		c-3.699-13.816-7.487-26.029-7.487-23.757c0,4.092-7.428,36.061-7.428,36.061l3.252,13.899l-4.437-8.183l-0.431,4.091
		c-0.63,3.354-0.943,6.553-1.015,9.588c1.558,8.426,4.849,16.572,9.012,23.974C284.901,475.585,289.373,460.101,291.306,443.913z"/>
	<path fill="#383640" d="M295.685,465.429c-0.55-4.149-2.521-13.659-4.379-21.516c-2.068,17.318-6.251,31.124-10.881,47.539
		c-4.163-7.401-7.454-15.548-9.012-23.974c-0.265,11.332,2.895,20.351,6.009,26.425h13.898
		C293.873,485.984,296.853,474.259,295.685,465.429z"/>
</g>
<g>
	<path fill="#3B3D42" d="M267.607,423.823c-0.031-0.132-0.062-0.264-0.093-0.393l-4.307,4.881c0,0,4.001-5.885,3.869-6.423
		c-0.398-1.622-0.799-3.209-1.191-4.722c-0.194-0.745-3.703,7.73-3.898,6.99c-0.191-0.727,3.272-8.468,3.272-8.468
		c-3.699-13.816-7.487-26.029-7.487-23.757c0,4.092-7.428,36.061-7.428,36.061l3.252,13.899l-4.437-8.183l-0.431,4.091
		c-0.63,3.354-0.943,6.553-1.015,9.588c1.558,8.426,4.849,16.572,9.012,23.974C261.202,455.495,265.674,440.011,267.607,423.823z"/>
	<path fill="#383640" d="M271.986,445.339c-0.55-4.149-2.521-13.659-4.379-21.516c-2.068,17.318-6.251,31.124-10.881,47.539
		c-4.163-7.401-7.454-15.548-9.012-23.974c-0.265,11.332,2.895,20.351,6.009,26.425h13.898
		C270.174,465.895,273.154,454.169,271.986,445.339z"/>
</g>
<g>
	<path fill="#3B3D42" d="M383.011,455.88c-0.03-0.125-0.06-0.25-0.087-0.372l-4.083,4.626c0,0,3.792-5.578,3.668-6.088
		c-0.378-1.538-0.758-3.042-1.129-4.476c-0.186-0.706-3.511,7.327-3.695,6.626c-0.182-0.688,3.101-8.026,3.101-8.026
		c-3.507-13.097-7.097-24.673-7.097-22.52c0,3.879-7.04,34.182-7.04,34.182l3.082,13.175l-4.206-7.756l-0.407,3.878
		c-0.598,3.18-0.895,6.211-0.963,9.088c1.478,7.986,4.597,15.709,8.542,22.725C376.939,485.9,381.178,471.224,383.011,455.88z"/>
	<path fill="#383640" d="M387.161,476.273c-0.521-3.933-2.39-12.947-4.15-20.394c-1.961,16.415-5.925,29.502-10.314,45.062
		c-3.945-7.016-7.064-14.738-8.542-22.725c-0.25,10.741,2.744,19.29,5.696,25.048h13.175
		C385.443,495.759,388.269,484.644,387.161,476.273z"/>
</g>
<g>
	<g>
		<path fill="#3D3555" d="M345.533,491.463l-67.902-0.835l14.9-83.892l34.501-0.462L345.533,491.463z M281.203,487.671l60.599,0.745
			l-17.181-79.108l-29.569,0.396L281.203,487.671z"/>
	</g>
	<g>
		<rect x="290.372" y="426.135" fill="#3D3555" width="40.067" height="3.459"/>
	</g>
	<g>
		<rect x="285.672" y="447.636" fill="#3D3555" width="49.559" height="3.459"/>
	</g>
	<g>
		<g>
			
				<rect x="287.928" y="439.345" transform="matrix(0.9018 0.4322 -0.4322 0.9018 221.0502 -91.9427)" fill="#3D3555" width="49.746" height="1.999"/>
		</g>
		<g>
			
				<rect x="308.394" y="414.755" transform="matrix(0.4323 0.9017 -0.9017 0.4323 572.0676 -29.413)" fill="#3D3555" width="1.999" height="49.746"/>
		</g>
	</g>
	<g>
		<g>
			
				<rect x="285.713" y="461.664" transform="matrix(0.9202 0.3913 -0.3913 0.9202 206.0385 -85.6627)" fill="#3D3555" width="54.941" height="1.999"/>
		</g>
		<g>
			
				<rect x="308.344" y="434.477" transform="matrix(0.3913 0.9203 -0.9203 0.3913 613.4286 -3.478)" fill="#3D3555" width="1.999" height="54.942"/>
		</g>
	</g>
	<g>
		<g>
			
				<rect x="290.946" y="417.954" transform="matrix(0.8548 0.5189 -0.5189 0.8548 262.6584 -100.9064)" fill="#3D3555" width="41.433" height="2"/>
		</g>
		<g>
			
				<rect x="307.973" y="397.521" transform="matrix(0.5192 0.8547 -0.8547 0.5192 506.0265 -62.9654)" fill="#3D3555" width="2" height="41.433"/>
		</g>
	</g>
	<g>
		<rect x="293.17" y="388.476" fill="#3D3555" width="34.562" height="17.108"/>
	</g>
	<g>
		<rect x="287.904" y="404.866" fill="#3D3555" width="43.919" height="4.739"/>
	</g>
	<g>
		<polygon fill="#3D3555" points="310.588,374.962 281.019,390.703 340.065,390.703 		"/>
	</g>
</g>
<polygon fill="#52476F" points="130.687,362.746 135.416,331.794 141.122,358.982 "/>
<path fill="#2D2843" d="M0,349.311c5,0,62.254-6.749,105,33.189c0,0-59.178-40.568-105-18.658V349.311z"/>
<g>
	<path fill="#303236" d="M230.266,409.41c-0.043-0.187-0.088-0.373-0.131-0.558l-6.105,6.919c0,0,5.671-8.341,5.484-9.103
		c-0.565-2.301-1.132-4.55-1.688-6.695c-0.274-1.056-5.249,10.96-5.526,9.909c-0.271-1.029,4.64-12.003,4.64-12.003
		c-5.245-19.585-10.614-36.898-10.614-33.676c0,5.8-10.53,51.116-10.53,51.116l4.61,19.704l-6.29-11.6l-0.61,5.8
		c-0.892,4.754-1.336,9.288-1.438,13.592c2.208,11.942,6.873,23.492,12.774,33.982C221.186,454.307,227.524,432.357,230.266,409.41z
		"/>
	<path fill="#2A2930" d="M236.473,439.909c-0.779-5.882-3.573-19.361-6.207-30.499c-2.741,22.947-9.08,44.896-15.424,67.389
		c-5.902-10.49-10.567-22.04-12.774-33.982c-0.375,16.062,4.104,28.847,8.517,37.458h19.702
		C233.903,469.048,238.129,452.426,236.473,439.909z"/>
</g>
<g>
	<path fill="#303236" d="M196.899,368.18c-0.043-0.187-0.088-0.373-0.131-0.558l-6.105,6.919c0,0,5.671-8.341,5.484-9.103
		c-0.565-2.301-1.132-4.55-1.688-6.695c-0.274-1.056-5.249,10.96-5.526,9.909c-0.271-1.029,4.64-12.003,4.64-12.003
		c-5.245-19.585-10.614-36.898-10.614-33.676c0,5.8-10.53,51.116-10.53,51.116l4.61,19.704l-6.29-11.6l-0.61,5.8
		c-0.892,4.754-1.336,9.288-1.438,13.592c2.208,11.942,6.873,23.492,12.774,33.982C187.819,413.076,194.158,391.127,196.899,368.18z
		"/>
	<path fill="#2A2930" d="M203.106,398.679c-0.779-5.882-3.573-19.361-6.207-30.499c-2.741,22.947-9.08,44.896-15.424,67.389
		c-5.902-10.49-10.567-22.04-12.774-33.982c-0.375,16.062,4.104,28.847,8.517,37.458h19.702
		C200.537,427.817,204.763,411.195,203.106,398.679z"/>
</g>
<g>
	<path fill="#303236" d="M158.619,351.207c-0.043-0.187-0.088-0.373-0.131-0.558l-6.105,6.919c0,0,5.671-8.341,5.484-9.103
		c-0.565-2.301-1.132-4.55-1.688-6.695c-0.274-1.056-5.249,10.96-5.526,9.909c-0.271-1.029,4.64-12.003,4.64-12.003
		c-5.245-19.585-10.614-36.898-10.614-33.676c0,5.8-10.53,51.116-10.53,51.116l4.61,19.704l-6.29-11.6l-0.61,5.8
		c-0.892,4.754-1.336,9.288-1.438,13.592c2.208,11.942,6.873,23.492,12.774,33.982C149.539,396.104,155.877,374.154,158.619,351.207
		z"/>
	<path fill="#2A2930" d="M164.826,381.706c-0.779-5.882-3.573-19.361-6.207-30.499c-2.741,22.947-9.08,44.896-15.424,67.389
		c-5.902-10.49-10.567-22.04-12.774-33.982c-0.375,16.062,4.104,28.847,8.517,37.458h19.702
		C162.256,410.845,166.482,394.223,164.826,381.706z"/>
</g>
<g>
	<path fill="#303236" d="M69.142,294.716c-0.043-0.187-0.088-0.373-0.131-0.558l-6.105,6.919c0,0,5.671-8.341,5.484-9.103
		c-0.565-2.301-1.132-4.55-1.688-6.695c-0.274-1.056-5.249,10.96-5.526,9.909c-0.271-1.029,4.64-12.003,4.64-12.003
		c-5.245-19.585-10.614-36.898-10.614-33.676c0,5.8-10.53,51.116-10.53,51.116l4.61,19.704l-6.29-11.6l-0.61,5.8
		c-0.892,4.754-1.336,9.288-1.438,13.592c2.208,11.942,6.873,23.492,12.774,33.982C60.062,339.612,66.4,317.663,69.142,294.716z"/>
	<path fill="#2A2930" d="M75.349,325.215c-0.779-5.882-3.573-19.361-6.207-30.499c-2.741,22.947-9.08,44.896-15.424,67.389
		c-5.902-10.49-10.567-22.04-12.774-33.982c-0.375,16.062,4.104,28.847,8.517,37.458h19.702
		C72.779,354.354,77.005,337.731,75.349,325.215z"/>
</g>
<g>
	<path fill="#303236" d="M40.821,291.384c-0.043-0.187-0.088-0.373-0.131-0.558l-6.105,6.919c0,0,5.671-8.341,5.484-9.103
		c-0.565-2.301-1.132-4.55-1.688-6.695c-0.274-1.056-5.249,10.96-5.526,9.909c-0.271-1.029,4.64-12.003,4.64-12.003
		c-5.245-19.585-10.614-36.898-10.614-33.676c0,5.8-10.53,51.116-10.53,51.116l4.61,19.704l-6.29-11.6l-0.61,5.8
		c-0.892,4.754-1.336,9.288-1.438,13.592c2.208,11.942,6.873,23.492,12.774,33.982C31.741,336.28,38.08,314.331,40.821,291.384z"/>
	<path fill="#2A2930" d="M47.028,321.883c-0.779-5.882-3.573-19.361-6.207-30.499c-2.741,22.947-9.08,44.896-15.424,67.389
		c-5.902-10.49-10.567-22.04-12.774-33.982c-0.375,16.062,4.104,28.847,8.517,37.458h19.702
		C44.459,351.021,48.685,334.399,47.028,321.883z"/>
</g>
<path fill="#2D2843" d="M140.118,478.2c-12-19-10-40-23-58c-17-25-26-51-49-70c-5.614-5.613-14.179-5.323-21.21-8.103
	C33.646,339.464,18.368,338,0.226,338v165.999H166.66C156.619,497.593,147.599,489.282,140.118,478.2z"/>
<path fill="#3D3555" d="M601.724,411.818c-2.895,2.788-5.729,5.83-8.478,9.182c-41,50-204.648,65.765-312,40
	c-147.167-35.32-148.16-101.796-234.318-118.902c7.031,2.779,15.596,2.489,21.21,8.103c23,19,32,45,49,70c13,18,11,39,23,58
	c7.48,11.082,16.501,19.393,26.542,25.799h355.886C560.479,486.951,584.856,450,601.724,411.818z"/>
<path fill="#2D2843" d="M107.082,411.199c65.396,39.836,133.039,82.937,254.464,66.819c0,0-94.297,35.583-169.838-5.779
	c-3.546-1.932,81.418,41.692,223.152,12.328c0,0-23.99,12.22-80.474,19.246l-190.72-0.814c0,0-30.364-17.354-72.243-45.642
	C39.922,436.08,59.227,382.047,107.082,411.199z"/>
<path fill="#2D2843" d="M720.226,396c0,0-68.804-32.049-118.522,15.818c-16.867,38.182-41.244,75.133-79.157,92.181h197.68V396z"/>
<g>
	<polygon fill="#361F22" points="128.333,503.999 52.5,503.999 52.5,376.112 52.5,0 128.333,0 128.333,401.667 	"/>
	<polygon fill="#331C19" points="42.999,437.94 52.5,376.112 52.5,503.999 42.999,503.999 	"/>
	<path fill="#361F22" d="M117.955,503.999h25.711v-14.06c-8.783-2.265-17.256-5.604-25.958-8.263
		C117.862,495.592,117.955,503.999,117.955,503.999z"/>
	<path fill="#42262A" d="M128.333,322.334V0h-21.251v107.667l7.271,17.332c0,0-14,83.893,0,95.616
		c0.409,0.343,2.608,194.237,3.354,261.062c8.703,2.658,17.175,5.998,25.958,8.263V389.053L128.333,322.334z"/>
	<polygon fill="#331C19" points="52.5,0 64.333,0 72.062,370.324 74.5,408.781 73.665,503.999 52.5,503.999 	"/>
	<path fill="#361F22" d="M109.383,165.032c0,0,55.162-1.333,64.549-33.22C180.5,109.5,225.996,116.436,226,119
		c0,0-39.27-7.499-44.5,20.228c-2.323,12.313-33,34.772-73.234,43.782C105.059,183.728,109.383,165.032,109.383,165.032z"/>
	<path fill="#361F22" d="M100.373,81.333c0,0,43.033-4,54.627-19.667c12.396-16.749,30.333-7.768,31.334-10.667
		c0,0-25.667-7.667-36.482,6.333c-9.385,12.147-49.479,13.075-49.479,13.075V81.333z"/>
	<path fill="#331C19" d="M61.836,49.94c0,0-25.595-2.86-32.492-14.062c-7.373-11.975-18.042-5.554-18.637-7.626
		c0,0,15.267-5.481,21.699,4.528c5.582,8.685,29.429,9.348,29.429,9.348V49.94z"/>
	<path fill="#38242C" d="M90.945,469.492c1-72.218,2.633-233.052-2.577-237.824c-15.704-14.385,2.705-55.998-3.962-71.331
		s-5.407-36.669-5.407-36.669V0H64.333l7.629,365.799l1.036,47.367l-0.631,38.252C77.56,458.574,83.824,465.12,90.945,469.492z"/>
	<path fill="#331C19" d="M72.368,451.418L71.5,503.999h18.917c0,0,0.237-13.51,0.528-34.507
		C83.824,465.12,77.56,458.574,72.368,451.418z"/>
	<g>
		<path fill="#361F22" d="M166.01,157.585c0,0,13.17,11.979,43.91,2.435c0,0-25.129,16.444-52.716,6.161
			C137.927,158.995,166.01,157.585,166.01,157.585z"/>
		<path fill="#283027" d="M184.459,164.255c0,0-3.235-5.943,2.726-11.423c4.881-4.487,4.053-1.454,4.188,4.524
			C191.499,162.912,184.459,164.255,184.459,164.255z"/>
		<path fill="#283027" d="M179.501,169.566c0,0,6.757-0.355,9.13,7.386c1.944,6.339-0.436,4.283-5.888,1.828
			C177.677,176.499,179.501,169.566,179.501,169.566z"/>
		<path fill="#283027" d="M195.207,165.576c0,0,4.708-2.755,9.272,1.91c3.739,3.82,1.275,3.228-3.538,3.488
			C196.468,171.216,195.207,165.576,195.207,165.576z"/>
	</g>
	<g>
		<path fill="#361F22" d="M147.148,68.743c0,0,11.987,10.902,39.965,2.216c0,0-22.871,14.967-47.98,5.607
			C121.587,70.025,147.148,68.743,147.148,68.743z"/>
		<path fill="#283027" d="M163.939,74.813c0,0-2.944-5.409,2.481-10.397c4.442-4.084,3.688-1.324,3.812,4.118
			C170.347,73.591,163.939,74.813,163.939,74.813z"/>
		<path fill="#283027" d="M159.427,79.647c0,0,6.15-0.323,8.311,6.722c1.769,5.77-0.396,3.898-5.359,1.664
			C157.766,85.957,159.427,79.647,159.427,79.647z"/>
		<path fill="#283027" d="M173.722,76.016c0,0,4.285-2.508,8.439,1.738c3.403,3.477,1.16,2.938-3.22,3.175
			C174.87,81.148,173.722,76.016,173.722,76.016z"/>
	</g>
	<g>
		<path fill="#361F22" d="M150.113,156.009c0,0-0.834-9.446,15.438-17.875c0,0-17.968,2.861-22.398,19.211
			C140.056,168.771,150.113,156.009,150.113,156.009z"/>
		<path fill="#2D302C" d="M145.287,151.712c0,0-4.089-2.604-2.253-8.106c1.502-4.506,2.035-2.319,4.194,1.381
			C149.235,148.426,145.287,151.712,145.287,151.712z"/>
		<path fill="#2D302C" d="M156.653,141.976c0,0-2.779-3.188,0.114-7.338c2.368-3.401,2.274-1.439,3.168,2.19
			C160.768,140.2,156.653,141.976,156.653,141.976z"/>
	</g>
	<g>
		<path fill="#361F22" d="M151.018,56.697c0,0-0.935-10.577,17.287-20.015c0,0-20.12,3.203-25.081,21.512
			C139.756,70.987,151.018,56.697,151.018,56.697z"/>
		<path fill="#283027" d="M145.614,51.885c0,0-4.579-2.916-2.523-9.077c1.682-5.046,2.278-2.597,4.696,1.546
			C150.035,48.206,145.614,51.885,145.614,51.885z"/>
		<path fill="#283027" d="M158.342,40.983c0,0-3.112-3.569,0.128-8.217c2.652-3.809,2.546-1.611,3.548,2.452
			C162.949,38.994,158.342,40.983,158.342,40.983z"/>
	</g>
	<g>
		<path fill="#361F22" d="M37.055,41.9c0,0-6.334,8.521-26.22,3.454c0,0,17.157,10.986,33.037,0.611
			C54.97,38.715,37.055,41.9,37.055,41.9z"/>
		<path fill="#283027" d="M37.892,49.086c0,0,1.481,5.223-4.151,8.457c-4.611,2.65-3.427,0.424-2.479-4.277
			C32.144,48.895,37.892,49.086,37.892,49.086z"/>
		<path fill="#283027" d="M21.137,48.766c0,0-0.049,4.735-5.56,6.052c-4.513,1.082-2.973-0.489-1.019-4.19
			C16.373,47.187,21.137,48.766,21.137,48.766z"/>
	</g>
</g>
<g>
	<polygon fill="#361F22" points="658.053,503.999 697.867,503.999 697.867,376.112 697.867,0 658.053,0 658.053,401.667 	"/>
	<polygon fill="#331C19" points="702.854,405.667 697.867,376.112 697.867,503.999 702.854,503.999 	"/>
	<path fill="#361F22" d="M663.504,503.999h-13.5v-14.06c4.611-2.265,9.061-5.604,13.629-8.263
		C663.552,495.592,663.504,503.999,663.504,503.999z"/>
	<path fill="#42262A" d="M658.053,322.334V0h11.158v107.666l-3.816,17.332c0,0,7.349,83.893,0,95.616
		c-0.215,0.343-1.369,194.237-1.762,261.062c-4.568,2.658-9.018,5.998-13.629,8.263V389.053L658.053,322.334z"/>
	<polygon fill="#331C19" points="697.867,0 691.654,0 687.597,370.324 686.316,408.781 686.755,503.999 697.867,503.999 	"/>
	<path fill="#361F22" d="M672.734,81.334c0,0-22.594-4-28.681-19.668c-6.507-16.748-15.926-7.768-16.45-10.666
		c0,0,13.475-7.666,19.152,6.333c4.928,12.147,25.979,13.075,25.979,13.075V81.334z"/>
	<path fill="#38242C" d="M677.684,469.492c-0.526-72.218-1.382-233.052,1.352-237.824c8.246-14.385-1.42-55.997,2.081-71.33
		c3.499-15.333,2.838-36.67,2.838-36.67V0h7.7l-4.006,365.799l-0.543,47.367l0.33,38.252
		C684.71,458.574,681.421,465.12,677.684,469.492z"/>
	<path fill="#331C19" d="M687.436,451.418l0.457,52.581h-9.934c0,0-0.123-13.51-0.275-34.507
		C681.421,465.12,684.71,458.574,687.436,451.418z"/>
	<g>
		<path fill="#361F22" d="M646.144,56.697c0,0,0.491-10.578-9.075-20.016c0,0,10.563,3.203,13.169,21.512
			C652.057,70.987,646.144,56.697,646.144,56.697z"/>
		<path fill="#2D302C" d="M648.981,51.885c0,0,2.403-2.916,1.325-9.076c-0.885-5.046-1.196-2.597-2.466,1.547
			C646.661,48.206,648.981,51.885,648.981,51.885z"/>
		<path fill="#283027" d="M642.299,40.982c0,0,1.635-3.568-0.066-8.217c-1.393-3.809-1.337-1.611-1.863,2.452
			C639.88,38.994,642.299,40.982,642.299,40.982z"/>
	</g>
</g>
<path fill="#361F22" d="M143.666,503.999c0,0,14.772-17.096,12.687-36.608c-2.087-19.513,7.89,25.002-4.293,36.608H143.666z"/>
<path fill="#361F22" d="M159.931,503.312c0,0,7.785-12.307,6.472-26.213c-1.313-13.906,4.49,17.781-1.954,26.151L159.931,503.312z"
	/>
<g>
	<g>
		<path fill="#361F22" d="M166.13,442.427c8.099,17.776,12.853,39.62,8.666,58.897c-0.205,0.942,1.241,1.344,1.446,0.398
			c4.28-19.705-0.549-41.904-8.817-60.054C167.024,440.79,165.732,441.553,166.13,442.427L166.13,442.427z"/>
	</g>
	<path fill="#42262A" d="M174.384,437.178c-1.025,0-1.974,0.291-2.808,0.763c2.388,2.518,5.377,3.78,8.502,4.414
		C179.786,439.454,177.363,437.178,174.384,437.178z"/>
	<path fill="#361F22" d="M171.576,437.94c-1.75,0.987-2.944,2.842-2.944,4.989c0,3.178,2.577,5.755,5.752,5.755
		s5.752-2.577,5.752-5.755c0-0.197-0.038-0.383-0.058-0.575C176.953,441.721,173.964,440.458,171.576,437.94z"/>
	<path fill="#42262A" d="M159.682,441.191c-2.665,0.561-4.667,2.922-4.667,5.752c0,1.701,0.734,3.223,1.888,4.297
		C158.891,448.422,160.145,445.235,159.682,441.191z"/>
	<path fill="#361F22" d="M160.896,441.063c-0.417,0-0.823,0.046-1.214,0.128c0.463,4.044-0.792,7.23-2.779,10.049
		c1.05,0.976,2.446,1.586,3.993,1.586c3.248,0,5.882-2.634,5.882-5.883C166.778,443.697,164.144,441.063,160.896,441.063z"/>
	<path fill="#42262A" d="M165.989,455.653c-3.21,0.393-5.705,3.097-5.705,6.413c0,2.397,1.313,4.469,3.246,5.593
		C165.334,464.149,166.429,460.284,165.989,455.653z"/>
	<path fill="#361F22" d="M166.777,455.573c-0.27,0-0.527,0.048-0.788,0.08c0.439,4.631-0.655,8.496-2.459,12.006
		c0.959,0.558,2.058,0.901,3.247,0.901c3.586,0,6.494-2.908,6.494-6.494S170.363,455.573,166.777,455.573z"/>
	<path fill="#361F22" d="M180.74,473.849c-2.158,0.812-3.7,2.881-3.7,5.319c0,3.148,2.552,5.703,5.701,5.703
		c2.158,0,4.013-1.213,4.981-2.982C184.553,480.031,182.043,477.061,180.74,473.849z"/>
	<path fill="#42262A" d="M182.741,473.468c-0.707,0-1.377,0.145-2.001,0.381c1.304,3.212,3.813,6.183,6.982,8.04
		c0.444-0.812,0.72-1.729,0.72-2.721C188.442,476.022,185.89,473.468,182.741,473.468z"/>
	<path fill="#42262A" d="M170.706,432.626c-0.523-2.712-2.904-4.762-5.769-4.762c-1.399,0-2.666,0.509-3.676,1.324
		C164.315,432.162,167.405,433.08,170.706,432.626z"/>
	<path fill="#361F22" d="M161.261,429.188c-1.334,1.078-2.205,2.708-2.205,4.558c0,3.247,2.633,5.882,5.881,5.882
		c3.248,0,5.882-2.635,5.882-5.882c0-0.384-0.043-0.757-0.113-1.12C167.405,433.08,164.315,432.162,161.261,429.188z"/>
	<path fill="#361F22" d="M179.04,454.564c-2.7,0.924-4.655,3.457-4.655,6.471c0,3.795,3.077,6.87,6.869,6.87
		c3.187,0,5.844-2.184,6.619-5.13C184.075,461.753,180.582,458.349,179.04,454.564z"/>
	<path fill="#42262A" d="M181.253,454.167c-0.779,0-1.515,0.159-2.214,0.397c1.542,3.784,5.036,7.188,8.833,8.211
		c0.146-0.559,0.25-1.135,0.25-1.74C188.122,457.242,185.045,454.167,181.253,454.167z"/>
	<path fill="#42262A" d="M169.42,473.099c-2.821,0.366-5.009,2.753-5.009,5.673c0,1.7,0.753,3.213,1.927,4.265
		C168.967,480.792,170.506,477.82,169.42,473.099z"/>
	<path fill="#361F22" d="M170.159,473.024c-0.253,0-0.495,0.043-0.739,0.074c1.086,4.722-0.453,7.693-3.082,9.938
		c1.017,0.911,2.348,1.482,3.821,1.482c3.173,0,5.746-2.573,5.746-5.747C175.905,475.6,173.332,473.024,170.159,473.024z"/>
</g>
<path fill="#262925" d="M697.727,267.394l10.419,42c-0.766,2.902-15.472-26.497-16.229-23.583c-1.537,5.922-0.57,2.012-2.13,8.36
	c-0.517,2.107,13.583,31.481,13.583,31.481l-16.856-19.103c-0.12,0.51-0.242,1.025-0.363,1.538
	c6.304,52.765,19.498,103.618,33.851,155.018V191.562C715.093,205.492,706.812,233.46,697.727,267.394z"/>
<path fill="#1B1C1A" d="M686.149,308.088c-0.085,0.361-0.171,0.729-0.257,1.091V503.1c0.066,0.209,0.135,0.424,0.201,0.631H720
	v-40.625C705.647,411.706,692.453,360.853,686.149,308.088z"/>
<g>
	<path fill="#262925" d="M44.001,399.31c-0.277-11.88-1.507-24.399-3.968-37.524l-1.685-16.012L20.982,377.8l16.523-37.894
		c0,0-32.868-141.617-32.868-157.63c0-3.313-1.726,0.012-4.638,8.278v271.544c2.88,10.315,5.806,20.651,8.733,31.03
		C25.028,464.165,37.906,432.281,44.001,399.31z"/>
	<path fill="#1D211F" d="M44.001,399.31c-6.095,32.972-18.973,64.855-35.268,93.819C5.806,482.75,2.88,472.414,0,462.099v40.625
		h20.487C32.67,478.949,45.035,443.655,44.001,399.31z"/>
</g>
<g>
	<path fill="#2D302C" d="M677.636,308.356c-0.121-0.513-0.244-1.028-0.363-1.538l-16.856,19.103c0,0,15.658-23.026,15.143-25.133
		c-1.56-6.349-3.125-12.56-4.662-18.48c-0.758-2.915-14.491,30.257-15.257,27.354c-0.749-2.842,12.81-33.138,12.81-33.138
		c-14.479-54.071-29.302-101.868-29.302-92.973c0,16.013-29.073,141.123-29.073,141.123l12.729,54.4l-17.366-32.026l-1.685,16.012
		c-2.461,13.125-3.69,25.645-3.968,37.524c6.094,32.972,18.973,64.855,35.268,93.819
		C652.565,432.307,670.066,371.71,677.636,308.356z"/>
	<path fill="#202423" d="M694.771,392.558c-2.15-16.236-9.864-53.453-17.135-84.201c-7.569,63.354-25.07,123.95-42.584,186.048
		c-16.295-28.964-29.174-60.848-35.268-93.819c-1.035,44.346,11.331,79.64,23.514,103.414h54.394
		C687.678,473.005,699.344,427.116,694.771,392.558z"/>
</g>
<g>
	<path fill="#B094A0" d="M243.348,266.38c0,0-2.625-6.417-10.5-1.168C232.848,265.212,235.691,250.627,243.348,266.38z"/>
	<path fill="#B094A0" d="M243.348,265.358c0,0,4.156-7.353,16.625-3.571C259.973,261.787,245.317,245.598,243.348,265.358z"/>
</g>
<g opacity="0.8">
	<path fill="#B094A0" d="M243.682,155.535c0,0-2.625-6.417-10.5-1.168C233.182,154.367,236.025,139.782,243.682,155.535z"/>
	<path fill="#B094A0" d="M243.682,154.513c0,0,4.156-7.353,16.625-3.571C260.307,150.942,245.65,134.752,243.682,154.513z"/>
</g>
<g>
	<path fill="#B094A0" d="M276.014,227.253c0,0-3.218-7.864-12.867-1.431C263.146,225.822,266.631,207.951,276.014,227.253z"/>
	<path fill="#B094A0" d="M276.014,226.002c0,0,5.092-9.009,20.372-4.377C296.386,221.625,278.426,201.787,276.014,226.002z"/>
</g>
<polygon fill="#52476F" points="575.017,402.272 579.747,371.321 585.452,398.51 "/>
<path fill="#331C19" d="M51.703,503.999c0,0-21.341-16.589-18.326-35.522s-11.398,24.261,6.201,35.522H51.703z"/>
<polygon fill="#52476F" points="569.798,398.309 574.528,367.356 580.234,394.545 "/>
<g>
	<path fill="#2C3030" d="M604.732,407.461c-0.059-0.249-0.118-0.499-0.176-0.746l-8.171,9.26c0,0,7.59-11.162,7.34-12.183
		c-0.756-3.078-1.515-6.089-2.26-8.959c-0.367-1.413-7.024,14.667-7.396,13.261c-0.363-1.378,6.209-16.063,6.209-16.063
		c-7.019-26.211-14.204-49.381-14.204-45.068c0,7.762-14.093,68.409-14.093,68.409l6.17,26.37l-8.418-15.524l-0.816,7.762
		c-1.193,6.362-1.789,12.431-1.924,18.189c2.954,15.983,9.197,31.439,17.096,45.479C592.58,467.546,601.063,438.171,604.732,407.461
		z"/>
	<path fill="#202423" d="M613.039,448.277c-1.043-7.871-4.782-25.911-8.307-40.816c-3.669,30.71-12.152,60.085-20.643,90.187
		c-7.898-14.04-14.142-29.496-17.096-45.479c-0.502,21.497,5.492,38.605,11.398,50.13h26.367
		C609.601,487.274,615.256,465.029,613.039,448.277z"/>
</g>
<path fill="#331C19" d="M33.401,503.999c0,0-10.47-13.912-7.149-28.737c2.396-10.702-10.34,19.781,2.684,28.737H33.401z"/>
</svg>
