<svg width="6000" height="6000" viewBox="0 0 6000 6000" fill="none" xmlns="http://www.w3.org/2000/svg">
<rect width="6000" height="6000" rx="591" fill="#37474F"/>
<path d="M2241.93 1949.3C2112.72 2013.05 1998.41 2103.35 1906.47 2214.3C1814.54 2325.24 1747.05 2454.34 1708.41 2593.15C1534.29 2633.41 1376.09 2724.54 1253.92 2854.97C1097.63 2727.11 997.233 2543.44 973.99 2342.85C962.613 2252.95 970.744 2161.65 997.83 2075.17C1024.92 1988.69 1070.32 1909.07 1130.95 1841.72C1191.58 1774.36 1266.02 1720.87 1349.18 1684.88C1432.35 1648.89 1522.3 1631.24 1612.9 1633.14C1735 1633.9 1855.29 1662.82 1964.39 1717.66C2073.49 1772.5 2168.47 1851.77 2241.93 1949.3Z" fill="#FFE600"/>
<path d="M4602.09 3094.6C4576.01 2884.46 4475.11 2690.73 4317.86 2548.91C4160.61 2407.08 3957.53 2326.64 3745.81 2322.31C3647.96 2322.31 3551.1 2341.91 3460.94 2379.95C3369.07 2222.06 3238.09 2090.49 3080.62 1997.91C2923.15 1905.33 2744.49 1854.86 2561.86 1851.36C2354.15 1844.8 2151.64 1917.02 1994.97 2053.54C1838.29 2190.06 1739.03 2380.78 1717.11 2587.43C1618.29 2592.54 1521.58 2617.98 1433.04 2662.16C1344.49 2706.33 1266.01 2768.3 1202.49 2844.18C1138.98 2920.06 1091.79 3008.22 1063.89 3103.16C1035.99 3198.09 1027.97 3297.77 1040.33 3395.95C1066.14 3616.01 1170.74 3819.3 1334.8 3968.22C1498.87 4117.15 1711.29 4201.65 1932.82 4206.11H4509.87C4583.22 4207.64 4656.04 4193.34 4723.37 4164.19C4790.69 4135.04 4850.94 4091.72 4900.01 4037.18C4949.08 3982.64 4985.82 3918.16 5007.72 3848.14C5029.62 3778.12 5036.18 3704.2 5026.93 3631.42C5012.12 3511.6 4964.65 3398.15 4889.73 3303.48C4814.8 3208.81 4715.3 3136.55 4602.09 3094.6Z" fill="#FEFEFE"/>
<circle cx="3454.81" cy="2304.21" r="41.0189" fill="#ACA2C0"/>
<circle cx="3618.88" cy="2230.38" r="41.0189" fill="#ACA2C0"/>
<circle cx="3791.16" cy="2189.36" r="41.0189" fill="#ACA2C0"/>
<circle cx="3963.44" cy="2230.38" r="41.0189" fill="#ACA2C0"/>
<circle cx="4102.91" cy="2328.82" r="41.0189" fill="#ACA2C0"/>
<circle cx="4209.56" cy="2443.68" r="41.0189" fill="#ACA2C0"/>
<circle cx="4266.98" cy="2599.55" r="41.0189" fill="#ACA2C0"/>
<circle cx="4291.59" cy="2763.62" r="41.0189" fill="#ACA2C0"/>
<circle cx="4250.57" cy="2927.7" r="41.0189" fill="#ACA2C0"/>
<circle cx="4184.94" cy="3058.96" r="41.0189" fill="#ACA2C0"/>
<circle cx="4225.96" cy="3214.83" r="41.0189" fill="#ACA2C0"/>
<circle cx="4349.02" cy="3296.87" r="41.0189" fill="#ACA2C0"/>
<circle cx="4496.68" cy="3247.65" r="41.0189" fill="#ACA2C0"/>
<circle cx="4601.87" cy="3124.01" r="41.0189" fill="#ACA2C0"/>
<circle cx="1458.07" cy="3336.42" r="41.0189" fill="#ACA2C0"/>
<circle cx="1373.1" cy="3251.46" r="41.0189" fill="#ACA2C0"/>
<circle cx="1245.64" cy="3208.97" r="41.0189" fill="#ACA2C0"/>
<circle cx="1118.19" cy="3251.46" r="41.0189" fill="#ACA2C0"/>
<circle cx="1458.07" cy="3931.2" r="41.0189" fill="#ACA2C0"/>
<circle cx="1543.03" cy="3846.23" r="41.0189" fill="#ACA2C0"/>
<circle cx="1585.52" cy="3718.78" r="41.0189" fill="#ACA2C0"/>
<circle cx="1585.52" cy="3591.33" r="41.0189" fill="#ACA2C0"/>
<circle cx="1543.03" cy="3463.88" r="41.0189" fill="#ACA2C0"/>
<path d="M3127.53 3039.92C3245.5 2926.34 3403.33 2863.57 3567.1 2865.11C3730.86 2866.65 3887.48 2932.37 4003.3 3048.16C4119.12 3163.94 4184.89 3320.55 4186.48 3484.31C4188.07 3648.07 4125.35 3805.92 4011.8 3923.93L3569.79 4366L3127.53 3923.74C3010.39 3806.5 2944.6 3647.55 2944.6 3481.83C2944.6 3316.1 3010.39 3157.16 3127.53 3039.92ZM3569.73 3772.56C3627.15 3772.56 3683.28 3755.54 3731.02 3723.63C3778.76 3691.73 3815.97 3646.39 3837.94 3593.34C3859.92 3540.29 3865.66 3481.91 3854.45 3425.59C3843.25 3369.28 3815.59 3317.55 3774.98 3276.95C3734.38 3236.35 3682.64 3208.71 3626.32 3197.52C3570.01 3186.32 3511.63 3192.08 3458.59 3214.06C3405.54 3236.05 3360.2 3273.27 3328.31 3321.01C3296.42 3368.76 3279.41 3424.9 3279.42 3482.32C3279.57 3559.21 3310.23 3632.9 3364.66 3687.22C3419.08 3741.54 3492.83 3772.04 3569.73 3772.04V3772.56Z" fill="#ACA2C0"/>
</svg>
