<svg width="16" height="22" viewBox="0 0 16 22" fill="none" xmlns="http://www.w3.org/2000/svg">
<path d="M9.5 0C9.5 0 10.24 2.65 10.24 4.8C10.24 6.86 8.89 8.53 6.83 8.53C4.76 8.53 3.2 6.86 3.2 4.8L3.23 4.44C1.21 6.84 0 9.95 0 13.33C0 17.75 3.58 21.33 8 21.33C12.42 21.33 16 17.75 16 13.33C16 7.94 13.41 3.13 9.5 0ZM7.71 18.33C5.93 18.33 4.49 16.93 4.49 15.19C4.49 13.57 5.54 12.43 7.3 12.07C9.07 11.71 10.9 10.86 11.92 9.49C12.31 10.78 12.51 12.14 12.51 13.53C12.51 16.18 10.36 18.33 7.71 18.33Z" fill="white"/>
</svg>
