<svg width="19" height="19" viewBox="0 0 19 19" fill="none" xmlns="http://www.w3.org/2000/svg">
<g clip-path="url(#clip0)">
<path d="M9.5 13.4583C11.6861 13.4583 13.4583 11.6861 13.4583 9.5C13.4583 7.31387 11.6861 5.54167 9.5 5.54167C7.31388 5.54167 5.54167 7.31387 5.54167 9.5C5.54167 11.6861 7.31388 13.4583 9.5 13.4583Z" stroke="white" stroke-width="2" stroke-linecap="round" stroke-linejoin="round"/>
<path d="M9.5 0.791667V2.375" stroke="white" stroke-width="2" stroke-linecap="round" stroke-linejoin="round"/>
<path d="M3.34084 3.34083L4.465 4.465" stroke="white" stroke-width="2" stroke-linecap="round" stroke-linejoin="round"/>
<path d="M0.791672 9.5H2.37501" stroke="white" stroke-width="2" stroke-linecap="round" stroke-linejoin="round"/>
<path d="M16.625 9.5H18.2083" stroke="white" stroke-width="2" stroke-linecap="round" stroke-linejoin="round"/>
<path d="M14.535 4.465L15.6592 3.34083" stroke="white" stroke-width="2" stroke-linecap="round" stroke-linejoin="round"/>
<path d="M9.40168 17.25C9.40168 17.0475 9.35132 16.92 9.30576 16.8075C9.26619 16.71 9.23381 16.6305 9.23381 16.5C9.23381 16.365 9.26379 16.29 9.30576 16.1925C9.35132 16.08 9.40168 15.957 9.40168 15.75C9.40168 15.543 9.35132 15.42 9.30576 15.3075C9.26619 15.21 9.23381 15.132 9.23381 15L9 15C9 15.2025 9.05036 15.33 9.09592 15.4425C9.13549 15.54 9.16787 15.618 9.16787 15.75C9.16787 15.882 9.13789 15.96 9.09592 16.0575C9.05036 16.17 9 16.293 9 16.5C9 16.707 9.05036 16.83 9.09592 16.9425C9.13549 17.04 9.16787 17.1195 9.16787 17.25C9.16787 17.385 9.13789 17.46 9.09592 17.5575C9.05036 17.67 9 17.7945 9 18L9.23381 18C9.23381 17.865 9.26379 17.79 9.30576 17.6925C9.35132 17.58 9.40168 17.4525 9.40168 17.25ZM9.93525 17.25C9.93525 17.0475 9.88369 16.92 9.83933 16.8075C9.80096 16.71 9.76739 16.6305 9.76739 16.5C9.76739 16.365 9.79736 16.29 9.83933 16.1925C9.88489 16.08 9.93525 15.957 9.93525 15.75C9.93525 15.543 9.88369 15.42 9.83933 15.3075C9.80096 15.21 9.76739 15.132 9.76739 15L9.53357 15C9.53357 15.2025 9.58513 15.33 9.6295 15.4425C9.67146 15.54 9.70144 15.615 9.70144 15.75C9.70144 15.885 9.67146 15.96 9.6295 16.0575C9.58393 16.17 9.53357 16.293 9.53357 16.5C9.53357 16.707 9.58513 16.83 9.6295 16.9425C9.67146 17.04 9.70144 17.115 9.70144 17.25C9.70144 17.385 9.67146 17.46 9.6295 17.5575C9.58393 17.67 9.53357 17.7945 9.53357 18L9.76739 18C9.76739 17.865 9.79736 17.79 9.83933 17.6925C9.88489 17.58 9.93525 17.4525 9.93525 17.25ZM10.9041 17.6925C10.9496 17.58 11 17.4555 11 17.25C11 17.0445 10.9496 16.92 10.9041 16.8075C10.8657 16.71 10.8321 16.6305 10.8321 16.5C10.8321 16.365 10.8621 16.29 10.9041 16.1925C10.9484 16.08 11 15.957 11 15.75C11 15.543 10.9496 15.42 10.9041 15.3075C10.8645 15.21 10.8321 15.132 10.8321 15L10.6007 15C10.6007 15.2025 10.6523 15.33 10.6966 15.4425C10.7362 15.54 10.7686 15.618 10.7686 15.75C10.7686 15.882 10.7386 15.96 10.6966 16.0575C10.6511 16.17 10.6007 16.293 10.6007 16.5C10.6007 16.707 10.6523 16.83 10.6966 16.9425C10.735 17.04 10.7686 17.1195 10.7686 17.25C10.7686 17.385 10.7386 17.46 10.6966 17.5575C10.6511 17.67 10.6007 17.7945 10.6007 18L10.8345 18C10.8345 17.865 10.8645 17.79 10.9041 17.6925V17.6925ZM10.4688 17.25C10.4688 17.0475 10.4173 16.92 10.3729 16.8075C10.3309 16.71 10.301 16.635 10.301 16.5C10.301 16.365 10.3309 16.29 10.3729 16.1925C10.4185 16.08 10.4688 15.957 10.4688 15.75C10.4688 15.543 10.4173 15.42 10.3729 15.3075C10.3309 15.21 10.301 15.135 10.301 15L10.0671 15C10.0671 15.2025 10.1187 15.33 10.1631 15.4425C10.2014 15.54 10.235 15.6195 10.235 15.75C10.235 15.8805 10.205 15.96 10.1631 16.0575C10.1175 16.17 10.0671 16.293 10.0671 16.5C10.0671 16.707 10.1187 16.83 10.1631 16.9425C10.2014 17.04 10.235 17.1195 10.235 17.25C10.235 17.385 10.205 17.46 10.1631 17.5575C10.1175 17.67 10.0671 17.7945 10.0671 18L10.301 18C10.301 17.865 10.3309 17.79 10.3729 17.6925C10.4185 17.58 10.4688 17.4525 10.4688 17.25Z" fill="white"/>
<path d="M15.875 15.7212C15.7318 15.578 15.6061 15.5234 15.4943 15.4761C15.3974 15.4351 15.3183 15.4018 15.226 15.3095C15.1305 15.2141 15.0987 15.1399 15.0594 15.0412C15.0121 14.9295 14.9607 14.8069 14.8144 14.6605C14.668 14.5141 14.5454 14.4628 14.4336 14.4154C14.3367 14.3745 14.2587 14.3422 14.1653 14.2489L14 14.4142C14.1432 14.5574 14.269 14.6119 14.3807 14.6593C14.4776 14.7002 14.5557 14.7325 14.649 14.8258C14.7424 14.9192 14.7763 14.9955 14.8156 15.0942C14.8629 15.2059 14.9143 15.3285 15.0607 15.4749C15.207 15.6212 15.3296 15.6726 15.4414 15.7199C15.5383 15.7609 15.6174 15.7942 15.7097 15.8865C15.8052 15.982 15.837 16.0562 15.8763 16.1548C15.9236 16.2666 15.976 16.3902 16.1213 16.5355L16.2867 16.3702C16.1912 16.2747 16.1594 16.2005 16.1201 16.1019C16.0728 15.9901 16.0182 15.8644 15.875 15.7212ZM16.2523 15.3439C16.1091 15.2007 15.9825 15.147 15.8716 15.0988C15.7755 15.057 15.6956 15.0245 15.6033 14.9322C15.5078 14.8368 15.476 14.7626 15.4367 14.6639C15.3894 14.5522 15.338 14.4296 15.1917 14.2832C15.0453 14.1368 14.9219 14.0863 14.8109 14.0382C14.7149 13.9963 14.636 13.9649 14.5426 13.8716L14.3773 14.0369C14.5205 14.1801 14.6471 14.2338 14.758 14.282C14.8566 14.3213 14.9309 14.3531 15.0263 14.4486C15.1218 14.544 15.1536 14.6182 15.1929 14.7169C15.2402 14.8286 15.2916 14.9512 15.438 15.0976C15.5843 15.244 15.7078 15.2945 15.8187 15.3426C15.9173 15.3819 15.9915 15.4138 16.087 15.5092C16.1824 15.6047 16.2143 15.6789 16.2535 15.7775C16.3009 15.8893 16.3533 16.0129 16.4986 16.1582L16.6639 15.9929C16.5685 15.8975 16.5366 15.8232 16.4974 15.7246C16.4501 15.6128 16.3955 15.4871 16.2523 15.3439ZM17.2503 14.9717C17.2029 14.8599 17.1505 14.7363 17.0052 14.591C16.8599 14.4457 16.7363 14.3933 16.6245 14.3459C16.5284 14.3041 16.4485 14.2716 16.3562 14.1794C16.2607 14.0839 16.2289 14.0097 16.1896 13.9111C16.1414 13.8001 16.0909 13.6767 15.9445 13.5303C15.7982 13.384 15.6756 13.3326 15.5638 13.2853C15.4669 13.2443 15.3889 13.212 15.2955 13.1187L15.1319 13.2823C15.2751 13.4255 15.4017 13.4792 15.5126 13.5274C15.6095 13.5684 15.6876 13.6006 15.7809 13.694C15.8742 13.7873 15.9082 13.8637 15.9475 13.9623C15.9948 14.074 16.0462 14.1966 16.1925 14.343C16.3389 14.4894 16.4623 14.5399 16.5733 14.5881C16.6693 14.6299 16.7493 14.6623 16.8416 14.7546C16.937 14.8501 16.9689 14.9243 17.0081 15.0229C17.0555 15.1347 17.1079 15.2583 17.2532 15.4037L17.4185 15.2383C17.3231 15.1429 17.2912 15.0686 17.2503 14.9717V14.9717ZM16.6296 14.9666C16.4864 14.8234 16.3598 14.7697 16.2489 14.7215C16.1503 14.6823 16.076 14.6504 15.9806 14.555C15.8851 14.4595 15.8533 14.3853 15.814 14.2867C15.7667 14.1749 15.7153 14.0523 15.5689 13.9059C15.4226 13.7596 15.2991 13.709 15.1882 13.6609C15.0896 13.6216 15.0154 13.5898 14.9199 13.4943L14.7546 13.6596C14.8978 13.8028 15.0244 13.8565 15.1353 13.9047C15.2314 13.9465 15.3113 13.979 15.4036 14.0713C15.4959 14.1635 15.5309 14.2409 15.5702 14.3396C15.6175 14.4513 15.6689 14.5739 15.8152 14.7203C15.9616 14.8667 16.0851 14.9172 16.196 14.9654C16.292 15.0072 16.372 15.0396 16.4643 15.1319C16.5597 15.2274 16.5916 15.3016 16.6308 15.4002C16.6782 15.512 16.7306 15.6356 16.8759 15.7809L17.0412 15.6156C16.9458 15.5202 16.9139 15.4459 16.8747 15.3473C16.8273 15.2355 16.7728 15.1098 16.6296 14.9666Z" fill="white"/>
<path d="M4.72117 14.6605C4.57798 14.8037 4.52344 14.9295 4.47611 15.0412C4.43514 15.1382 4.40182 15.2173 4.30954 15.3095C4.21408 15.405 4.13985 15.4368 4.04124 15.4761C3.92947 15.5234 3.80688 15.5748 3.66051 15.7212C3.51414 15.8675 3.46278 15.9901 3.41545 16.1019C3.37448 16.1988 3.34222 16.2769 3.24888 16.3702L3.41421 16.5355C3.5574 16.3923 3.61195 16.2666 3.65928 16.1548C3.70024 16.0579 3.73251 15.9798 3.82584 15.8865C3.91918 15.7932 3.99553 15.7592 4.09415 15.7199C4.20592 15.6726 4.3285 15.6212 4.47487 15.4749C4.62124 15.3285 4.67261 15.2059 4.71994 15.0942C4.7609 14.9972 4.79423 14.9181 4.8865 14.8258C4.98196 14.7304 5.05619 14.6985 5.15481 14.6593C5.26658 14.6119 5.39022 14.5595 5.53553 14.4142L5.3702 14.2489C5.27474 14.3443 5.20051 14.3762 5.1019 14.4154C4.99013 14.4628 4.86436 14.5173 4.72117 14.6605ZM4.34388 14.2832C4.20069 14.4264 4.14699 14.553 4.09881 14.6639C4.057 14.76 4.02453 14.84 3.93225 14.9323C3.83679 15.0277 3.76256 15.0595 3.66394 15.0988C3.55218 15.1461 3.42959 15.1975 3.28322 15.3439C3.13685 15.4903 3.08633 15.6137 3.03815 15.7246C2.99634 15.8207 2.96493 15.8996 2.87159 15.9929L3.03692 16.1582C3.18011 16.0151 3.23381 15.8884 3.28199 15.7775C3.32126 15.6789 3.35309 15.6047 3.44855 15.5092C3.54401 15.4138 3.61824 15.3819 3.71686 15.3426C3.82863 15.2953 3.95121 15.244 4.09758 15.0976C4.24395 14.9512 4.29447 14.8278 4.34265 14.7169C4.38192 14.6182 4.41375 14.544 4.50921 14.4486C4.60467 14.3531 4.6789 14.3213 4.77752 14.282C4.88929 14.2347 5.01293 14.1822 5.15824 14.0369L4.99291 13.8716C4.89745 13.967 4.82322 13.9989 4.7246 14.0382C4.61284 14.0855 4.48707 14.14 4.34388 14.2832ZM3.97171 13.2853C3.85995 13.3326 3.7363 13.385 3.59099 13.5303C3.44568 13.6756 3.39325 13.7993 3.34592 13.9111C3.30411 14.0071 3.27164 14.0871 3.17936 14.1794C3.0839 14.2748 3.00967 14.3067 2.91105 14.3459C2.80013 14.3941 2.6767 14.4446 2.53033 14.591C2.38396 14.7374 2.33259 14.8599 2.28526 14.9717C2.2443 15.0686 2.21204 15.1467 2.1187 15.24L2.28233 15.4037C2.42552 15.2605 2.47922 15.1339 2.5274 15.0229C2.56836 14.926 2.60063 14.848 2.69397 14.7546C2.7873 14.6613 2.86365 14.6273 2.96227 14.5881C3.07404 14.5407 3.19662 14.4894 3.34299 14.343C3.48937 14.1966 3.53988 14.0732 3.58806 13.9623C3.62987 13.8662 3.66235 13.7862 3.75463 13.694C3.85008 13.5985 3.92431 13.5667 4.02293 13.5274C4.1347 13.4801 4.25834 13.4276 4.40365 13.2823L4.23832 13.117C4.14286 13.2125 4.06864 13.2443 3.97171 13.2853V13.2853ZM3.96659 13.9059C3.8234 14.0491 3.7697 14.1757 3.72152 14.2867C3.68225 14.3853 3.65042 14.4595 3.55496 14.555C3.4595 14.6504 3.38527 14.6823 3.28665 14.7215C3.17488 14.7689 3.0523 14.8202 2.90593 14.9666C2.75956 15.113 2.70904 15.2364 2.66086 15.3473C2.62159 15.4459 2.58976 15.5202 2.4943 15.6156L2.65963 15.7809C2.80282 15.6378 2.85651 15.5111 2.90469 15.4002C2.94651 15.3042 2.97898 15.2242 3.07126 15.1319C3.16354 15.0396 3.24095 15.0046 3.33956 14.9654C3.45133 14.918 3.57392 14.8667 3.72029 14.7203C3.86666 14.5739 3.91718 14.4505 3.96535 14.3396C4.00717 14.2435 4.03964 14.1635 4.13192 14.0713C4.22738 13.9758 4.30161 13.944 4.40022 13.9047C4.51199 13.8574 4.63564 13.8049 4.78095 13.6596L4.61562 13.4943C4.52016 13.5898 4.44593 13.6216 4.34731 13.6609C4.23554 13.7082 4.10978 13.7627 3.96659 13.9059Z" fill="white"/>
</g>
<defs>
<clipPath id="clip0">
<rect width="19" height="19" fill="white"/>
</clipPath>
</defs>
</svg>
