<svg width="14" height="14" viewBox="0 0 14 14" fill="none" xmlns="http://www.w3.org/2000/svg">
<path d="M10.4401 3.79749C10.6147 3.57991 10.8294 3.41943 11.0654 3.33025C11.3014 3.24107 11.5513 3.22595 11.7931 3.28621C12.0349 3.34647 12.261 3.48026 12.4516 3.67574C12.6422 3.87123 12.7912 4.12239 12.8856 4.40701C12.98 4.69163 13.0169 5.00094 12.9929 5.30758C12.9689 5.61422 12.8848 5.90874 12.748 6.1651C12.6112 6.42145 12.426 6.63174 12.2088 6.77736C11.9915 6.92298 11.7489 6.99945 11.5023 7H1M5.55502 1.44249C5.69443 1.26722 5.86634 1.13772 6.05545 1.06549C6.24457 0.993266 6.44503 0.980551 6.63903 1.02848C6.83302 1.07641 7.01454 1.1835 7.16743 1.34022C7.32033 1.49695 7.43987 1.69846 7.51543 1.92683C7.591 2.15521 7.62024 2.40338 7.60056 2.64929C7.58088 2.89519 7.51288 3.13121 7.40262 3.33636C7.29237 3.54151 7.14326 3.70944 6.96855 3.82522C6.79384 3.94099 6.59895 4.00103 6.40121 3.99999H1L5.55502 1.44249ZM7.35542 12.5575C7.49484 12.7328 7.66674 12.8623 7.85586 12.9345C8.04497 13.0067 8.24544 13.0194 8.43943 12.9715C8.63342 12.9236 8.81494 12.8165 8.96783 12.6598C9.12073 12.5031 9.24027 12.3015 9.31584 12.0732C9.3914 11.8448 9.42064 11.5966 9.40096 11.3507C9.38128 11.1048 9.31329 10.8688 9.20303 10.6636C9.09277 10.4585 8.94366 10.2906 8.76895 10.1748C8.59425 10.059 8.39936 9.99897 8.20161 10H1L7.35542 12.5575Z" stroke="white" stroke-width="2" stroke-linecap="round" stroke-linejoin="round"/>
</svg>
