<svg width="321" height="90" viewBox="0 0 321 90" fill="none" xmlns="http://www.w3.org/2000/svg">
<path d="M154.065 16.6846C153.959 15.6167 153.504 14.7871 152.701 14.1957C151.898 13.6044 150.808 13.3087 149.431 13.3087C148.496 13.3087 147.706 13.4411 147.061 13.7059C146.417 13.9618 145.923 14.3193 145.579 14.7782C145.243 15.2372 145.076 15.7579 145.076 16.3404C145.058 16.8258 145.16 17.2495 145.38 17.6113C145.61 17.9732 145.923 18.2865 146.32 18.5513C146.717 18.8072 147.176 19.0323 147.697 19.2265C148.218 19.4118 148.774 19.5707 149.365 19.7031L151.801 20.2856C152.984 20.5503 154.069 20.9034 155.058 21.3447C156.046 21.786 156.902 22.3287 157.626 22.973C158.35 23.6173 158.91 24.3763 159.307 25.2501C159.713 26.1239 159.921 27.1256 159.93 28.2553C159.921 29.9146 159.497 31.3532 158.659 32.5712C157.829 33.7803 156.629 34.7203 155.058 35.391C153.496 36.053 151.611 36.3839 149.405 36.3839C147.216 36.3839 145.31 36.0485 143.686 35.3778C142.07 34.707 140.808 33.7141 139.899 32.399C138.999 31.0752 138.527 29.438 138.483 27.4875H144.03C144.092 28.3965 144.352 29.1555 144.811 29.7645C145.279 30.3647 145.901 30.8192 146.678 31.1281C147.463 31.4282 148.35 31.5782 149.339 31.5782C150.309 31.5782 151.152 31.437 151.867 31.1546C152.591 30.8722 153.151 30.4794 153.548 29.9764C153.946 29.4733 154.144 28.8952 154.144 28.2421C154.144 27.6331 153.963 27.1212 153.601 26.7064C153.248 26.2916 152.728 25.9385 152.039 25.6473C151.36 25.356 150.526 25.0912 149.537 24.8529L146.585 24.1116C144.299 23.5555 142.494 22.6862 141.17 21.5035C139.846 20.3209 139.189 18.7278 139.198 16.7243C139.189 15.0827 139.626 13.6485 140.508 12.4217C141.4 11.1949 142.622 10.2373 144.175 9.5489C145.729 8.86049 147.494 8.51628 149.471 8.51628C151.483 8.51628 153.24 8.86049 154.74 9.5489C156.249 10.2373 157.423 11.1949 158.261 12.4217C159.1 13.6485 159.532 15.0695 159.559 16.6846H154.065ZM163.679 36V15.6652H169.319V36H163.679ZM166.513 13.0439C165.674 13.0439 164.955 12.7659 164.355 12.2099C163.763 11.645 163.468 10.9699 163.468 10.1844C163.468 9.40769 163.763 8.74134 164.355 8.18531C164.955 7.62045 165.674 7.33803 166.513 7.33803C167.351 7.33803 168.066 7.62045 168.657 8.18531C169.257 8.74134 169.557 9.40769 169.557 10.1844C169.557 10.9699 169.257 11.645 168.657 12.2099C168.066 12.7659 167.351 13.0439 166.513 13.0439ZM173.837 36V15.6652H179.212V19.2529H179.45C179.874 18.0614 180.58 17.1215 181.568 16.4331C182.557 15.7447 183.74 15.4004 185.116 15.4004C186.511 15.4004 187.698 15.7491 188.678 16.4463C189.657 17.1347 190.31 18.0703 190.637 19.2529H190.849C191.264 18.0879 192.014 17.1568 193.099 16.4596C194.194 15.7535 195.487 15.4004 196.978 15.4004C198.876 15.4004 200.416 16.005 201.599 17.2142C202.79 18.4145 203.386 20.1179 203.386 22.3243V36H197.759V23.4364C197.759 22.3067 197.459 21.4594 196.859 20.8945C196.259 20.3297 195.509 20.0473 194.609 20.0473C193.585 20.0473 192.786 20.3738 192.212 21.0269C191.639 21.6712 191.352 22.5229 191.352 23.582V36H185.884V23.3172C185.884 22.3199 185.597 21.5256 185.024 20.9343C184.459 20.3429 183.713 20.0473 182.786 20.0473C182.16 20.0473 181.595 20.2061 181.092 20.5239C180.598 20.8328 180.205 21.2696 179.914 21.8345C179.622 22.3905 179.477 23.0436 179.477 23.7938V36H173.837ZM207.841 43.6255V15.6652H213.401V19.0808H213.653C213.9 18.5336 214.257 17.9776 214.725 17.4127C215.202 16.8391 215.819 16.3625 216.578 15.983C217.346 15.5946 218.299 15.4004 219.438 15.4004C220.921 15.4004 222.289 15.7888 223.542 16.5655C224.795 17.3333 225.797 18.4939 226.547 20.0473C227.297 21.5918 227.672 23.5291 227.672 25.8591C227.672 28.1273 227.306 30.0425 226.574 31.6047C225.85 33.1581 224.861 34.3363 223.608 35.1395C222.364 35.9338 220.969 36.331 219.425 36.331C218.33 36.331 217.399 36.15 216.631 35.7882C215.872 35.4263 215.25 34.9718 214.765 34.4246C214.279 33.8686 213.909 33.3081 213.653 32.7433H213.48V43.6255H207.841ZM213.361 25.8326C213.361 27.0418 213.529 28.0964 213.864 28.9967C214.2 29.8969 214.685 30.5986 215.321 31.1016C215.956 31.5959 216.728 31.843 217.637 31.843C218.555 31.843 219.332 31.5915 219.967 31.0884C220.603 30.5765 221.084 29.8704 221.41 28.9702C221.746 28.0611 221.914 27.0153 221.914 25.8326C221.914 24.6588 221.75 23.6261 221.424 22.7347C221.097 21.8433 220.616 21.1461 219.981 20.643C219.345 20.1399 218.564 19.8884 217.637 19.8884C216.72 19.8884 215.943 20.1311 215.307 20.6165C214.681 21.102 214.2 21.7904 213.864 22.6818C213.529 23.5732 213.361 24.6235 213.361 25.8326ZM237.072 8.88696V36H231.432V8.88696H237.072ZM250.857 36.3972C248.765 36.3972 246.965 35.9735 245.455 35.1262C243.955 34.2701 242.799 33.061 241.987 31.4988C241.175 29.9278 240.769 28.07 240.769 25.9253C240.769 23.8336 241.175 21.9978 241.987 20.4179C242.799 18.8381 243.942 17.6069 245.416 16.7243C246.898 15.8417 248.637 15.4004 250.632 15.4004C251.973 15.4004 253.222 15.6167 254.378 16.0491C255.543 16.4728 256.558 17.1127 257.423 17.9688C258.297 18.8249 258.977 19.9016 259.462 21.199C259.948 22.4876 260.19 23.9968 260.19 25.7267V27.2756H243.02V23.7806H254.881C254.881 22.9686 254.705 22.2493 254.352 21.6227C253.999 20.996 253.509 20.5062 252.882 20.1532C252.265 19.7913 251.545 19.6104 250.724 19.6104C249.868 19.6104 249.109 19.809 248.447 20.2061C247.794 20.5945 247.282 21.1196 246.912 21.7815C246.541 22.4347 246.351 23.1628 246.342 23.9659V27.2889C246.342 28.295 246.528 29.1644 246.898 29.8969C247.278 30.6295 247.812 31.1943 248.5 31.5915C249.189 31.9886 250.005 32.1872 250.95 32.1872C251.576 32.1872 252.15 32.099 252.671 31.9225C253.191 31.7459 253.637 31.4812 254.008 31.1281C254.378 30.7751 254.661 30.3426 254.855 29.8307L260.071 30.1749C259.806 31.4282 259.264 32.5226 258.443 33.4582C257.631 34.3849 256.58 35.1086 255.292 35.6293C254.012 36.1412 252.534 36.3972 250.857 36.3972Z" fill="white"/>
<path d="M36.5021 55.0289H26.6058C26.5356 54.2101 26.3484 53.4673 26.0443 52.8005C25.7518 52.1337 25.3424 51.5606 24.816 51.0809C24.3013 50.5896 23.6755 50.2153 22.9385 49.958C22.2015 49.6889 21.3652 49.5544 20.4293 49.5544C18.7916 49.5544 17.4055 49.9521 16.2708 50.7476C15.1478 51.543 14.2939 52.6835 13.709 54.1692C13.1358 55.6548 12.8492 57.4387 12.8492 59.5209C12.8492 61.7201 13.1416 63.5625 13.7265 65.0481C14.3231 66.522 15.1829 67.6333 16.3059 68.3819C17.4289 69.1189 18.7799 69.4874 20.3591 69.4874C21.2599 69.4874 22.067 69.3762 22.7806 69.154C23.4941 68.92 24.1141 68.5866 24.6405 68.1538C25.1669 67.721 25.5939 67.2005 25.9214 66.5922C26.2607 65.9722 26.4888 65.2762 26.6058 64.5041L36.5021 64.5743C36.3851 66.095 35.9581 67.645 35.2212 69.2242C34.4842 70.7917 33.4372 72.2422 32.0803 73.5757C30.7351 74.8976 29.0681 75.9621 27.0795 76.7692C25.0909 77.5764 22.7806 77.98 20.1486 77.98C16.8498 77.98 13.8903 77.2722 11.27 75.8568C8.66138 74.4414 6.59673 72.3592 5.07602 69.6102C3.56701 66.8612 2.8125 63.4981 2.8125 59.5209C2.8125 55.5202 3.58456 52.1513 5.12866 49.414C6.67276 46.665 8.75497 44.5887 11.3753 43.185C13.9956 41.7695 16.92 41.0618 20.1486 41.0618C22.418 41.0618 24.506 41.3718 26.4127 41.9918C28.3195 42.6118 29.9923 43.5183 31.4311 44.7115C32.8699 45.893 34.028 47.3494 34.9053 49.0806C35.7826 50.8119 36.3149 52.7947 36.5021 55.0289ZM48.5785 77.9098C46.859 77.9098 45.3383 77.629 44.0164 77.0675C42.7063 76.4943 41.6769 75.6287 40.9282 74.4706C40.1795 73.3125 39.8052 71.8386 39.8052 70.0489C39.8052 68.575 40.0567 67.3174 40.5597 66.2763C41.0627 65.2235 41.7646 64.3638 42.6653 63.697C43.566 63.0302 44.613 62.5214 45.8062 62.1704C47.011 61.8195 48.3095 61.5914 49.7015 61.4861C51.2105 61.3691 52.4213 61.2288 53.3337 61.065C54.2578 60.8895 54.9246 60.6497 55.334 60.3456C55.7434 60.0297 55.9481 59.6145 55.9481 59.0998V59.0296C55.9481 58.3277 55.6791 57.7896 55.141 57.4153C54.6029 57.041 53.9127 56.8538 53.0705 56.8538C52.1464 56.8538 51.3919 57.0585 50.807 57.4679C50.2338 57.8656 49.8887 58.4798 49.7717 59.3103H40.858C40.975 57.6726 41.4955 56.1636 42.4197 54.7833C43.3555 53.3913 44.7183 52.28 46.508 51.4494C48.2978 50.6072 50.5321 50.1861 53.2109 50.1861C55.141 50.1861 56.8723 50.4142 58.4047 50.8704C59.9371 51.3149 61.2414 51.9407 62.3176 52.7479C63.3938 53.5433 64.2126 54.4791 64.7741 55.5553C65.3473 56.6198 65.6339 57.7779 65.6339 59.0296V77.4886H56.5798V73.6986H56.3692C55.8312 74.7046 55.1761 75.5176 54.404 76.1376C53.6437 76.7575 52.7722 77.2079 51.7896 77.4886C50.8187 77.7694 49.7483 77.9098 48.5785 77.9098ZM51.7369 71.8035C52.4739 71.8035 53.1641 71.6515 53.8074 71.3473C54.4625 71.0432 54.9948 70.6045 55.4042 70.0313C55.8136 69.4581 56.0183 68.7621 56.0183 67.9433V65.6973C55.761 65.8026 55.4861 65.902 55.1936 65.9956C54.9129 66.0892 54.6087 66.1769 54.2812 66.2588C53.9654 66.3407 53.6261 66.4167 53.2635 66.4869C52.9126 66.5571 52.5441 66.6214 52.1581 66.6799C51.4094 66.7969 50.7953 66.9899 50.3157 67.259C49.8477 67.5163 49.4968 67.838 49.2629 68.224C49.0406 68.5983 48.9295 69.0195 48.9295 69.4874C48.9295 70.236 49.1927 70.8092 49.7191 71.2069C50.2455 71.6047 50.9181 71.8035 51.7369 71.8035ZM79.9476 41.5531V77.4886H70.2618V41.5531H79.9476ZM97.8671 77.98C94.9426 77.98 92.4393 77.4009 90.3571 76.2428C88.2749 75.0731 86.6782 73.4471 85.5669 71.3649C84.4556 69.271 83.8999 66.8437 83.8999 64.083C83.8999 61.3223 84.4556 58.9009 85.5669 56.8187C86.6782 54.7248 88.2749 53.0988 90.3571 51.9407C92.4393 50.771 94.9426 50.1861 97.8671 50.1861C100.511 50.1861 102.798 50.6657 104.728 51.6249C106.67 52.5724 108.173 53.9177 109.237 55.6606C110.302 57.3919 110.84 59.4273 110.852 61.7669H101.868C101.739 60.3514 101.33 59.2752 100.639 58.5383C99.961 57.7896 99.0836 57.4153 98.0074 57.4153C97.1652 57.4153 96.4282 57.6609 95.7966 58.1522C95.1649 58.6319 94.6736 59.363 94.3226 60.3456C93.9717 61.3165 93.7962 62.5389 93.7962 64.0128C93.7962 65.4867 93.9717 66.715 94.3226 67.6976C94.6736 68.6685 95.1649 69.3996 95.7966 69.891C96.4282 70.3706 97.1652 70.6104 98.0074 70.6104C98.721 70.6104 99.3527 70.4466 99.9025 70.1191C100.452 69.7798 100.897 69.2885 101.236 68.6451C101.587 67.9901 101.798 67.1946 101.868 66.2588H110.852C110.816 68.6334 110.273 70.7039 109.22 72.4703C108.167 74.225 106.675 75.5819 104.745 76.5411C102.827 77.5003 100.534 77.98 97.8671 77.98ZM132.324 65.6973V50.537H142.01V77.4886H132.816V72.365H132.535C131.95 74.0846 130.926 75.4298 129.464 76.4008C128.002 77.36 126.265 77.8396 124.253 77.8396C122.369 77.8396 120.72 77.4068 119.305 76.5411C117.901 75.6755 116.807 74.4823 116.023 72.9616C115.251 71.4409 114.86 69.6979 114.848 67.7327V50.537H124.534V65.6973C124.545 67.0308 124.885 68.0778 125.551 68.8382C126.23 69.5985 127.177 69.9787 128.394 69.9787C129.201 69.9787 129.897 69.8091 130.482 69.4698C131.078 69.1189 131.535 68.6276 131.851 67.9959C132.178 67.3525 132.336 66.5863 132.324 65.6973ZM156.622 41.5531V77.4886H146.936V41.5531H156.622ZM169.067 77.9098C167.347 77.9098 165.827 77.629 164.505 77.0675C163.195 76.4943 162.165 75.6287 161.417 74.4706C160.668 73.3125 160.294 71.8386 160.294 70.0489C160.294 68.575 160.545 67.3174 161.048 66.2763C161.551 65.2235 162.253 64.3638 163.154 63.697C164.054 63.0302 165.101 62.5214 166.295 62.1704C167.499 61.8195 168.798 61.5914 170.19 61.4861C171.699 61.3691 172.91 61.2288 173.822 61.065C174.746 60.8895 175.413 60.6497 175.822 60.3456C176.232 60.0297 176.437 59.6145 176.437 59.0998V59.0296C176.437 58.3277 176.168 57.7896 175.629 57.4153C175.091 57.041 174.401 56.8538 173.559 56.8538C172.635 56.8538 171.88 57.0585 171.295 57.4679C170.722 57.8656 170.377 58.4798 170.26 59.3103H161.346C161.463 57.6726 161.984 56.1636 162.908 54.7833C163.844 53.3913 165.207 52.28 166.996 51.4494C168.786 50.6072 171.02 50.1861 173.699 50.1861C175.629 50.1861 177.361 50.4142 178.893 50.8704C180.425 51.3149 181.73 51.9407 182.806 52.7479C183.882 53.5433 184.701 54.4791 185.263 55.5553C185.836 56.6198 186.122 57.7779 186.122 59.0296V77.4886H177.068V73.6986H176.858C176.32 74.7046 175.664 75.5176 174.892 76.1376C174.132 76.7575 173.261 77.2079 172.278 77.4886C171.307 77.7694 170.237 77.9098 169.067 77.9098ZM172.225 71.8035C172.962 71.8035 173.652 71.6515 174.296 71.3473C174.951 71.0432 175.483 70.6045 175.893 70.0313C176.302 69.4581 176.507 68.7621 176.507 67.9433V65.6973C176.249 65.8026 175.974 65.902 175.682 65.9956C175.401 66.0892 175.097 66.1769 174.77 66.2588C174.454 66.3407 174.115 66.4167 173.752 66.4869C173.401 66.5571 173.033 66.6214 172.646 66.6799C171.898 66.7969 171.284 66.9899 170.804 67.259C170.336 67.5163 169.985 67.838 169.751 68.224C169.529 68.5983 169.418 69.0195 169.418 69.4874C169.418 70.236 169.681 70.8092 170.207 71.2069C170.734 71.6047 171.407 71.8035 172.225 71.8035ZM206.823 50.537V57.5557H189.066V50.537H206.823ZM192.505 44.0798H202.191V68.8206C202.191 69.1949 202.255 69.5108 202.384 69.7681C202.512 70.0138 202.711 70.2009 202.98 70.3296C203.249 70.4466 203.594 70.5051 204.015 70.5051C204.308 70.5051 204.647 70.47 205.033 70.3998C205.431 70.3296 205.723 70.2711 205.911 70.2243L207.314 77.0324C206.881 77.1611 206.261 77.319 205.454 77.5062C204.659 77.6934 203.711 77.8162 202.612 77.8747C200.389 77.9917 198.523 77.7635 197.014 77.1904C195.505 76.6055 194.371 75.6872 193.61 74.4355C192.85 73.1839 192.482 71.6164 192.505 69.733V44.0798ZM223.47 77.98C220.546 77.98 218.043 77.4009 215.96 76.2428C213.878 75.0731 212.281 73.4471 211.17 71.3649C210.059 69.271 209.503 66.8437 209.503 64.083C209.503 61.3223 210.059 58.9009 211.17 56.8187C212.281 54.7248 213.878 53.0988 215.96 51.9407C218.043 50.771 220.546 50.1861 223.47 50.1861C226.395 50.1861 228.898 50.771 230.98 51.9407C233.062 53.0988 234.659 54.7248 235.771 56.8187C236.882 58.9009 237.437 61.3223 237.437 64.083C237.437 66.8437 236.882 69.271 235.771 71.3649C234.659 73.4471 233.062 75.0731 230.98 76.2428C228.898 77.4009 226.395 77.98 223.47 77.98ZM223.541 70.8209C224.359 70.8209 225.067 70.546 225.664 69.9962C226.26 69.4464 226.722 68.6627 227.05 67.645C227.377 66.6273 227.541 65.4166 227.541 64.0128C227.541 62.5974 227.377 61.3867 227.05 60.3807C226.722 59.363 226.26 58.5792 225.664 58.0294C225.067 57.4796 224.359 57.2047 223.541 57.2047C222.675 57.2047 221.932 57.4796 221.312 58.0294C220.692 58.5792 220.218 59.363 219.891 60.3807C219.563 61.3867 219.4 62.5974 219.4 64.0128C219.4 65.4166 219.563 66.6273 219.891 67.645C220.218 68.6627 220.692 69.4464 221.312 69.9962C221.932 70.546 222.675 70.8209 223.541 70.8209ZM241.368 77.4886V50.537H250.773V55.6606H251.054C251.545 53.7656 252.323 52.3794 253.387 51.5021C254.464 50.6247 255.721 50.1861 257.16 50.1861C257.581 50.1861 257.996 50.2212 258.406 50.2913C258.827 50.3498 259.23 50.4376 259.616 50.5545V58.819C259.137 58.6552 258.546 58.5324 257.844 58.4505C257.142 58.3687 256.54 58.3277 256.037 58.3277C255.089 58.3277 254.235 58.5441 253.475 58.9769C252.726 59.3981 252.136 59.9946 251.703 60.7667C251.27 61.527 251.054 62.4219 251.054 63.4513V77.4886H241.368Z" fill="white"/>
<path d="M315.834 10H273.258C272.128 10 271.045 10.4486 270.247 11.247C269.449 12.0455 269 13.1284 269 14.2576V73.8641C269 74.9933 269.449 76.0762 270.247 76.8746C271.045 77.6731 272.128 78.1217 273.258 78.1217H315.834C316.963 78.1217 318.046 77.6731 318.844 76.8746C319.643 76.0762 320.091 74.9933 320.091 73.8641V14.2576C320.091 13.1284 319.643 12.0455 318.844 11.247C318.046 10.4486 316.963 10 315.834 10ZM281.773 65.3489H277.515V61.0912H281.773V65.3489ZM281.773 52.576H277.515V48.3184H281.773V52.576ZM281.773 39.8032H277.515V35.5456H281.773V39.8032ZM296.674 65.3489H292.417V61.0912H296.674V65.3489ZM296.674 52.576H292.417V48.3184H296.674V52.576ZM296.674 39.8032H292.417V35.5456H296.674V39.8032ZM311.576 65.3489H307.318V61.0912H311.576V65.3489ZM311.576 52.576H307.318V48.3184H311.576V52.576ZM311.576 39.8032H307.318V35.5456H311.576V39.8032ZM311.576 24.9016H277.515V16.3864H311.576V24.9016Z" fill="white"/>
</svg>
