<svg width="8869" height="3268" viewBox="0 0 8869 3268" fill="none" xmlns="http://www.w3.org/2000/svg">
<g filter="url(#filter0_d)">
<rect x="100" y="100" width="8469" height="2868" rx="654" fill="#363636"/>
</g>
<rect x="926" y="682" width="1636" height="1636" rx="312" fill="#464646"/>
<path d="M1537.29 1213.51C1502.06 1230.89 1470.89 1255.51 1445.82 1285.77C1420.76 1316.02 1402.35 1351.22 1391.82 1389.07C1344.34 1400.04 1301.21 1424.89 1267.9 1460.46C1225.28 1425.59 1197.91 1375.51 1191.57 1320.82C1188.47 1296.3 1190.68 1271.41 1198.07 1247.83C1205.45 1224.25 1217.83 1202.54 1234.37 1184.17C1250.9 1165.81 1271.19 1151.22 1293.87 1141.41C1316.55 1131.6 1341.07 1126.78 1365.78 1127.3C1399.07 1127.51 1431.87 1135.4 1461.62 1150.35C1491.36 1165.3 1517.26 1186.91 1537.29 1213.51V1213.51Z" fill="#FFE600"/>
<path d="M2180.83 1525.8C2173.72 1468.49 2146.2 1415.67 2103.33 1377C2060.45 1338.33 2005.08 1316.4 1947.35 1315.22C1920.67 1315.22 1894.26 1320.56 1869.67 1330.93C1844.63 1287.88 1808.91 1252.01 1765.97 1226.76C1723.04 1201.52 1674.32 1187.76 1624.52 1186.8C1567.89 1185.02 1512.67 1204.71 1469.95 1241.93C1427.23 1279.16 1400.17 1331.16 1394.19 1387.51C1367.24 1388.9 1340.88 1395.84 1316.73 1407.88C1292.59 1419.93 1271.19 1436.82 1253.87 1457.51C1236.55 1478.2 1223.69 1502.24 1216.08 1528.13C1208.47 1554.01 1206.28 1581.19 1209.65 1607.96C1216.69 1667.97 1245.21 1723.39 1289.95 1764C1334.68 1804.61 1392.6 1827.65 1453.01 1828.87H2155.68C2175.68 1829.28 2195.54 1825.39 2213.9 1817.44C2232.25 1809.49 2248.68 1797.68 2262.06 1782.8C2275.44 1767.93 2285.46 1750.35 2291.43 1731.26C2297.4 1712.17 2299.19 1692.01 2296.67 1672.17C2292.63 1639.5 2279.69 1608.56 2259.26 1582.75C2238.83 1556.94 2211.7 1537.23 2180.83 1525.8Z" fill="#FEFEFE"/>
<circle cx="1868" cy="1310.28" r="11.1845" fill="#ACA2C0"/>
<circle cx="1912.74" cy="1290.15" r="11.1845" fill="#ACA2C0"/>
<circle cx="1959.72" cy="1278.96" r="11.1845" fill="#ACA2C0"/>
<circle cx="2006.69" cy="1290.15" r="11.1845" fill="#ACA2C0"/>
<circle cx="2044.72" cy="1316.99" r="11.1845" fill="#ACA2C0"/>
<circle cx="2073.8" cy="1348.31" r="11.1845" fill="#ACA2C0"/>
<circle cx="2089.46" cy="1390.81" r="11.1845" fill="#ACA2C0"/>
<circle cx="2096.17" cy="1435.55" r="11.1845" fill="#ACA2C0"/>
<circle cx="2084.99" cy="1480.29" r="11.1845" fill="#ACA2C0"/>
<circle cx="2067.09" cy="1516.08" r="11.1845" fill="#ACA2C0"/>
<circle cx="2078.27" cy="1558.58" r="11.1845" fill="#ACA2C0"/>
<circle cx="2111.83" cy="1580.95" r="11.1845" fill="#ACA2C0"/>
<circle cx="2152.09" cy="1567.53" r="11.1845" fill="#ACA2C0"/>
<circle cx="2180.77" cy="1533.81" r="11.1845" fill="#ACA2C0"/>
<circle cx="1323.56" cy="1591.73" r="11.1845" fill="#ACA2C0"/>
<circle cx="1300.4" cy="1568.56" r="11.1845" fill="#ACA2C0"/>
<circle cx="1265.64" cy="1556.98" r="11.1845" fill="#ACA2C0"/>
<circle cx="1230.89" cy="1568.56" r="11.1845" fill="#ACA2C0"/>
<circle cx="1323.56" cy="1753.91" r="11.1845" fill="#ACA2C0"/>
<circle cx="1346.73" cy="1730.74" r="11.1845" fill="#ACA2C0"/>
<circle cx="1358.31" cy="1695.99" r="11.1845" fill="#ACA2C0"/>
<circle cx="1358.31" cy="1661.23" r="11.1845" fill="#ACA2C0"/>
<circle cx="1346.73" cy="1626.48" r="11.1845" fill="#ACA2C0"/>
<path d="M1778.77 1510.89C1810.94 1479.91 1853.97 1462.8 1898.63 1463.22C1943.28 1463.64 1985.98 1481.56 2017.56 1513.13C2049.14 1544.7 2067.08 1587.4 2067.51 1632.06C2067.94 1676.71 2050.84 1719.75 2019.88 1751.93L1899.36 1872.46L1778.77 1751.87C1746.83 1719.91 1728.89 1676.57 1728.89 1631.38C1728.89 1586.19 1746.83 1542.85 1778.77 1510.89V1510.89ZM1899.34 1710.65C1915 1710.65 1930.3 1706.01 1943.32 1697.31C1956.34 1688.61 1966.49 1676.25 1972.48 1661.78C1978.47 1647.32 1980.03 1631.4 1976.98 1616.05C1973.92 1600.69 1966.38 1586.58 1955.31 1575.52C1944.24 1564.45 1930.13 1556.91 1914.77 1553.86C1899.42 1550.8 1883.5 1552.37 1869.04 1558.37C1854.57 1564.36 1842.21 1574.51 1833.52 1587.53C1824.82 1600.55 1820.18 1615.86 1820.19 1631.51C1820.23 1652.48 1828.59 1672.57 1843.43 1687.38C1858.27 1702.19 1878.38 1710.51 1899.34 1710.51V1710.65Z" fill="#ACA2C0"/>
<path d="M3773.2 1035.4L3618 1597H3578.8L3425.2 1091.4L3269.2 1597H3231.6L3078.8 1035.4H3117.2L3251.6 1546.6L3406 1035.4H3446L3598.8 1549.8L3734 1035.4H3773.2ZM4253.77 1350.6C4253.77 1369.8 4253.24 1384.2 4252.17 1393.8H3876.97C3878.04 1432.73 3886.57 1465.53 3902.57 1492.2C3918.57 1518.87 3939.64 1538.87 3965.77 1552.2C3991.9 1565.53 4020.44 1572.2 4051.37 1572.2C4094.04 1572.2 4129.77 1561.8 4158.57 1541C4187.37 1519.67 4205.5 1490.87 4212.97 1454.6H4250.57C4242.04 1498.87 4220.17 1534.87 4184.97 1562.6C4149.77 1589.8 4105.24 1603.4 4051.37 1603.4C4010.84 1603.4 3974.57 1594.33 3942.57 1576.2C3910.57 1558.07 3885.5 1532.2 3867.37 1498.6C3849.24 1464.47 3840.17 1424.73 3840.17 1379.4C3840.17 1334.07 3848.97 1294.6 3866.57 1261C3884.7 1227.4 3909.77 1201.8 3941.77 1184.2C3973.77 1166.07 4010.3 1157 4051.37 1157C4092.97 1157 4128.97 1166.07 4159.37 1184.2C4190.3 1201.8 4213.77 1225.53 4229.77 1255.4C4245.77 1284.73 4253.77 1316.47 4253.77 1350.6ZM4217.77 1364.2C4219.37 1325.8 4212.44 1293.27 4196.97 1266.6C4182.04 1239.93 4161.5 1220.2 4135.37 1207.4C4109.24 1194.07 4080.97 1187.4 4050.57 1187.4C4020.17 1187.4 3991.9 1194.07 3965.77 1207.4C3940.17 1220.2 3919.1 1239.93 3902.57 1266.6C3886.57 1293.27 3878.04 1325.8 3876.97 1364.2H4217.77ZM4764.17 1597H4728.17L4398.57 1094.6V1597H4362.57V1036.2H4398.57L4728.17 1537V1036.2H4764.17V1597ZM5087.36 1603.4C5046.83 1603.4 5010.3 1594.33 4977.76 1576.2C4945.23 1558.07 4919.63 1532.2 4900.96 1498.6C4882.83 1464.47 4873.76 1424.73 4873.76 1379.4C4873.76 1334.6 4883.1 1295.4 4901.76 1261.8C4920.43 1227.67 4946.03 1201.8 4978.56 1184.2C5011.63 1166.07 5048.43 1157 5088.96 1157C5129.5 1157 5166.03 1166.07 5198.56 1184.2C5231.1 1201.8 5256.43 1227.4 5274.56 1261C5293.23 1294.6 5302.56 1334.07 5302.56 1379.4C5302.56 1424.73 5293.23 1464.47 5274.56 1498.6C5255.9 1532.2 5230.03 1558.07 5196.96 1576.2C5164.43 1594.33 5127.9 1603.4 5087.36 1603.4ZM5087.36 1571.4C5118.83 1571.4 5148.16 1564.47 5175.36 1550.6C5203.1 1536.2 5225.23 1514.6 5241.76 1485.8C5258.3 1457 5266.56 1421.53 5266.56 1379.4C5266.56 1337.8 5258.3 1302.6 5241.76 1273.8C5225.23 1245 5203.36 1223.67 5176.16 1209.8C5148.96 1195.4 5119.63 1188.2 5088.16 1188.2C5056.7 1188.2 5027.36 1195.4 5000.16 1209.8C4973.5 1223.67 4951.9 1245 4935.36 1273.8C4918.83 1302.6 4910.56 1337.8 4910.56 1379.4C4910.56 1421.53 4918.56 1457 4934.56 1485.8C4951.1 1514.6 4972.7 1536.2 4999.36 1550.6C5026.56 1564.47 5055.9 1571.4 5087.36 1571.4ZM5979.79 1162.6L5842.99 1597H5808.59L5670.19 1212.2L5530.99 1597H5496.59L5359.79 1162.6H5397.39L5514.19 1556.2L5653.39 1162.6H5687.79L5826.19 1554.6L5942.99 1162.6H5979.79Z" fill="#FEFEFE"/>
<path d="M3389.6 1839.1L3338.3 2002H3325.4L3273.5 1857.7L3221.3 2002H3208.4L3157.1 1839.1H3171.2L3215 1986.7L3267.2 1839.1H3280.1L3332 1986.1L3375.8 1839.1H3389.6ZM3565.88 1909.6C3565.88 1916.8 3565.68 1922.2 3565.28 1925.8H3424.58C3424.98 1940.4 3428.18 1952.7 3434.18 1962.7C3440.18 1972.7 3448.08 1980.2 3457.88 1985.2C3467.68 1990.2 3478.38 1992.7 3489.98 1992.7C3505.98 1992.7 3519.38 1988.8 3530.18 1981C3540.98 1973 3547.78 1962.2 3550.58 1948.6H3564.68C3561.48 1965.2 3553.28 1978.7 3540.08 1989.1C3526.88 1999.3 3510.18 2004.4 3489.98 2004.4C3474.78 2004.4 3461.18 2001 3449.18 1994.2C3437.18 1987.4 3427.78 1977.7 3420.98 1965.1C3414.18 1952.3 3410.78 1937.4 3410.78 1920.4C3410.78 1903.4 3414.08 1888.6 3420.68 1876C3427.48 1863.4 3436.88 1853.8 3448.88 1847.2C3460.88 1840.4 3474.58 1837 3489.98 1837C3505.58 1837 3519.08 1840.4 3530.48 1847.2C3542.08 1853.8 3550.88 1862.7 3556.88 1873.9C3562.88 1884.9 3565.88 1896.8 3565.88 1909.6ZM3552.38 1914.7C3552.98 1900.3 3550.38 1888.1 3544.58 1878.1C3538.98 1868.1 3531.28 1860.7 3521.48 1855.9C3511.68 1850.9 3501.08 1848.4 3489.68 1848.4C3478.28 1848.4 3467.68 1850.9 3457.88 1855.9C3448.28 1860.7 3440.38 1868.1 3434.18 1878.1C3428.18 1888.1 3424.98 1900.3 3424.58 1914.7H3552.38ZM3598.28 1920.4C3598.28 1903.6 3601.58 1888.9 3608.18 1876.3C3614.98 1863.7 3624.28 1854 3636.08 1847.2C3648.08 1840.4 3661.68 1837 3676.88 1837C3694.08 1837 3708.68 1841.2 3720.68 1849.6C3732.68 1858 3741.08 1868.7 3745.88 1881.7V1839.1H3759.38V2002H3745.88V1959.1C3741.08 1972.3 3732.58 1983.2 3720.38 1991.8C3708.38 2000.2 3693.88 2004.4 3676.88 2004.4C3661.68 2004.4 3648.08 2001 3636.08 1994.2C3624.28 1987.2 3614.98 1977.4 3608.18 1964.8C3601.58 1952 3598.28 1937.2 3598.28 1920.4ZM3745.88 1920.4C3745.88 1906.2 3742.88 1893.7 3736.88 1882.9C3731.08 1871.9 3723.08 1863.5 3712.88 1857.7C3702.68 1851.7 3691.28 1848.7 3678.68 1848.7C3665.48 1848.7 3653.88 1851.6 3643.88 1857.4C3633.88 1863 3626.08 1871.2 3620.48 1882C3614.88 1892.8 3612.08 1905.6 3612.08 1920.4C3612.08 1935.2 3614.88 1948 3620.48 1958.8C3626.08 1969.6 3633.88 1977.9 3643.88 1983.7C3654.08 1989.5 3665.68 1992.4 3678.68 1992.4C3691.28 1992.4 3702.68 1989.5 3712.88 1983.7C3723.28 1977.7 3731.38 1969.3 3737.18 1958.5C3742.98 1947.5 3745.88 1934.8 3745.88 1920.4ZM3828.63 1850.8V1958.5C3828.63 1970.5 3830.83 1978.8 3835.23 1983.4C3839.63 1987.8 3847.43 1990 3858.63 1990H3876.93V2002H3856.53C3842.33 2002 3831.83 1998.7 3825.03 1992.1C3818.43 1985.3 3815.13 1974.1 3815.13 1958.5V1850.8H3790.53V1839.1H3815.13V1797.7H3828.63V1839.1H3876.93V1850.8H3828.63ZM3986.34 1835.8C4005.54 1835.8 4021.24 1841.8 4033.44 1853.8C4045.64 1865.6 4051.74 1883.2 4051.74 1906.6V2002H4038.54V1907.5C4038.54 1888.1 4033.64 1873.3 4023.84 1863.1C4014.04 1852.7 4000.74 1847.5 3983.94 1847.5C3966.34 1847.5 3952.24 1853.1 3941.64 1864.3C3931.24 1875.5 3926.04 1892.1 3926.04 1914.1V2002H3912.54V1780H3926.04V1873.6C3930.64 1861.4 3938.34 1852.1 3949.14 1845.7C3959.94 1839.1 3972.34 1835.8 3986.34 1835.8ZM4246.15 1909.6C4246.15 1916.8 4245.95 1922.2 4245.55 1925.8H4104.85C4105.25 1940.4 4108.45 1952.7 4114.45 1962.7C4120.45 1972.7 4128.35 1980.2 4138.15 1985.2C4147.95 1990.2 4158.65 1992.7 4170.25 1992.7C4186.25 1992.7 4199.65 1988.8 4210.45 1981C4221.25 1973 4228.05 1962.2 4230.85 1948.6H4244.95C4241.75 1965.2 4233.55 1978.7 4220.35 1989.1C4207.15 1999.3 4190.45 2004.4 4170.25 2004.4C4155.05 2004.4 4141.45 2001 4129.45 1994.2C4117.45 1987.4 4108.05 1977.7 4101.25 1965.1C4094.45 1952.3 4091.05 1937.4 4091.05 1920.4C4091.05 1903.4 4094.35 1888.6 4100.95 1876C4107.75 1863.4 4117.15 1853.8 4129.15 1847.2C4141.15 1840.4 4154.85 1837 4170.25 1837C4185.85 1837 4199.35 1840.4 4210.75 1847.2C4222.35 1853.8 4231.15 1862.7 4237.15 1873.9C4243.15 1884.9 4246.15 1896.8 4246.15 1909.6ZM4232.65 1914.7C4233.25 1900.3 4230.65 1888.1 4224.85 1878.1C4219.25 1868.1 4211.55 1860.7 4201.75 1855.9C4191.95 1850.9 4181.35 1848.4 4169.95 1848.4C4158.55 1848.4 4147.95 1850.9 4138.15 1855.9C4128.55 1860.7 4120.65 1868.1 4114.45 1878.1C4108.45 1888.1 4105.25 1900.3 4104.85 1914.7H4232.65ZM4300.45 1872.7C4304.45 1860.7 4311.55 1851.6 4321.75 1845.4C4331.95 1839 4344.95 1835.8 4360.75 1835.8V1849.9H4356.25C4340.25 1849.9 4326.95 1854.5 4316.35 1863.7C4305.75 1872.7 4300.45 1887.5 4300.45 1908.1V2002H4286.95V1839.1H4300.45V1872.7ZM4468.1 1920.4C4468.1 1903.6 4471.4 1888.9 4478 1876.3C4484.8 1863.7 4494.1 1854 4505.9 1847.2C4517.9 1840.4 4531.5 1837 4546.7 1837C4563.9 1837 4578.5 1841.2 4590.5 1849.6C4602.5 1858 4610.9 1868.7 4615.7 1881.7V1839.1H4629.2V2002H4615.7V1959.1C4610.9 1972.3 4602.4 1983.2 4590.2 1991.8C4578.2 2000.2 4563.7 2004.4 4546.7 2004.4C4531.5 2004.4 4517.9 2001 4505.9 1994.2C4494.1 1987.2 4484.8 1977.4 4478 1964.8C4471.4 1952 4468.1 1937.2 4468.1 1920.4ZM4615.7 1920.4C4615.7 1906.2 4612.7 1893.7 4606.7 1882.9C4600.9 1871.9 4592.9 1863.5 4582.7 1857.7C4572.5 1851.7 4561.1 1848.7 4548.5 1848.7C4535.3 1848.7 4523.7 1851.6 4513.7 1857.4C4503.7 1863 4495.9 1871.2 4490.3 1882C4484.7 1892.8 4481.9 1905.6 4481.9 1920.4C4481.9 1935.2 4484.7 1948 4490.3 1958.8C4495.9 1969.6 4503.7 1977.9 4513.7 1983.7C4523.9 1989.5 4535.5 1992.4 4548.5 1992.4C4561.1 1992.4 4572.5 1989.5 4582.7 1983.7C4593.1 1977.7 4601.2 1969.3 4607 1958.5C4612.8 1947.5 4615.7 1934.8 4615.7 1920.4ZM4691.86 1882C4696.46 1868.8 4704.76 1858 4716.76 1849.6C4728.96 1841.2 4743.66 1837 4760.86 1837C4776.06 1837 4789.56 1840.4 4801.36 1847.2C4813.36 1854 4822.66 1863.7 4829.26 1876.3C4836.06 1888.9 4839.46 1903.6 4839.46 1920.4C4839.46 1937.2 4836.06 1952 4829.26 1964.8C4822.66 1977.4 4813.36 1987.2 4801.36 1994.2C4789.56 2001 4776.06 2004.4 4760.86 2004.4C4743.86 2004.4 4729.26 2000.2 4717.06 1991.8C4705.06 1983.2 4696.66 1972.4 4691.86 1959.4V2078.8H4678.36V1839.1H4691.86V1882ZM4825.66 1920.4C4825.66 1905.6 4822.86 1892.8 4817.26 1882C4811.66 1871.2 4803.76 1863 4793.56 1857.4C4783.56 1851.6 4771.96 1848.7 4758.76 1848.7C4746.16 1848.7 4734.76 1851.7 4724.56 1857.7C4714.36 1863.5 4706.36 1871.9 4700.56 1882.9C4694.76 1893.7 4691.86 1906.2 4691.86 1920.4C4691.86 1934.8 4694.76 1947.5 4700.56 1958.5C4706.36 1969.3 4714.36 1977.7 4724.56 1983.7C4734.76 1989.5 4746.16 1992.4 4758.76 1992.4C4771.96 1992.4 4783.56 1989.5 4793.56 1983.7C4803.76 1977.9 4811.66 1969.6 4817.26 1958.8C4822.86 1948 4825.66 1935.2 4825.66 1920.4ZM4893.71 1882C4898.31 1868.8 4906.61 1858 4918.61 1849.6C4930.81 1841.2 4945.51 1837 4962.71 1837C4977.91 1837 4991.41 1840.4 5003.21 1847.2C5015.21 1854 5024.51 1863.7 5031.11 1876.3C5037.91 1888.9 5041.31 1903.6 5041.31 1920.4C5041.31 1937.2 5037.91 1952 5031.11 1964.8C5024.51 1977.4 5015.21 1987.2 5003.21 1994.2C4991.41 2001 4977.91 2004.4 4962.71 2004.4C4945.71 2004.4 4931.11 2000.2 4918.91 1991.8C4906.91 1983.2 4898.51 1972.4 4893.71 1959.4V2078.8H4880.21V1839.1H4893.71V1882ZM5027.51 1920.4C5027.51 1905.6 5024.71 1892.8 5019.11 1882C5013.51 1871.2 5005.61 1863 4995.41 1857.4C4985.41 1851.6 4973.81 1848.7 4960.61 1848.7C4948.01 1848.7 4936.61 1851.7 4926.41 1857.7C4916.21 1863.5 4908.21 1871.9 4902.41 1882.9C4896.61 1893.7 4893.71 1906.2 4893.71 1920.4C4893.71 1934.8 4896.61 1947.5 4902.41 1958.5C4908.21 1969.3 4916.21 1977.7 4926.41 1983.7C4936.61 1989.5 4948.01 1992.4 4960.61 1992.4C4973.81 1992.4 4985.41 1989.5 4995.41 1983.7C5005.61 1977.9 5013.51 1969.6 5019.11 1958.8C5024.71 1948 5027.51 1935.2 5027.51 1920.4Z" fill="#9A9A9A"/>
<rect x="3830" y="2749" width="1227" height="25" rx="12.5" fill="#C4C4C4"/>
<defs>
<filter id="filter0_d" x="0" y="0" width="8869" height="3268" filterUnits="userSpaceOnUse" color-interpolation-filters="sRGB">
<feFlood flood-opacity="0" result="BackgroundImageFix"/>
<feColorMatrix in="SourceAlpha" type="matrix" values="0 0 0 0 0 0 0 0 0 0 0 0 0 0 0 0 0 0 127 0"/>
<feOffset dx="100" dy="100"/>
<feGaussianBlur stdDeviation="100"/>
<feColorMatrix type="matrix" values="0 0 0 0 0 0 0 0 0 0 0 0 0 0 0 0 0 0 0.25 0"/>
<feBlend mode="normal" in2="BackgroundImageFix" result="effect1_dropShadow"/>
<feBlend mode="normal" in="SourceGraphic" in2="effect1_dropShadow" result="shape"/>
</filter>
</defs>
</svg>
