<svg width="447" height="423" viewBox="0 0 447 423" fill="none" xmlns="http://www.w3.org/2000/svg">
<path d="M2.49478 130.16C2.49478 130.16 -3.73522 132.68 3.49478 145.92C10.7248 159.16 15.6048 165.67 15.6048 165.67C15.6048 165.67 16.8948 168.75 14.2848 169.3C11.6748 169.85 5.88478 169.08 4.80478 172.3C3.72478 175.52 6.17478 178.73 11.1448 181.36C16.1148 183.99 26.7848 190.13 27.7548 190.69C28.7248 191.25 29.6648 192.69 27.9548 193.33C26.2448 193.97 13.2948 195.68 14.4648 201.77C15.6348 207.86 30.6748 212.91 32.3148 213.49C33.9548 214.07 34.3148 214.75 34.2448 215.64C34.1748 216.53 29.7248 216.69 26.0648 217.32C22.4048 217.95 18.2648 219.32 19.2348 222.79C20.2048 226.26 29.2348 233.34 50.7248 234.88L60.7248 234.95L65.9548 226.36C75.9548 207.3 74.7648 195.89 72.3348 193.24C69.9048 190.59 66.5648 193.37 64.0848 196.15C61.6048 198.93 59.1548 202.57 58.3348 202.15C57.5148 201.73 57.1648 201.07 57.5348 199.37C57.9048 197.67 61.5348 182.24 57.0348 178.02C52.5348 173.8 44.1948 183.9 42.7248 185.02C41.2548 186.14 40.5648 184.55 40.5948 183.45C40.6248 182.35 41.0548 170.02 41.4548 164.45C41.8548 158.88 40.5648 155.1 37.1248 154.28C33.6848 153.46 31.3948 158.81 29.5448 160.73C27.6948 162.65 25.7648 159.92 25.7648 159.92C25.7648 159.92 22.7948 152.34 15.3648 139.24C7.93478 126.14 2.36478 130.24 2.36478 130.24" fill="#EBEBEB"/>
<path d="M61.2648 237.3C55.8548 227.66 46.5048 210.36 38.4148 195.55C30.3248 180.74 22.9748 167.35 17.6048 157.68C14.9248 152.85 12.7448 148.95 11.2348 146.23L9.4948 143.12L9.0548 142.31C8.9548 142.12 8.91479 142.02 8.91479 142.02L9.0848 142.29L9.5548 143.09L11.3348 146.17C12.8748 148.85 15.0848 152.75 17.7848 157.57C23.2048 167.21 30.5748 180.57 38.6748 195.4C46.7748 210.23 56.0948 227.53 61.4948 237.24" fill="#E0E0E0"/>
<path d="M12.8248 173.72C13.0637 173.756 13.2982 173.817 13.5248 173.9C13.9748 174.03 14.6148 174.24 15.4048 174.5C16.9748 175.04 19.1348 175.83 21.4948 176.74L27.4948 179.11L29.3248 179.81C29.5572 179.885 29.7816 179.982 29.9948 180.1C29.7524 180.071 29.5142 180.014 29.2848 179.93C28.8448 179.79 28.2048 179.59 27.4148 179.31C25.8448 178.76 23.6948 177.95 21.3348 177.03L15.2748 174.71L13.4348 174.01C13.2203 173.939 13.0155 173.842 12.8248 173.72V173.72Z" fill="#E0E0E0"/>
<path d="M30.7048 179.44C30.6248 179.44 32.0648 174.89 33.9148 169.35C35.7648 163.81 37.3248 159.35 37.4048 159.35C37.4848 159.35 36.0548 163.9 34.2048 169.45C32.3548 175 30.7948 179.47 30.7048 179.44Z" fill="#E0E0E0"/>
<path d="M42.1147 202.74C42.2213 202.517 42.3521 202.305 42.5047 202.11L43.6447 200.46C44.6447 199.07 45.9347 197.13 47.3147 194.95C48.6947 192.77 49.8847 190.75 50.7247 189.28L51.7247 187.54C51.8343 187.319 51.9684 187.111 52.1247 186.92C52.0445 187.152 51.9441 187.376 51.8247 187.59C51.6247 188.02 51.3047 188.59 50.9047 189.38C50.1147 190.88 48.9047 192.92 47.5647 195.11C46.2247 197.3 44.8247 199.23 43.8147 200.59C43.3147 201.27 42.8947 201.82 42.5947 202.19C42.4562 202.391 42.2952 202.576 42.1147 202.74V202.74Z" fill="#E0E0E0"/>
<path d="M24.8048 201.13C25.0307 201.104 25.2589 201.104 25.4848 201.13L27.3348 201.23C28.9048 201.32 31.0648 201.48 33.4448 201.67C35.8248 201.86 37.9848 202.05 39.5448 202.2L41.3948 202.4C41.6216 202.411 41.8464 202.448 42.0648 202.51C41.8396 202.547 41.61 202.547 41.3848 202.51L39.5348 202.41C37.9648 202.31 35.8048 202.16 33.4248 201.97C31.0448 201.78 28.8848 201.59 27.3248 201.43L25.4948 201.24C25.2612 201.231 25.0296 201.194 24.8048 201.13V201.13Z" fill="#E0E0E0"/>
<path d="M32.2548 222.98C32.5475 222.954 32.842 222.954 33.1348 222.98L35.5048 223.1C37.5048 223.22 40.2848 223.39 43.3448 223.61C46.4048 223.83 49.1648 224.04 51.1648 224.2L53.5348 224.42C53.8275 224.436 54.1185 224.477 54.4048 224.54C54.1154 224.566 53.8242 224.566 53.5348 224.54L51.1548 224.42C49.1548 224.31 46.3748 224.13 43.3248 223.92C40.2748 223.71 37.4948 223.49 35.4948 223.32L33.1248 223.11C32.8313 223.095 32.54 223.051 32.2548 222.98V222.98Z" fill="#E0E0E0"/>
<path d="M53.8848 224.36C54.0141 224.075 54.1716 223.804 54.3548 223.55C54.7148 223 55.1748 222.27 55.7348 221.4C56.8948 219.59 58.4748 217.08 60.1548 214.26C61.8348 211.44 63.2848 208.85 64.3248 206.97C64.8248 206.06 65.2448 205.31 65.5648 204.74C65.7004 204.456 65.8611 204.185 66.0448 203.93C65.9432 204.227 65.816 204.515 65.6648 204.79C65.4048 205.33 65.0148 206.11 64.5248 207.07C63.5248 208.98 62.1048 211.59 60.4248 214.42C58.7448 217.25 57.1248 219.74 55.9148 221.52C55.3148 222.41 54.8148 223.13 54.4648 223.62C54.2893 223.88 54.0955 224.128 53.8848 224.36V224.36Z" fill="#E0E0E0"/>
<path d="M271.825 112.36C256.045 98.5902 254.555 76.0402 257.375 56.2102C257.845 52.9002 257.855 49.3602 259.755 46.6102C261.655 43.8602 265.545 42.2702 268.375 43.9902C270.715 45.4202 271.475 48.4102 272.605 50.9302C274.111 54.2949 276.537 57.1653 279.605 59.2102C281.605 60.5302 284.145 61.4902 286.355 60.5602C289.355 59.2902 290.155 55.3702 290.495 52.0602C291.115 45.9002 291.738 39.7402 292.365 33.5802C292.705 30.2702 293.055 26.9002 294.425 23.8702C295.795 20.8402 298.375 18.1802 301.605 17.6402C304.835 17.1002 308.535 19.3302 308.855 22.6402C308.828 24.0196 308.711 25.3959 308.505 26.7602C308.445 28.1502 308.925 29.7602 310.185 30.2502C311.445 30.7402 312.885 29.9902 313.975 29.1302C317.745 26.1302 320.525 22.1302 323.145 18.0702C325.765 14.0102 328.335 9.88017 331.825 6.58017C335.315 3.28017 339.905 0.850169 344.665 1.09017C349.425 1.33017 354.145 4.80017 354.845 9.57017C355.545 14.3402 352.315 18.7902 348.955 22.2402C343.964 27.3676 338.259 31.7463 332.015 35.2402C330.821 35.7396 329.818 36.6089 329.155 37.7202C328.155 39.8502 330.045 42.2602 332.155 43.2202C334.535 44.3002 337.235 44.3402 339.775 44.9202C342.315 45.5002 344.985 46.9202 345.695 49.4702C346.695 53.0002 343.485 56.2302 340.455 58.2502C334.386 62.2924 327.669 65.2623 320.595 67.0302C318.065 67.6602 315.425 68.1602 313.285 69.6602C311.145 71.1602 309.635 73.9902 310.565 76.4502C311.495 78.9102 314.455 79.9802 317.055 79.7802C319.655 79.5802 322.055 78.4502 324.605 77.7802C329.325 76.5602 335.155 77.5002 337.605 81.7802C339.235 84.5702 339.015 88.1802 337.725 91.1502C336.288 94.0567 334.285 96.6473 331.835 98.7702C323.705 106.634 313.637 112.203 302.655 114.91C291.725 117.43 281.865 117.36 271.805 112.41" fill="#F5F5F5"/>
<path d="M278.305 100.44C282.778 89.9546 287.85 79.7344 293.495 69.8302L297.885 62.0102C299.335 59.4502 300.775 56.9102 302.325 54.5102C305.327 49.9128 308.579 45.4829 312.065 41.2402C315.375 37.1602 318.655 33.4202 321.745 29.9402C324.835 26.4602 327.805 23.2902 330.625 20.5002C335.045 16.0815 339.81 12.022 344.875 8.36017C346.665 7.06017 348.085 6.10017 349.055 5.46017L350.165 4.74017C350.288 4.65485 350.418 4.58119 350.555 4.52017L350.195 4.80017L349.125 5.57018C348.175 6.24018 346.775 7.23018 345.015 8.57018C340.019 12.2993 335.309 16.3974 330.925 20.8302C328.135 23.6302 325.205 26.8302 322.125 30.3102C319.045 33.7902 315.785 37.5502 312.505 41.6202C309.044 45.8549 305.816 50.2748 302.835 54.8602C301.285 57.2502 299.835 59.7702 298.415 62.3402L294.025 70.1502C288.392 80.0348 283.317 90.2275 278.825 100.68" fill="#E0E0E0"/>
<path d="M302.495 54.5002C302.386 54.0277 302.329 53.5449 302.325 53.0602C302.245 52.1302 302.185 50.7802 302.125 49.1102C302.015 45.7702 302.015 41.1102 302.045 36.0602C302.075 31.0102 301.995 26.3602 301.835 23.0602C301.755 21.4002 301.685 20.0602 301.615 19.1202C301.562 18.6383 301.562 18.1521 301.615 17.6702C301.766 18.1333 301.857 18.6139 301.885 19.1002C302.025 20.0202 302.165 21.3702 302.295 23.0302C302.575 26.3702 302.705 31.0302 302.685 36.0902C302.665 41.1502 302.615 45.6602 302.595 49.0902V53.0902C302.607 53.5623 302.574 54.0345 302.495 54.5002V54.5002Z" fill="#E0E0E0"/>
<path d="M345.835 51.1402C345.266 51.2006 344.693 51.2006 344.125 51.1402C343.025 51.1402 341.425 51.0802 339.465 51.1402C335.525 51.1402 330.085 51.3302 324.095 51.8102C318.105 52.2902 312.705 52.9602 308.815 53.5602C306.865 53.8402 305.295 54.1102 304.205 54.3002C303.647 54.4311 303.077 54.5048 302.505 54.5202C303.043 54.3175 303.599 54.1635 304.165 54.0602C305.235 53.8102 306.805 53.4702 308.745 53.1202C312.635 52.4202 318.045 51.6802 324.055 51.1902C329.18 50.7672 334.323 50.6036 339.465 50.7002C341.465 50.7002 343.035 50.8502 344.135 50.9402C344.706 50.9541 345.275 51.0211 345.835 51.1402V51.1402Z" fill="#E0E0E0"/>
<path d="M278.915 99.7102C278.81 99.5388 278.729 99.3537 278.675 99.1602C278.525 98.7302 278.345 98.1602 278.115 97.5502C277.635 96.1402 276.995 94.0902 276.235 91.5502C274.705 86.4602 272.825 79.3702 270.855 71.5502C268.885 63.7302 267.055 56.5502 265.645 51.4802C264.945 49.0002 264.375 46.9502 263.945 45.4802L263.495 43.7402C263.428 43.5535 263.387 43.3582 263.375 43.1602C263.48 43.3315 263.561 43.5166 263.615 43.7102C263.765 44.1402 263.945 44.7102 264.175 45.3202C264.655 46.7202 265.295 48.7802 266.055 51.3202C267.585 56.4102 269.465 63.5002 271.445 71.3202C273.425 79.1402 275.235 86.2702 276.645 91.3902C277.345 93.8702 277.915 95.9202 278.345 97.3902L278.795 99.0402C278.87 99.2556 278.911 99.4818 278.915 99.7102Z" fill="#E0E0E0"/>
<path d="M337.325 87.6002C337.136 87.6821 336.938 87.7392 336.735 87.7702L335.035 88.1502L328.785 89.4502C323.495 90.5602 316.225 92.1702 308.185 93.9602C300.145 95.7502 292.845 97.2902 287.535 98.2902C284.885 98.7902 282.735 99.1702 281.245 99.4002L279.525 99.6602C279.325 99.708 279.119 99.7249 278.915 99.7102C279.103 99.6283 279.302 99.5711 279.505 99.5402L281.195 99.1701L287.455 97.8602C292.735 96.7602 300.015 95.1502 308.055 93.3502C316.095 91.5502 323.395 90.0202 328.695 89.0202C331.355 88.5202 333.505 88.1402 334.995 87.9102L336.715 87.6502C336.915 87.6088 337.12 87.592 337.325 87.6002V87.6002Z" fill="#E0E0E0"/>
<path d="M373.185 153.88H430.435C430.435 153.88 425.365 144.67 410.635 146.01C396.565 147.29 395.845 141.48 388.695 140.76C381.545 140.04 375.575 145.53 373.185 153.88Z" fill="#F5F5F5"/>
<path d="M30.0748 20.2402H117.925C117.925 20.2402 110.155 6.09017 87.4948 8.15017C65.9048 10.1502 64.8048 1.15017 53.8248 0.0901724C42.8448 -0.969828 33.7348 7.41017 30.0748 20.2402Z" fill="#EBEBEB"/>
<path d="M374.905 359.7H446.275C446.275 359.7 439.965 347.93 421.595 349.7C404.045 351.33 403.155 343.91 394.235 343C385.315 342.09 377.875 349.04 374.905 359.7Z" fill="#EBEBEB"/>
<path d="M76.1848 49.9502H121.255C121.255 49.9502 117.255 42.7002 105.665 43.7602C94.5848 44.7602 94.0248 40.1902 88.3948 39.6302C82.7648 39.0702 78.0648 43.3802 76.1848 49.9502Z" fill="#F5F5F5"/>
<path d="M352.375 379.07H397.435C397.435 379.07 393.435 371.82 381.845 372.87C370.775 373.87 370.205 369.3 364.575 368.74C358.945 368.18 354.245 372.5 352.375 379.07Z" fill="#F5F5F5"/>
<path d="M381.045 257.45C380.807 256.636 380.732 255.783 380.825 254.94C380.755 254.099 380.854 253.253 381.115 252.45C381.367 253.258 381.445 254.11 381.345 254.95C381.42 255.795 381.317 256.647 381.045 257.45V257.45Z" fill="#EEEEEE"/>
<path d="M380.495 267.43C380.266 265.757 380.388 264.054 380.855 262.43C381.085 264.104 380.962 265.807 380.495 267.43V267.43Z" fill="#EEEEEE"/>
<path d="M379.305 277.36C379.159 276.527 379.183 275.674 379.375 274.85C379.405 274.003 379.602 273.171 379.955 272.4C380.112 273.235 380.088 274.095 379.885 274.92C379.858 275.764 379.661 276.594 379.305 277.36V277.36Z" fill="#EEEEEE"/>
<path d="M377.555 287.24C377.459 286.397 377.534 285.544 377.775 284.73C377.852 283.889 378.1 283.072 378.505 282.33C378.6 283.17 378.525 284.02 378.285 284.83C378.209 285.675 377.96 286.495 377.555 287.24V287.24Z" fill="#EEEEEE"/>
<path d="M375.235 296.93C375.301 295.248 375.72 293.599 376.465 292.09C376.399 293.772 375.98 295.421 375.235 296.93V296.93Z" fill="#EEEEEE"/>
<path d="M372.335 306.5C372.333 305.654 372.507 304.816 372.845 304.04C373.019 303.214 373.359 302.431 373.845 301.74C373.846 302.587 373.672 303.424 373.335 304.2C373.167 305.029 372.826 305.813 372.335 306.5V306.5Z" fill="#EEEEEE"/>
<path d="M368.875 315.88C368.929 315.037 369.153 314.214 369.535 313.46C369.752 312.641 370.141 311.878 370.675 311.22C370.619 312.066 370.395 312.892 370.015 313.65C369.791 314.464 369.403 315.223 368.875 315.88V315.88Z" fill="#EEEEEE"/>
<path d="M364.865 325.04C364.968 324.201 365.24 323.391 365.665 322.66C365.942 321.861 366.373 321.123 366.935 320.49C366.837 321.334 366.564 322.148 366.135 322.88C365.862 323.679 365.43 324.414 364.865 325.04V325.04Z" fill="#EEEEEE"/>
<path d="M360.315 333.95C360.473 333.12 360.793 332.328 361.255 331.62C361.905 330.4 362.525 329.46 362.655 329.53C362.505 330.363 362.185 331.157 361.715 331.86C361.075 333.08 360.495 334.02 360.315 333.95Z" fill="#EEEEEE"/>
<path d="M355.255 342.57C355.457 341.748 355.824 340.976 356.335 340.3C357.045 339.12 357.725 338.22 357.855 338.3C357.65 339.122 357.283 339.893 356.775 340.57C356.055 341.75 355.375 342.65 355.255 342.57Z" fill="#EEEEEE"/>
<path d="M349.695 350.88C349.952 350.073 350.363 349.322 350.905 348.67C351.685 347.54 352.415 346.67 352.535 346.77C352.287 347.577 351.879 348.325 351.335 348.97C350.545 350.11 349.815 350.96 349.695 350.88Z" fill="#EEEEEE"/>
<path d="M343.665 358.85C343.957 358.056 344.41 357.331 344.995 356.72C345.845 355.63 346.625 354.82 346.735 354.91C346.845 355 346.255 355.91 345.405 357.04C344.555 358.17 343.775 358.94 343.665 358.85Z" fill="#EEEEEE"/>
<path d="M337.175 366.45C337.065 366.35 337.715 365.45 338.625 364.45C339.535 363.45 340.365 362.65 340.475 362.74C340.585 362.83 339.935 363.74 339.015 364.79C338.095 365.84 337.275 366.54 337.175 366.45Z" fill="#EEEEEE"/>
<path d="M330.245 373.65C330.145 373.55 330.845 372.65 331.815 371.65C332.785 370.65 333.655 369.96 333.765 370.06C333.875 370.16 333.165 371.06 332.185 372.06C331.205 373.06 330.345 373.75 330.245 373.65Z" fill="#EEEEEE"/>
<path d="M322.915 380.44C322.815 380.33 323.575 379.5 324.595 378.58C325.615 377.66 326.535 376.99 326.595 377.1C326.655 377.21 325.945 378.04 324.915 378.96C323.885 379.88 323.005 380.55 322.915 380.44Z" fill="#EEEEEE"/>
<path d="M315.195 386.79C315.105 386.67 315.905 385.89 316.985 385.03C317.591 384.441 318.308 383.979 319.095 383.67C319.195 383.78 318.385 384.57 317.305 385.43C316.702 386.023 315.984 386.486 315.195 386.79Z" fill="#EEEEEE"/>
<path d="M307.115 392.67C307.035 392.55 307.885 391.81 309.005 391.02C309.643 390.464 310.388 390.045 311.195 389.79C311.285 389.91 310.435 390.65 309.305 391.44C308.667 391.996 307.921 392.415 307.115 392.67V392.67Z" fill="#EEEEEE"/>
<path d="M298.715 398.07C298.635 397.95 299.525 397.26 300.715 396.53C301.388 396.018 302.156 395.644 302.975 395.43C303.055 395.56 302.165 396.24 300.975 396.97C300.306 397.49 299.536 397.865 298.715 398.07Z" fill="#EEEEEE"/>
<path d="M290.005 402.97C289.935 402.84 290.865 402.21 292.075 401.55C292.769 401.057 293.56 400.717 294.395 400.55C293.806 401.156 293.102 401.639 292.325 401.97C291.629 402.46 290.839 402.8 290.005 402.97V402.97Z" fill="#EEEEEE"/>
<path d="M281.015 407.34C281.637 406.77 282.369 406.331 283.165 406.05C283.893 405.613 284.703 405.33 285.545 405.22C284.921 405.796 284.186 406.238 283.385 406.52C282.66 406.955 281.853 407.234 281.015 407.34V407.34Z" fill="#EEEEEE"/>
<path d="M271.785 411.18C272.44 410.641 273.199 410.243 274.015 410.01C274.767 409.622 275.59 409.391 276.435 409.33C275.776 409.863 275.018 410.261 274.205 410.5C273.452 410.887 272.629 411.119 271.785 411.18V411.18Z" fill="#EEEEEE"/>
<path d="M262.345 414.46C263.033 413.976 263.812 413.636 264.635 413.46C265.407 413.108 266.246 412.924 267.095 412.92C265.637 413.766 264.02 414.301 262.345 414.49V414.46Z" fill="#EEEEEE"/>
<path d="M252.735 417.18C253.445 416.723 254.241 416.417 255.075 416.28C255.87 415.984 256.717 415.851 257.565 415.89C256.849 416.343 256.05 416.649 255.215 416.79C254.423 417.085 253.579 417.218 252.735 417.18V417.18Z" fill="#EEEEEE"/>
<path d="M242.965 419.32C243.706 418.911 244.522 418.656 245.365 418.57C246.172 418.318 247.023 418.233 247.865 418.32C247.125 418.734 246.308 418.993 245.465 419.08C244.656 419.327 243.806 419.408 242.965 419.32V419.32Z" fill="#EEEEEE"/>
<path d="M233.095 420.88C233.845 420.512 234.66 420.294 235.495 420.24C236.317 420.043 237.17 420.009 238.005 420.14C236.424 420.727 234.736 420.969 233.055 420.85L233.095 420.88Z" fill="#EEEEEE"/>
<path d="M223.145 421.86C223.929 421.541 224.768 421.381 225.615 421.39C226.447 421.236 227.301 421.256 228.125 421.45C227.341 421.769 226.501 421.925 225.655 421.91C224.824 422.071 223.969 422.054 223.145 421.86V421.86Z" fill="#EEEEEE"/>
<path d="M213.155 422.24C213.953 421.959 214.801 421.85 215.645 421.92C216.486 421.815 217.339 421.879 218.155 422.11C217.353 422.391 216.502 422.504 215.655 422.44C214.816 422.541 213.966 422.473 213.155 422.24V422.24Z" fill="#EEEEEE"/>
<path d="M203.155 422.08C203.969 421.843 204.825 421.782 205.665 421.9C206.509 421.845 207.356 421.96 208.155 422.24C206.495 422.534 204.792 422.48 203.155 422.08V422.08Z" fill="#EEEEEE"/>
<path d="M193.185 421.31C194.013 421.145 194.866 421.145 195.695 421.31C196.543 421.303 197.383 421.47 198.165 421.8C197.334 421.971 196.476 421.971 195.645 421.8C194.8 421.809 193.962 421.642 193.185 421.31V421.31Z" fill="#EEEEEE"/>
<path d="M183.275 419.97C184.955 419.868 186.638 420.12 188.215 420.71C187.38 420.847 186.525 420.81 185.705 420.6C184.86 420.557 184.034 420.343 183.275 419.97V419.97Z" fill="#EEEEEE"/>
<path d="M173.495 418.04C174.337 417.959 175.187 418.047 175.995 418.3C176.838 418.388 177.652 418.654 178.385 419.08C176.704 419.084 175.04 418.743 173.495 418.08V418.04Z" fill="#EEEEEE"/>
<path d="M163.785 415.53C165.467 415.63 167.109 416.083 168.605 416.86C167.759 416.891 166.916 416.752 166.125 416.45C165.29 416.306 164.494 415.993 163.785 415.53V415.53Z" fill="#EEEEEE"/>
<path d="M154.265 412.46C155.111 412.472 155.945 412.659 156.715 413.01C157.539 413.209 158.316 413.566 159.005 414.06C158.159 414.048 157.325 413.861 156.555 413.51C155.73 413.314 154.952 412.957 154.265 412.46V412.46Z" fill="#EEEEEE"/>
<path d="M144.955 408.82C145.797 408.887 146.617 409.125 147.365 409.52C148.179 409.759 148.935 410.164 149.585 410.71C147.926 410.412 146.348 409.768 144.955 408.82V408.82Z" fill="#EEEEEE"/>
<path d="M135.875 404.64C137.51 405.043 139.045 405.779 140.385 406.8C139.546 406.681 138.741 406.396 138.015 405.96C136.765 405.36 135.805 404.77 135.875 404.64Z" fill="#EEEEEE"/>
<path d="M127.055 399.93C127.884 400.106 128.669 400.446 129.365 400.93C130.142 401.261 130.843 401.748 131.425 402.36C130.594 402.19 129.808 401.849 129.115 401.36C127.905 400.7 126.985 400.06 127.055 399.93Z" fill="#EEEEEE"/>
<path d="M118.495 394.71C119.313 394.926 120.079 395.307 120.745 395.83C121.915 396.57 122.795 397.26 122.745 397.39C121.924 397.166 121.158 396.774 120.495 396.24C119.335 395.53 118.495 394.83 118.495 394.71Z" fill="#EEEEEE"/>
<path d="M110.325 389C111.123 389.265 111.861 389.687 112.495 390.24C113.615 391.04 114.495 391.79 114.375 391.91C113.57 391.648 112.827 391.223 112.195 390.66C111.075 389.86 110.235 389.12 110.325 389Z" fill="#EEEEEE"/>
<path d="M102.495 382.82C103.286 383.125 104.004 383.592 104.605 384.19C105.675 385.06 106.465 385.86 106.385 385.97C105.595 385.662 104.877 385.196 104.275 384.6C103.175 383.73 102.375 382.93 102.495 382.82Z" fill="#EEEEEE"/>
<path d="M94.9848 376.24C95.7445 376.598 96.4246 377.105 96.9848 377.73C97.9848 378.66 98.7448 379.5 98.6548 379.61C98.5648 379.72 97.6548 379.05 96.6548 378.12C95.6548 377.19 94.8948 376.29 94.9848 376.24Z" fill="#EEEEEE"/>
<path d="M87.9148 369.13C88.6555 369.538 89.3107 370.085 89.8448 370.74C90.8448 371.74 91.5048 372.61 91.3948 372.74C91.2848 372.87 90.3948 372.13 89.4648 371.14C88.5348 370.15 87.8048 369.24 87.9148 369.13Z" fill="#EEEEEE"/>
<path d="M81.2547 361.68C81.3747 361.58 82.1947 362.35 83.0947 363.39C83.7022 363.978 84.1911 364.678 84.5347 365.45C84.4247 365.55 83.6047 364.78 82.6947 363.74C81.7847 362.7 81.1447 361.77 81.2547 361.68Z" fill="#EEEEEE"/>
<path d="M75.0547 353.84C75.1747 353.76 75.9447 354.57 76.7847 355.67C77.364 356.288 77.813 357.015 78.1047 357.81C77.9847 357.89 77.2147 357.08 76.3747 355.98C75.5347 354.88 74.9347 353.93 75.0547 353.84Z" fill="#EEEEEE"/>
<path d="M69.3247 345.66C69.4447 345.58 70.1647 346.44 70.9347 347.58C71.4798 348.227 71.885 348.979 72.1247 349.79C72.0147 349.88 71.2847 349.02 70.5047 347.87C69.9649 347.222 69.5633 346.47 69.3247 345.66V345.66Z" fill="#EEEEEE"/>
<path d="M64.0747 337.15C64.2047 337.08 64.8747 337.98 65.5847 339.15C66.0673 339.836 66.4074 340.611 66.5847 341.43C66.4647 341.5 65.7947 340.6 65.0847 339.43C64.5968 338.747 64.2532 337.971 64.0747 337.15V337.15Z" fill="#EEEEEE"/>
<path d="M59.3447 328.36C59.4747 328.29 60.0947 329.23 60.7247 330.45C61.1855 331.16 61.4984 331.956 61.6447 332.79C61.5147 332.86 60.8947 331.92 60.2647 330.69C59.7999 329.986 59.4866 329.192 59.3447 328.36V328.36Z" fill="#EEEEEE"/>
<path d="M55.1348 319.29C56.1096 320.655 56.7906 322.208 57.1348 323.85C57.0048 323.92 56.4348 322.94 55.8748 321.68C55.4705 320.941 55.2189 320.128 55.1348 319.29V319.29Z" fill="#EEEEEE"/>
<path d="M51.4948 309.99C52.0062 310.66 52.3801 311.425 52.5947 312.24C52.9696 312.999 53.1873 313.825 53.2347 314.67C52.711 314.005 52.3298 313.239 52.1148 312.42C51.7412 311.662 51.53 310.834 51.4948 309.99Z" fill="#EEEEEE"/>
<path d="M48.3648 300.49C48.8501 301.185 49.1903 301.971 49.3648 302.8C49.6973 303.581 49.8642 304.422 49.8548 305.27C49.3716 304.574 49.0317 303.789 48.8548 302.96C48.5231 302.179 48.3563 301.338 48.3648 300.49Z" fill="#EEEEEE"/>
<path d="M45.8248 290.83C46.2748 291.547 46.5679 292.352 46.6848 293.19C46.968 293.988 47.0838 294.836 47.0248 295.68C46.5818 294.96 46.2924 294.157 46.1748 293.32C45.892 292.522 45.773 291.675 45.8248 290.83Z" fill="#EEEEEE"/>
<path d="M43.8647 281.02C44.266 281.769 44.5078 282.593 44.5747 283.44C44.8091 284.252 44.8771 285.102 44.7747 285.94C44.3755 285.194 44.1339 284.374 44.0647 283.53C43.8304 282.715 43.7624 281.862 43.8647 281.02V281.02Z" fill="#EEEEEE"/>
<path d="M42.4948 271.12C42.8526 271.888 43.0468 272.723 43.0648 273.57C43.2337 274.398 43.2337 275.252 43.0648 276.08C42.5066 274.476 42.2953 272.772 42.4448 271.08L42.4948 271.12Z" fill="#EEEEEE"/>
<path d="M41.6947 261.16C41.9984 261.947 42.1412 262.787 42.1147 263.63C42.2564 264.468 42.2224 265.326 42.0147 266.15C41.7102 265.36 41.5674 264.517 41.5947 263.67C41.4573 262.835 41.4913 261.981 41.6947 261.16V261.16Z" fill="#EEEEEE"/>
<path d="M41.4947 251.16C41.7487 251.968 41.8404 252.817 41.7647 253.66C41.8591 254.5 41.7808 255.351 41.5347 256.16C41.2741 255.354 41.1755 254.504 41.2447 253.66C41.1507 252.819 41.2359 251.967 41.4947 251.16Z" fill="#EEEEEE"/>
<path d="M41.8448 241.17C42.0557 241.99 42.0999 242.843 41.9748 243.68C42.0176 244.525 41.8848 245.369 41.5848 246.16C41.3747 245.341 41.3305 244.487 41.4548 243.65C41.4085 242.805 41.5414 241.96 41.8448 241.17V241.17Z" fill="#EEEEEE"/>
<path d="M42.7848 231.24C42.9617 232.067 42.9617 232.923 42.7848 233.75C42.7734 234.597 42.5933 235.434 42.2548 236.21C42.0823 234.524 42.2663 232.821 42.7948 231.21L42.7848 231.24Z" fill="#EEEEEE"/>
<path d="M44.3148 221.33C44.4372 222.169 44.3827 223.024 44.1548 223.84C44.096 224.676 43.8717 225.492 43.4948 226.24C43.3723 225.401 43.4268 224.546 43.6548 223.73C43.7113 222.894 43.9358 222.078 44.3148 221.33V221.33Z" fill="#EEEEEE"/>
<path d="M46.4348 211.55C46.4026 213.238 46.0177 214.9 45.3048 216.43C45.2385 215.584 45.3439 214.734 45.6148 213.93C45.7222 213.089 46.0013 212.279 46.4348 211.55V211.55Z" fill="#EEEEEE"/>
<path d="M49.1147 201.92C48.9754 203.599 48.4957 205.232 47.7047 206.72C47.6815 205.875 47.8348 205.033 48.1547 204.25C48.3158 203.417 48.6422 202.625 49.1147 201.92V201.92Z" fill="#EEEEEE"/>
<path d="M52.3648 192.47C52.3375 193.316 52.1331 194.148 51.7648 194.91C51.5534 195.728 51.183 196.496 50.6748 197.17C50.7021 196.324 50.9065 195.493 51.2748 194.73C51.4834 193.912 51.8541 193.143 52.3648 192.47V192.47Z" fill="#EEEEEE"/>
<path d="M56.1747 183.24C56.0924 184.082 55.8407 184.898 55.4347 185.64C55.1731 186.447 54.7552 187.195 54.2047 187.84C54.2879 186.997 54.5431 186.18 54.9547 185.44C55.2044 184.63 55.6198 183.881 56.1747 183.24V183.24Z" fill="#EEEEEE"/>
<path d="M60.4948 174.24C60.0625 175.868 59.3001 177.39 58.2548 178.71C58.3862 177.874 58.6893 177.074 59.1448 176.36C59.7948 175.1 60.3948 174.15 60.4948 174.24Z" fill="#EEEEEE"/>
<path d="M65.3948 165.49C65.2259 166.315 64.8852 167.095 64.3948 167.78C63.7048 168.97 63.0448 169.89 62.9148 169.78C63.0944 168.955 63.4342 168.174 63.9148 167.48C64.6148 166.32 65.2748 165.41 65.3948 165.49Z" fill="#EEEEEE"/>
<path d="M70.7748 157.06C70.5442 157.875 70.1494 158.634 69.6148 159.29C68.8548 160.44 68.1448 161.29 68.0248 161.23C68.2597 160.417 68.6541 159.659 69.1848 159C69.9448 157.85 70.6548 156.98 70.7748 157.06Z" fill="#EEEEEE"/>
<path d="M76.6348 148.96C76.3633 149.762 75.9273 150.497 75.3548 151.12C74.5248 152.22 73.7648 153.05 73.6448 152.97C73.5248 152.89 74.1048 151.97 74.9348 150.81C75.7648 149.65 76.4948 148.87 76.6348 148.96Z" fill="#EEEEEE"/>
<path d="M82.9648 141.24C83.0748 141.34 82.4348 142.24 81.5548 143.32C80.6748 144.4 79.8548 145.16 79.7448 145.07C79.6348 144.98 80.2648 144.07 81.1548 142.99C82.0448 141.91 82.8548 141.13 82.9648 141.24Z" fill="#EEEEEE"/>
<path d="M89.7248 133.87C89.8348 133.97 89.1448 134.87 88.1948 135.87C87.2448 136.87 86.3948 137.6 86.2948 137.51C86.1948 137.42 86.8748 136.51 87.8248 135.51C88.7748 134.51 89.6248 133.77 89.7248 133.87Z" fill="#EEEEEE"/>
<path d="M96.9148 126.92C97.0148 127.03 96.2748 127.92 95.2748 128.82C94.2748 129.72 93.3748 130.44 93.2748 130.34C93.1748 130.24 93.9048 129.39 94.9148 128.44C95.9248 127.49 96.8148 126.81 96.9148 126.92Z" fill="#EEEEEE"/>
<path d="M104.495 120.41C104.585 120.52 103.795 121.33 102.745 122.21C102.149 122.812 101.438 123.288 100.655 123.61C100.565 123.5 101.345 122.69 102.405 121.81C102.997 121.204 103.709 120.727 104.495 120.41Z" fill="#EEEEEE"/>
<path d="M112.435 114.35C112.525 114.47 111.695 115.22 110.585 116.04C109.956 116.604 109.222 117.039 108.425 117.32C108.335 117.21 109.165 116.45 110.275 115.62C110.899 115.052 111.635 114.62 112.435 114.35V114.35Z" fill="#EEEEEE"/>
<path d="M120.725 108.77C120.805 108.89 119.925 109.6 118.775 110.35C118.116 110.879 117.358 111.27 116.545 111.5C116.465 111.38 117.335 110.67 118.495 109.91C119.15 109.378 119.91 108.989 120.725 108.77V108.77Z" fill="#EEEEEE"/>
<path d="M129.325 103.68C129.395 103.81 128.485 104.46 127.325 105.15C126.634 105.635 125.851 105.976 125.025 106.15C125.588 105.533 126.268 105.034 127.025 104.68C127.715 104.193 128.498 103.853 129.325 103.68V103.68Z" fill="#EEEEEE"/>
<path d="M138.215 99.1102C137.606 99.6951 136.884 100.151 136.095 100.45C135.378 100.905 134.574 101.204 133.735 101.33C134.344 100.745 135.065 100.29 135.855 99.9902C136.572 99.5372 137.376 99.2375 138.215 99.1102Z" fill="#EEEEEE"/>
<path d="M147.355 95.0702C146.713 95.6236 145.964 96.0389 145.155 96.2902C144.415 96.6999 143.597 96.9486 142.755 97.0202C143.398 96.4705 144.146 96.0587 144.955 95.8102C145.697 95.4054 146.513 95.1538 147.355 95.0702V95.0702Z" fill="#EEEEEE"/>
<path d="M156.715 91.5801C156.046 92.0972 155.276 92.4684 154.455 92.6701C153.689 93.0272 152.859 93.2278 152.015 93.2601C152.685 92.7477 153.455 92.3799 154.275 92.1801C155.04 91.8183 155.869 91.6143 156.715 91.5801Z" fill="#EEEEEE"/>
<path d="M166.275 88.6602C165.57 89.1285 164.777 89.4483 163.945 89.6002C163.162 89.9201 162.32 90.0733 161.475 90.0502C162.959 89.2534 164.595 88.7797 166.275 88.6602Z" fill="#EEEEEE"/>
<path d="M175.985 86.3002C174.456 87.0051 172.798 87.3832 171.115 87.4102C171.842 86.9751 172.653 86.6991 173.495 86.6002C174.295 86.3296 175.143 86.2275 175.985 86.3002V86.3002Z" fill="#EEEEEE"/>
<path d="M185.825 84.5202C184.257 85.1365 182.577 85.4159 180.895 85.3402C181.648 84.9552 182.471 84.7272 183.315 84.6702C184.133 84.4539 184.986 84.4029 185.825 84.5202V84.5202Z" fill="#EEEEEE"/>
<path d="M195.755 83.3302C194.143 83.8513 192.439 84.0285 190.755 83.8502C191.531 83.5122 192.368 83.3353 193.215 83.3302C194.052 83.1489 194.918 83.1489 195.755 83.3302V83.3302Z" fill="#EEEEEE"/>
<path d="M205.735 82.7102C204.941 83.0116 204.092 83.1411 203.245 83.0902C202.407 83.2086 201.554 83.161 200.735 82.9502C201.529 82.6487 202.377 82.5192 203.225 82.5702C204.062 82.4518 204.915 82.4993 205.735 82.7102V82.7102Z" fill="#EEEEEE"/>
<path d="M215.725 82.6802C214.916 82.9262 214.065 83.0045 213.225 82.9102C212.38 82.9794 211.531 82.8808 210.725 82.6202C212.378 82.2933 214.08 82.3137 215.725 82.6802V82.6802Z" fill="#EEEEEE"/>
<path d="M225.715 83.2402C224.042 83.4659 222.34 83.3468 220.715 82.8901C221.537 82.6939 222.39 82.6633 223.225 82.8002C224.076 82.7722 224.924 82.922 225.715 83.2402V83.2402Z" fill="#EEEEEE"/>
<path d="M235.655 84.3602C234.819 84.5056 233.963 84.4852 233.135 84.3002C232.291 84.2734 231.461 84.0761 230.695 83.7202C232.388 83.5795 234.092 83.7976 235.695 84.3602H235.655Z" fill="#EEEEEE"/>
<path d="M245.495 86.0701C243.808 86.1039 242.133 85.7872 240.575 85.1401C241.417 85.0382 242.271 85.1097 243.085 85.3501C243.928 85.4254 244.748 85.6703 245.495 86.0701V86.0701Z" fill="#EEEEEE"/>
<path d="M255.235 88.3601C253.549 88.3047 251.896 87.8887 250.385 87.1401C252.068 87.2084 253.719 87.6237 255.235 88.3601V88.3601Z" fill="#EEEEEE"/>
<path d="M264.815 91.2402C263.136 91.0802 261.51 90.5656 260.045 89.7302C260.887 89.7365 261.72 89.9098 262.495 90.2402C263.329 90.4085 264.119 90.7491 264.815 91.2402Z" fill="#EEEEEE"/>
<path d="M274.205 94.6602C273.36 94.6064 272.534 94.3855 271.775 94.0102C270.957 93.7887 270.195 93.4006 269.535 92.8702C270.38 92.924 271.206 93.1449 271.965 93.5202C272.782 93.7406 273.545 94.1288 274.205 94.6602Z" fill="#EEEEEE"/>
<path d="M283.375 98.6401C282.537 98.5363 281.728 98.2678 280.995 97.8501C280.192 97.5792 279.454 97.147 278.825 96.5801C279.663 96.6797 280.473 96.9485 281.205 97.3701C282.495 97.9401 283.495 98.5101 283.375 98.6401Z" fill="#EEEEEE"/>
<path d="M292.305 103.15C291.469 103.005 290.672 102.688 289.965 102.22C288.745 101.58 287.805 100.96 287.875 100.83C288.707 100.978 289.499 101.295 290.205 101.76C290.99 102.08 291.703 102.553 292.305 103.15V103.15Z" fill="#EEEEEE"/>
<path d="M300.935 108.18C300.112 107.989 299.339 107.628 298.665 107.12C297.485 106.41 296.585 105.73 296.665 105.6C297.487 105.804 298.262 106.168 298.945 106.67C300.115 107.38 301.015 108.06 300.935 108.18Z" fill="#EEEEEE"/>
<path d="M309.265 113.72C308.456 113.469 307.706 113.061 307.055 112.52C305.925 111.74 305.055 111.01 305.145 110.89C305.955 111.136 306.707 111.545 307.355 112.09C308.495 112.87 309.345 113.6 309.265 113.72Z" fill="#EEEEEE"/>
<path d="M317.255 119.73C316.461 119.432 315.733 118.98 315.115 118.4C314.035 117.55 313.215 116.78 313.305 116.66C314.097 116.955 314.822 117.407 315.435 117.99C316.495 118.84 317.345 119.61 317.255 119.73Z" fill="#EEEEEE"/>
<path d="M324.875 126.24C324.775 126.35 323.875 125.7 322.825 124.79C321.775 123.88 321.015 123.06 321.115 122.95C321.215 122.84 322.115 123.49 323.165 124.4C324.215 125.31 324.975 126.09 324.875 126.24Z" fill="#EEEEEE"/>
<path d="M332.105 133.09C332.005 133.19 331.105 132.49 330.105 131.53C329.451 130.993 328.908 130.334 328.505 129.59C328.605 129.49 329.505 130.19 330.505 131.16C331.505 132.13 332.205 132.99 332.105 133.09Z" fill="#EEEEEE"/>
<path d="M338.915 140.4C338.805 140.5 337.975 139.75 337.045 138.73C336.115 137.71 335.455 136.8 335.565 136.73C335.675 136.66 336.505 137.38 337.435 138.41C338.365 139.44 339.025 140.31 338.915 140.4Z" fill="#EEEEEE"/>
<path d="M345.295 148.1C345.175 148.19 344.385 147.39 343.525 146.32C342.931 145.716 342.465 144.998 342.155 144.21C342.275 144.11 343.065 144.91 343.925 145.99C344.519 146.594 344.985 147.312 345.295 148.1Z" fill="#EEEEEE"/>
<path d="M351.205 156.16C351.085 156.24 350.335 155.39 349.545 154.27C348.987 153.635 348.566 152.894 348.305 152.09C348.425 152 349.165 152.84 349.965 153.97C350.517 154.612 350.938 155.356 351.205 156.16V156.16Z" fill="#EEEEEE"/>
<path d="M356.625 164.55C356.505 164.62 355.815 163.73 355.085 162.55C354.567 161.879 354.19 161.11 353.975 160.29C354.095 160.21 354.795 161.1 355.525 162.29C356.047 162.957 356.422 163.728 356.625 164.55Z" fill="#EEEEEE"/>
<path d="M361.555 173.24C361.425 173.31 360.785 172.38 360.125 171.17C359.639 170.475 359.299 169.69 359.125 168.86C359.255 168.79 359.895 169.71 360.555 170.92C361.043 171.617 361.383 172.407 361.555 173.24V173.24Z" fill="#EEEEEE"/>
<path d="M365.955 182.24C365.381 181.619 364.938 180.887 364.655 180.09C364.217 179.366 363.934 178.559 363.825 177.72C364.399 178.342 364.841 179.073 365.125 179.87C365.565 180.593 365.848 181.4 365.955 182.24V182.24Z" fill="#EEEEEE"/>
<path d="M369.825 191.42C369.286 190.769 368.888 190.013 368.655 189.2C368.256 188.455 368.021 187.633 367.965 186.79C368.499 187.445 368.897 188.199 369.135 189.01C369.532 189.756 369.767 190.577 369.825 191.42Z" fill="#EEEEEE"/>
<path d="M373.135 200.85C372.654 200.163 372.315 199.389 372.135 198.57C371.79 197.795 371.606 196.958 371.595 196.11C372.074 196.801 372.414 197.579 372.595 198.4C372.945 199.17 373.129 200.005 373.135 200.85V200.85Z" fill="#EEEEEE"/>
<path d="M375.885 210.46C375.122 208.961 374.679 207.32 374.585 205.64C375.348 207.139 375.79 208.781 375.885 210.46V210.46Z" fill="#EEEEEE"/>
<path d="M378.065 220.24C377.402 218.692 377.062 217.024 377.065 215.34C377.485 216.078 377.747 216.896 377.835 217.74C378.081 218.549 378.159 219.4 378.065 220.24V220.24Z" fill="#EEEEEE"/>
<path d="M379.665 230.09C379.288 229.33 379.077 228.498 379.045 227.65C378.841 226.829 378.804 225.976 378.935 225.14C379.522 226.738 379.77 228.441 379.665 230.14V230.09Z" fill="#EEEEEE"/>
<path d="M380.675 240.03C380.343 239.253 380.18 238.415 380.195 237.57C380.027 236.739 380.027 235.882 380.195 235.05C380.526 235.831 380.689 236.672 380.675 237.52C380.843 238.348 380.843 239.202 380.675 240.03Z" fill="#EEEEEE"/>
<path d="M381.105 250.02C380.819 249.223 380.706 248.374 380.775 247.53C380.668 246.693 380.729 245.843 380.955 245.03C381.243 245.827 381.358 246.675 381.295 247.52C381.402 248.358 381.337 249.208 381.105 250.02V250.02Z" fill="#EEEEEE"/>
<path d="M367.625 259.39C367.715 257.6 367.765 255.83 367.775 254.05C367.785 252.27 367.775 250.31 367.775 248.45C367.775 250.31 367.825 252.18 367.775 254.05C367.725 255.92 367.715 257.6 367.625 259.39Z" fill="#263238"/>
<path d="M350.415 279.1C349.415 275.44 349.595 271.6 349.115 267.85C348.855 265.85 348.245 263.64 346.555 262.52C345.435 261.78 344.005 261.65 342.785 261.08C338.395 259.08 338.075 252.46 334.025 249.85C332.701 249.126 331.275 248.607 329.795 248.31C324.085 246.78 318.365 243.91 315.375 238.82C314.375 237.17 313.735 235.3 312.435 233.89C311.135 232.48 308.885 231.62 307.255 232.64C308.135 235.27 308.975 237.89 309.825 240.49C310.615 242.86 311.405 245.3 313.015 247.18C314.625 249.06 317.255 250.35 319.635 249.64C320.387 249.267 321.227 249.104 322.065 249.17C322.643 249.382 323.123 249.798 323.415 250.34C326.075 254.34 324.205 259.96 320.595 263.1C316.985 266.24 312.185 267.41 307.595 268.52C305.964 269.057 304.219 269.14 302.545 268.76C299.595 267.76 298.455 264.22 297.995 261.12C296.995 254.27 296.995 247 293.775 240.87C292.725 238.94 291.335 237.11 290.845 234.96C290.335 232.64 290.905 230.09 289.845 227.96C288.785 225.83 286.025 224.13 286.185 221.65C286.305 219.92 287.945 218.65 289.625 218.1C291.305 217.55 293.095 217.6 294.815 217.17C295.485 216.99 296.265 216.63 296.395 215.95C296.535 214.95 295.175 214.3 294.945 213.29C294.715 212.28 295.945 211.29 296.575 210.29C297.935 208.03 295.785 205.24 293.495 203.91C291.205 202.58 288.425 201.45 287.635 198.91C287.386 197.721 287.292 196.504 287.355 195.29C287.225 192.24 285.455 189.06 282.535 188.13C279.615 187.2 275.875 189.4 275.935 192.46C275.935 194.14 277.025 195.6 277.475 197.21C277.925 198.82 277.415 201.06 275.775 201.32C273.085 201.73 271.295 196.67 268.905 197.97C269.345 201.12 269.775 204.26 270.215 207.42C266.585 208.65 262.985 204.95 262.055 201.21C261.125 197.47 261.645 193.47 260.415 189.84C259.185 186.21 254.925 182.99 251.635 184.97C250.865 189.31 256.365 191.91 258.405 195.8C259.875 198.62 259.005 202.72 256.055 203.95C253.105 205.18 249.235 201.74 250.695 198.95C251.215 197.95 252.195 197.24 252.455 196.15C252.755 194.79 251.755 193.52 250.835 192.49C249.395 190.85 247.945 189.24 246.505 187.63C245.635 186.522 244.55 185.6 243.315 184.92C240.075 183.45 236.315 185.7 234.075 188.46C231.835 191.22 230.325 194.65 227.485 196.82C223.395 199.98 216.625 199.23 213.845 194.89C211.065 190.55 213.845 183.6 218.935 182.89C220.875 182.64 223.215 183.03 224.435 181.53C226.575 178.86 222.205 174.43 224.325 171.73C225.955 169.66 229.235 171.19 231.845 170.79C234.455 170.39 236.185 168.09 237.975 166.15C239.765 164.21 242.315 162.4 244.785 163.33C244.658 161.8 244.974 160.266 245.695 158.91C246.555 157.63 248.555 157.02 249.645 158.08C248.105 159.96 249.185 163.08 251.215 164.38C253.245 165.68 255.835 165.85 258.275 165.93C260.715 166.01 263.855 165.54 264.405 163.16C264.585 162.39 264.405 161.51 264.815 160.82C266.285 158.11 271.005 162.82 273.375 160.82C274.725 159.82 273.735 157.47 272.155 156.82C270.575 156.17 268.815 156.53 267.155 156.34C265.495 156.15 263.575 155 263.745 153.34C263.915 151.68 265.915 150.78 266.345 149.19C267.065 146.49 262.505 145.1 260.545 147.1C258.585 149.1 258.725 152.24 258.815 155.03C258.905 157.82 258.725 161.03 256.435 162.69C255.385 163.87 253.255 162.86 252.725 161.38C252.195 159.9 252.575 158.26 252.675 156.69C252.775 155.12 252.345 153.24 250.885 152.61C249.885 152.16 248.675 152.51 247.575 152.5C243.235 152.4 241.065 146.5 243.005 142.58C244.945 138.66 249.165 136.58 253.225 135.08C256.225 133.96 259.795 133.08 262.295 134.96C263.465 135.86 264.175 137.21 265.295 138.13C267.295 139.72 270.005 139.64 272.475 140.04C276.376 140.742 279.916 142.769 282.495 145.78C283.495 146.94 284.235 148.78 283.205 149.84C282.175 150.9 279.375 150.84 279.625 152.42C280.317 152.725 281.066 152.88 281.822 152.875C282.578 152.87 283.325 152.705 284.013 152.392C284.701 152.078 285.315 151.623 285.815 151.056C286.315 150.489 286.69 149.822 286.915 149.1C287.577 149.529 288.115 150.124 288.475 150.826C288.835 151.528 289.004 152.312 288.965 153.1C289.879 152.465 290.916 152.028 292.009 151.817C293.103 151.606 294.228 151.625 295.313 151.873C296.398 152.122 297.42 152.594 298.312 153.26C299.204 153.926 299.948 154.771 300.495 155.74C300.894 156.861 301.486 157.904 302.245 158.82C303.135 159.6 304.895 159.53 305.185 158.39C305.269 158.025 305.269 157.645 305.185 157.28C304.835 155.53 304.465 153.8 304.115 152.07C306.565 151.18 308.985 153.48 310.235 155.76C314.865 164.26 319.625 160.25 327.525 162.67C332.875 164.29 334.775 168.15 337.245 172.83C344.825 187.24 355.775 199.74 362.405 214.61C363.071 216.164 363.705 217.73 364.305 219.31C364.215 218.92 364.145 218.54 364.045 218.15C361.968 208.816 359.015 199.699 355.225 190.92C354.418 189.06 353.585 187.214 352.725 185.38C352.185 184.25 351.625 183.1 351.065 181.99C350.345 180.53 349.575 179.12 348.805 177.71C348.195 176.57 347.575 175.45 346.935 174.36C346.495 173.59 346.035 172.83 345.565 172.06C345.095 171.29 344.565 170.34 343.985 169.48L342.275 166.8C342.103 166.514 341.916 166.237 341.715 165.97C341.125 165.04 340.485 164.12 339.845 163.2C339.804 163.093 339.739 162.997 339.655 162.92C339.495 162.67 339.305 162.42 339.115 162.17C338.605 161.39 338.035 160.63 337.495 159.88C336.595 158.65 335.675 157.42 334.715 156.23C333.945 155.23 333.135 154.23 332.305 153.23C331.475 152.23 330.855 151.47 330.105 150.61C329.355 149.75 328.645 148.92 327.895 148.09C326.985 147.09 326.065 146.09 325.105 145.03C322.475 142.22 319.745 139.52 316.905 136.96C316.205 136.31 315.515 135.68 314.805 135.06C314.095 134.44 313.365 133.8 312.645 133.19C311.925 132.58 311.205 131.96 310.455 131.37C309.705 130.78 308.985 130.16 308.245 129.58C307.505 129 307.055 128.63 306.445 128.19C306.147 127.938 305.837 127.701 305.515 127.48C304.235 126.48 302.925 125.48 301.605 124.61C300.945 124.14 300.285 123.67 299.605 123.22C298.765 122.62 297.895 122.05 297.025 121.5C296.904 121.4 296.774 121.313 296.635 121.24C295.855 120.73 295.085 120.24 294.275 119.72C293.155 119.04 292.025 118.35 290.895 117.72C289.605 116.96 288.315 116.2 286.985 115.48C285.655 114.76 284.065 113.88 282.575 113.14C281.085 112.4 279.575 111.63 278.045 110.91C276.515 110.19 274.985 109.52 273.435 108.84C270.375 107.52 267.245 106.29 264.085 105.16L263.915 105.09C262.705 104.66 261.485 104.24 260.265 103.86C260.19 103.819 260.109 103.788 260.025 103.77C259.505 103.6 258.955 103.42 258.405 103.26C256.125 102.53 253.825 101.88 251.485 101.26C251.205 101.173 250.922 101.099 250.635 101.04C249.965 100.84 249.285 100.69 248.585 100.52C247.045 100.14 245.485 99.7902 243.915 99.4702C242.345 99.1502 240.625 98.7902 238.975 98.4702C237.325 98.1502 235.505 97.8702 233.765 97.6202C229.158 96.9535 224.568 96.4968 219.995 96.2502C218.905 96.1702 217.845 96.1202 216.765 96.0902C215.685 96.0602 214.525 96.0102 213.405 96.0002C212.285 95.9902 211.155 96.0002 210.055 96.0002C208.955 96.0002 207.815 96.0002 206.685 96.0602C205.735 96.0602 204.755 96.0602 203.795 96.1702C201.421 96.2835 199.071 96.4435 196.745 96.6502C195.655 96.7402 194.565 96.8602 193.465 97.0002C192.365 97.1402 191.275 97.2602 190.205 97.4102C188.395 97.6502 186.625 97.9402 184.855 98.2402L180.535 99.0402H180.435C178.965 99.3302 177.545 99.6502 176.095 99.9902H175.865C174.535 100.3 173.215 100.63 171.915 100.99C170.275 101.4 168.655 101.87 167.065 102.34C165.705 102.74 164.365 103.15 163.065 103.59C161.765 104.03 160.225 104.53 158.825 105.03L158.675 105.08C157.325 105.56 155.975 106.08 154.675 106.6C153.375 107.12 151.945 107.68 150.575 108.28C149.295 108.82 148.045 109.36 146.785 109.93C146.305 110.14 145.845 110.37 145.355 110.6C144.025 111.21 142.725 111.85 141.355 112.51C139.735 113.3 138.165 114.15 136.595 115C135.205 115.75 133.845 116.53 132.505 117.31C124.738 121.825 117.374 127.001 110.495 132.78C108.075 134.78 105.775 136.86 103.495 138.98C101.585 140.81 99.7148 142.66 97.9048 144.6C96.2848 146.28 94.7048 148.01 93.1748 149.77C94.7048 148.01 96.2848 146.28 97.9048 144.6C98.3048 144.6 98.7048 144.6 99.0948 144.6C101.325 144.75 103.645 145.16 105.775 144.49C107.775 143.85 109.275 142.39 111.115 141.49C115.815 139.07 122.885 139.49 124.775 134.58C125.415 132.92 125.225 130.99 126.095 129.44C127.735 126.55 131.895 126.7 135.175 127.23C136.575 127.43 138.175 127.86 138.645 129.23C138.756 129.713 138.763 130.214 138.667 130.7C138.57 131.186 138.372 131.646 138.085 132.05C135.205 137.512 130.534 141.816 124.855 144.24C120.215 146.24 114.365 147.43 112.485 152.11C112.835 153.84 115.845 154.11 115.835 155.9C115.835 157.3 113.945 157.75 113.125 158.9C111.935 160.55 113.755 163.04 115.805 163.24C117.855 163.44 119.755 162.24 121.455 161.05C126.515 157.55 131.835 153.77 134.305 148.12C135.305 145.79 136.005 142.98 138.195 141.65C138.862 141.312 139.598 141.132 140.346 141.126C141.094 141.12 141.833 141.287 142.505 141.614C143.178 141.942 143.765 142.421 144.221 143.013C144.678 143.606 144.99 144.296 145.135 145.03C147.235 144.23 150.365 143.86 151.075 146.03C151.19 146.811 151.22 147.603 151.165 148.39C151.345 151.62 155.425 153.66 155.415 156.89C155.415 160.61 150.415 161.82 146.705 161.89C143.325 161.89 139.945 161.96 136.555 162.02C135.08 161.914 133.602 162.165 132.245 162.75C131.574 163.067 131.031 163.604 130.707 164.271C130.384 164.939 130.298 165.697 130.465 166.42C130.865 167.146 131.355 167.818 131.925 168.42C134.275 171.56 131.195 176.89 127.305 176.42C125.975 176.27 124.745 175.6 123.435 175.36C119.535 174.62 115.925 177.62 113.555 180.81C111.185 184 109.225 187.74 105.755 189.64C100.155 192.71 91.5748 190.57 88.2848 196.05C86.9648 198.26 87.0948 200.98 87.1248 203.56C87.1548 206.14 86.9148 208.94 85.1248 210.81C83.3348 212.68 79.5448 212.55 78.7948 210.09C78.5793 208.988 78.6941 207.847 79.1248 206.81C80.2315 203.27 81.3281 199.727 82.4148 196.18C83.2248 193.54 84.0248 190.58 82.7548 188.18C80.9648 184.77 75.9248 184.34 72.6748 186.4C69.4248 188.46 67.6748 192.16 66.3448 195.74C65.3448 198.4 64.1048 202.18 62.1348 205.09C61.1348 208.09 60.3148 211.09 59.5448 214.15C58.7748 217.21 58.0948 220.43 57.5448 223.64C58.0378 223.336 58.512 223.002 58.9648 222.64C60.7348 221.27 64.8248 214.98 67.1448 218.69C67.4241 219.175 67.5363 219.738 67.464 220.293C67.3917 220.848 67.139 221.363 66.7448 221.76C65.7448 222.76 63.9748 222.76 63.1448 223.84C62.1448 225.15 62.9948 227.08 64.1448 228.2C65.2948 229.32 66.8648 230.2 67.6048 231.65C69.0148 234.48 66.7448 238.13 68.1048 241.01C69.2748 243.48 72.4348 244.09 75.1048 244.77L76.0148 245.06C77.5548 239.77 80.7148 235.75 88.3048 235.15C98.7848 234.31 110.905 244.65 115.515 253.15C120.645 262.63 121.915 275.15 131.045 280.87C137.585 284.95 147.675 285.28 150.045 292.61C152.195 299.18 145.905 305.3 144.115 311.97C142.955 316.39 143.775 321.06 143.475 325.59C143.175 330.12 141.055 335.21 136.685 336.5C134.265 337.2 131.415 336.66 129.325 338.11C125.615 340.73 127.325 347.49 123.665 350.11C122.355 351.02 120.665 351.18 119.205 351.69C111.335 354.33 109.975 365.14 112.295 373.11C112.385 373.4 112.475 373.66 112.555 373.95C134.491 391.78 160.848 403.333 188.825 407.38C214.163 411.082 240.023 408.479 264.115 399.8V399.8C269.183 397.969 274.153 395.877 279.005 393.53C286.484 389.942 293.661 385.755 300.465 381.01C305.174 377.745 309.695 374.216 314.005 370.44C317.005 367.82 319.935 365.06 322.755 362.22C324.185 360.75 325.605 359.28 326.955 357.74C337.025 346.73 345.446 334.317 351.955 320.89C355.936 312.732 359.182 304.235 361.655 295.5C362.655 292.08 363.505 288.61 364.265 285.09C363.337 285.822 362.273 286.364 361.136 286.685C359.998 287.005 358.809 287.099 357.635 286.96C354.025 286.3 351.415 282.74 350.415 279.1Z" fill="#EEEEEE"/>
<path d="M267.945 338.55C263.215 343.84 261.455 351.06 259.375 357.84C257.295 364.62 254.375 371.74 248.375 375.54C242.375 379.34 232.625 377.65 230.615 370.84C229.515 367.15 230.925 363.18 230.615 359.34C230.185 354.34 226.875 350.05 225.715 345.17C224.715 341 225.355 336.65 225.835 332.39C228.495 309.15 226.345 284.17 213.035 264.93C211.405 262.56 209.495 260.21 206.855 259.09C205.266 258.442 203.523 258.267 201.837 258.588C200.151 258.91 198.594 259.713 197.355 260.9C195.855 262.39 194.885 264.43 193.135 265.62C189.325 268.21 183.765 265.16 182.085 260.87C180.405 256.58 181.425 251.76 182.455 247.27C183.748 241.697 185.031 236.127 186.305 230.56C186.975 227.65 187.765 224.56 190.025 222.56C193.235 219.77 198.185 220.34 201.915 218.3C206.805 215.64 208.305 209.42 211.775 205.06C215.245 200.7 224.255 199.95 224.775 205.49C236.835 187.11 252.955 219.35 265.385 218.9C268.995 218.76 272.665 217.57 276.135 218.58C282.255 220.36 284.485 227.71 285.755 233.96C287.855 244.333 289.958 254.703 292.065 265.07C292.865 269.02 293.995 273.45 297.515 275.43C300.205 276.95 303.635 276.58 306.355 278.04C313.555 281.91 309.355 293.5 302.475 297.91C295.595 302.32 286.495 304.43 282.495 311.55C279.495 316.92 280.265 323.83 277.095 329.11C274.845 332.88 270.885 335.24 267.945 338.55Z" fill="#263238"/>
<path d="M295.855 349.15C293.305 349.15 290.535 347.48 288.405 348.87C287.155 349.68 286.675 351.23 286.035 352.57C285.197 354.477 283.693 356.013 281.805 356.89C280.856 357.307 279.808 357.44 278.786 357.273C277.763 357.106 276.811 356.647 276.045 355.95C275.322 355.213 274.917 354.222 274.917 353.19C274.917 352.158 275.322 351.167 276.045 350.43C276.822 349.905 277.626 349.421 278.455 348.98C282.215 346.33 280.785 340.19 283.845 336.83C285.655 334.83 288.315 332.96 290.265 330.98C291.765 329.45 292.425 328.16 294.795 328.04C305.165 327.51 306.695 349.24 295.855 349.15Z" fill="#263238"/>
<path d="M70.7748 273.68C70.9248 269.17 73.0348 264.95 73.7748 260.48C74.2748 257.39 74.5248 254.1 74.9248 250.98C72.2895 250.48 69.7079 249.73 67.2148 248.74C66.6729 248.591 66.1993 248.259 65.8748 247.8C65.6831 247.257 65.6553 246.669 65.7948 246.11C66.1048 242.6 63.0748 239.81 60.3148 237.63C58.9426 236.479 57.4546 235.474 55.8748 234.63C55.8748 235 55.7748 235.34 55.7448 235.71C53.9074 252.591 54.8363 269.658 58.4948 286.24C60.1268 293.617 62.3096 300.86 65.0248 307.91C66.1348 310.91 67.4048 313.96 68.7548 316.91C70.4248 320.58 72.2048 324.19 74.1748 327.7C75.9848 331.07 77.9548 334.38 80.0748 337.59C82.9582 342.034 86.069 346.327 89.3948 350.45C92.3415 354.13 95.4581 357.667 98.7448 361.06C93.5748 337.14 88.9648 312.82 77.2948 291.42C74.1948 285.84 70.5748 280.06 70.7748 273.68Z" fill="#EEEEEE"/>
<path d="M56.8948 227.24C56.7448 228.17 56.5748 229.09 56.4348 230.02C56.3248 230.78 56.2448 231.54 56.1448 232.3C56.2448 231.54 56.3248 230.78 56.4348 230.02C56.5748 229.11 56.7448 228.24 56.8948 227.24Z" fill="#263238"/>
<g opacity="0.6">
<path opacity="0.6" d="M106.495 368.61C107.675 369.68 108.865 370.73 110.085 371.76C110.925 372.48 111.775 373.18 112.655 373.88C111.775 373.18 110.925 372.48 110.085 371.76C108.845 370.73 107.655 369.68 106.495 368.61Z" fill="#263238"/>
</g>
<path d="M302.495 297.93C309.375 293.52 313.575 281.93 306.375 278.06C303.655 276.6 300.225 276.97 297.535 275.45C294.015 273.45 292.885 269.04 292.085 265.09C289.985 254.717 287.881 244.347 285.775 233.98C284.505 227.73 282.275 220.38 276.155 218.6C272.685 217.6 269.015 218.78 265.405 218.92C252.975 219.37 236.855 187.13 224.795 205.51C224.285 199.97 215.285 200.72 211.795 205.08C208.305 209.44 206.795 215.66 201.935 218.32C198.205 220.32 193.255 219.79 190.045 222.58C187.785 224.58 187.045 227.65 186.325 230.58C185.045 236.147 183.761 241.717 182.475 247.29C181.475 251.78 180.475 256.59 182.105 260.89C183.735 265.19 189.345 268.23 193.155 265.64C194.905 264.45 195.875 262.41 197.375 260.92C198.614 259.733 200.171 258.93 201.857 258.608C203.543 258.287 205.286 258.461 206.875 259.11C209.515 260.23 211.425 262.58 213.055 264.95C226.365 284.19 228.515 309.17 225.855 332.41C225.375 336.67 224.745 341.02 225.735 345.19C226.895 350.07 230.205 354.36 230.635 359.36C230.965 363.2 229.555 367.17 230.635 370.86C232.635 377.67 242.405 379.36 248.395 375.56C254.385 371.76 257.305 364.65 259.395 357.86C261.485 351.07 263.235 343.86 267.965 338.57C270.905 335.29 274.865 332.9 277.135 329.13C280.305 323.85 279.515 316.94 282.535 311.57C286.495 304.43 295.565 302.33 302.495 297.93Z" fill="#EEEEEE"/>
<g opacity="0.6">
<path opacity="0.6" d="M57.4948 223.62C57.4348 223.91 57.3648 224.17 57.3248 224.47C57.1548 225.38 57.0248 226.32 56.8748 227.26C57.0248 226.32 57.1548 225.38 57.3248 224.47C57.3848 224.17 57.4948 223.91 57.4948 223.62Z" fill="#263238"/>
</g>
<g opacity="0.6">
<path opacity="0.6" d="M56.1447 232.32C56.0447 233.07 55.9347 233.84 55.8547 234.59C55.9347 233.84 56.0447 233.07 56.1447 232.32Z" fill="#263238"/>
</g>
<path d="M76.0448 245.02L75.1348 244.73C72.4548 244.05 69.2948 243.44 68.1348 240.97C66.7748 238.09 69.0448 234.44 67.6348 231.61C66.8948 230.13 65.3648 229.31 64.1748 228.16C62.9848 227.01 62.1148 225.11 63.1748 223.8C64.0048 222.7 65.7548 222.7 66.7748 221.72C67.1704 221.324 67.4233 220.807 67.4939 220.252C67.5645 219.696 67.4487 219.133 67.1648 218.65C64.8548 214.94 60.7648 221.23 58.9948 222.6C58.542 222.962 58.0678 223.296 57.5748 223.6V223.6C57.5148 223.89 57.4448 224.15 57.4048 224.45C57.2348 225.36 57.1048 226.3 56.9548 227.24C56.8048 228.18 56.6348 229.09 56.4948 230.02C56.3848 230.78 56.3048 231.54 56.2048 232.3C56.1048 233.06 55.9948 233.82 55.9148 234.57C57.4946 235.414 58.9826 236.419 60.3548 237.57C63.1148 239.75 66.1448 242.57 65.8348 246.05C65.6953 246.609 65.7231 247.197 65.9148 247.74C66.2393 248.199 66.7129 248.531 67.2548 248.68C69.7479 249.67 72.3295 250.42 74.9648 250.92" fill="#EEEEEE"/>
<path d="M74.9048 250.98C74.5048 254.1 74.2548 257.39 73.7548 260.48C73.0348 264.95 70.9248 269.17 70.7548 273.68C70.5548 280.06 74.1748 285.84 77.2448 291.44C88.9148 312.84 93.5248 337.16 98.6948 361.08C100.085 362.56 101.505 363.97 102.955 365.35C104.095 366.463 105.251 367.55 106.425 368.61C107.605 369.68 108.795 370.73 110.015 371.76C110.855 372.48 111.705 373.18 112.585 373.88C112.505 373.59 112.415 373.33 112.325 373.04C110.005 365.04 111.325 354.26 119.235 351.62C120.735 351.11 122.385 350.95 123.695 350.04C127.395 347.42 125.645 340.66 129.355 338.04C131.445 336.59 134.295 337.13 136.715 336.43C141.085 335.14 143.165 330.08 143.505 325.52C143.845 320.96 142.985 316.32 144.145 311.9C145.935 305.23 152.225 299.11 150.075 292.54C147.655 285.21 137.565 284.88 131.075 280.8C121.945 275.1 120.675 262.56 115.545 253.08C110.935 244.61 98.8148 234.27 88.3348 235.08C80.7448 235.68 77.5848 239.7 76.0448 244.99" fill="#EEEEEE"/>
<path d="M72.6948 186.35C75.9448 184.29 80.9848 184.72 82.7748 188.13C84.0448 190.57 83.2448 193.53 82.4348 196.13C81.3415 199.67 80.2448 203.213 79.1448 206.76C78.7141 207.797 78.5993 208.938 78.8148 210.04C79.5648 212.5 83.4048 212.61 85.1448 210.76C86.8848 208.91 87.1448 206.07 87.1448 203.51C87.1448 200.95 86.9848 198.21 88.3048 196C91.5948 190.52 100.175 192.66 105.775 189.59C109.245 187.69 111.215 183.95 113.575 180.76C115.935 177.57 119.575 174.57 123.455 175.31C124.765 175.55 125.995 176.22 127.325 176.37C131.215 176.8 134.325 171.47 131.945 168.37C131.375 167.768 130.885 167.096 130.485 166.37C130.318 165.647 130.404 164.889 130.727 164.221C131.051 163.553 131.594 163.017 132.265 162.7C133.622 162.115 135.1 161.864 136.575 161.97C139.965 161.91 143.345 161.88 146.725 161.84C150.465 161.84 155.415 160.59 155.435 156.84C155.435 153.61 151.365 151.57 151.185 148.34C151.24 147.553 151.21 146.761 151.095 145.98C150.385 143.82 147.255 144.19 145.155 144.98C145.01 144.246 144.698 143.556 144.241 142.963C143.785 142.371 143.198 141.892 142.525 141.564C141.853 141.237 141.114 141.07 140.366 141.076C139.618 141.082 138.882 141.262 138.215 141.6C136.025 142.93 135.365 145.74 134.325 148.07C131.855 153.72 126.535 157.5 121.475 161C119.775 162.16 117.875 163.38 115.825 163.19C113.775 163 111.955 160.5 113.145 158.85C113.965 157.71 115.835 157.26 115.855 155.85C115.855 154.1 112.855 153.79 112.505 152.06C114.385 147.38 120.235 146.17 124.875 144.19C130.563 141.768 135.242 137.459 138.125 131.99C138.412 131.586 138.61 131.126 138.707 130.64C138.803 130.154 138.796 129.653 138.685 129.17C138.225 127.85 136.615 127.42 135.215 127.17C131.935 126.64 127.775 126.49 126.135 129.38C125.265 130.93 125.455 132.86 124.815 134.52C122.925 139.45 115.815 139.01 111.155 141.43C109.315 142.36 107.785 143.82 105.815 144.43C103.685 145.1 101.365 144.69 99.1348 144.54C98.7448 144.54 98.3448 144.54 97.9448 144.54C96.3248 146.22 94.7448 147.95 93.2148 149.71C91.6848 151.47 90.2148 153.27 88.7348 155.1C81.8271 163.769 75.8728 173.156 70.9748 183.1C69.2348 186.59 67.6448 190.16 66.1748 193.81C64.7048 197.46 63.3748 201.18 62.1748 204.97C64.1748 202.06 65.3948 198.28 66.3848 195.62C67.7048 192.11 69.4948 188.41 72.6948 186.35Z" fill="#EEEEEE"/>
<g opacity="0.6">
<path opacity="0.6" d="M366.425 272.7C366.735 270.47 366.995 268.25 367.185 266.03C366.995 268.25 366.735 270.47 366.425 272.7C366.375 273.42 366.275 274.13 366.165 274.84C365.675 278.27 365.065 281.64 364.375 284.99C365.065 281.64 365.675 278.27 366.165 274.84C366.275 274.13 366.375 273.42 366.425 272.7Z" fill="#263238"/>
</g>
<g opacity="0.6">
<path opacity="0.6" d="M364.265 219.34C364.718 221.413 365.125 223.487 365.485 225.56C365.125 223.48 364.718 221.407 364.265 219.34Z" fill="#263238"/>
</g>
<path d="M366.425 272.7C366.735 270.47 366.995 268.25 367.185 266.03C367.375 263.81 367.535 261.6 367.625 259.39C367.715 257.6 367.765 255.83 367.775 254.05C367.785 252.27 367.775 250.31 367.775 248.45C367.651 242.894 367.223 237.349 366.495 231.84C366.215 229.74 365.895 227.64 365.495 225.56C365.095 223.48 364.725 221.41 364.275 219.34C363.701 217.76 363.068 216.193 362.375 214.64C355.745 199.77 344.795 187.27 337.215 172.86C334.745 168.18 332.845 164.32 327.495 162.7C319.595 160.28 314.835 164.29 310.205 155.79C308.955 153.51 306.535 151.21 304.085 152.1C304.435 153.83 304.805 155.56 305.155 157.31C305.239 157.675 305.239 158.055 305.155 158.42C304.865 159.56 303.105 159.63 302.215 158.85C301.463 157.922 300.881 156.87 300.495 155.74C299.947 154.773 299.205 153.931 298.314 153.267C297.423 152.603 296.404 152.132 295.321 151.884C294.239 151.636 293.116 151.615 292.025 151.825C290.934 152.034 289.899 152.469 288.985 153.1C289.024 152.312 288.855 151.528 288.495 150.826C288.135 150.124 287.597 149.529 286.935 149.1C286.71 149.822 286.335 150.489 285.835 151.056C285.335 151.623 284.721 152.078 284.033 152.392C283.345 152.705 282.598 152.87 281.842 152.875C281.086 152.88 280.337 152.725 279.645 152.42C279.395 150.86 282.115 150.98 283.225 149.84C284.335 148.7 283.465 146.94 282.515 145.78C279.928 142.788 276.39 140.778 272.495 140.09C270.025 139.69 267.285 139.77 265.315 138.18C264.175 137.26 263.465 135.91 262.315 135.01C259.815 133.08 256.205 134.01 253.245 135.13C249.185 136.67 244.935 138.73 243.025 142.63C241.115 146.53 243.255 152.45 247.595 152.55C248.695 152.55 249.895 152.21 250.905 152.66C252.365 153.29 252.795 155.16 252.695 156.74C252.595 158.32 252.175 159.95 252.745 161.43C253.315 162.91 255.405 163.92 256.455 162.74C258.745 161.12 258.955 157.88 258.835 155.08C258.715 152.28 258.625 149.14 260.565 147.15C262.505 145.16 267.085 146.54 266.365 149.24C265.935 150.83 263.925 151.74 263.765 153.39C263.605 155.04 265.505 156.24 267.175 156.39C268.845 156.54 270.635 156.22 272.175 156.87C273.715 157.52 274.745 159.82 273.395 160.87C271.025 162.87 266.305 158.17 264.835 160.87C264.435 161.56 264.605 162.44 264.425 163.21C263.875 165.59 260.735 166.03 258.295 165.98C255.855 165.93 253.295 165.78 251.235 164.43C249.175 163.08 248.125 160.01 249.665 158.13C248.575 157.07 246.575 157.68 245.715 158.96C244.994 160.316 244.678 161.85 244.805 163.38C242.335 162.45 239.745 164.27 237.995 166.2C236.245 168.13 234.445 170.44 231.865 170.84C229.285 171.24 225.975 169.71 224.345 171.78C222.225 174.48 226.595 178.91 224.455 181.58C223.235 183.08 220.895 182.69 218.955 182.94C213.825 183.62 211.065 190.58 213.865 194.94C216.665 199.3 223.415 200.03 227.505 196.87C230.345 194.7 231.865 191.29 234.095 188.51C236.325 185.73 240.095 183.51 243.335 184.97C244.569 185.65 245.654 186.571 246.525 187.68C247.965 189.29 249.415 190.9 250.855 192.54C251.775 193.54 252.775 194.84 252.475 196.2C252.215 197.29 251.235 198.02 250.715 199C249.255 201.82 253.145 205.25 256.075 204C259.005 202.75 259.895 198.67 258.425 195.85C256.425 191.96 250.885 189.36 251.655 185.02C254.945 183.02 259.215 186.23 260.435 189.89C261.655 193.55 261.135 197.55 262.075 201.26C263.015 204.97 266.605 208.7 270.235 207.47C269.795 204.31 269.365 201.17 268.925 198.02C271.315 196.72 273.105 201.78 275.795 201.37C277.435 201.11 277.955 198.88 277.495 197.26C277.035 195.64 276.005 194.19 275.955 192.51C275.895 189.45 279.615 187.26 282.555 188.18C285.495 189.1 287.245 192.29 287.375 195.34C287.312 196.554 287.406 197.771 287.655 198.96C288.445 201.47 291.255 202.61 293.515 203.96C295.775 205.31 297.955 208.08 296.595 210.34C295.985 211.34 294.735 212.17 294.965 213.34C295.195 214.51 296.555 214.97 296.415 216C296.285 216.68 295.505 217 294.835 217.22C293.115 217.65 291.325 217.61 289.645 218.15C287.965 218.69 286.325 219.97 286.205 221.7C286.045 224.18 288.785 225.78 289.865 228.01C290.945 230.24 290.345 232.69 290.865 235.01C291.355 237.16 292.745 239.01 293.795 240.92C297.055 247.05 296.985 254.32 298.015 261.17C298.475 264.27 299.615 267.81 302.565 268.81C304.239 269.19 305.984 269.107 307.615 268.57C312.245 267.46 317.075 266.26 320.615 263.15C324.155 260.04 326.095 254.35 323.435 250.39C323.143 249.848 322.662 249.432 322.085 249.22C321.247 249.154 320.407 249.317 319.655 249.69C317.275 250.4 314.655 249.15 313.035 247.23C311.415 245.31 310.635 242.91 309.845 240.54C308.995 237.94 308.155 235.32 307.275 232.69C308.905 231.69 311.135 232.52 312.455 233.94C313.775 235.36 314.405 237.22 315.395 238.87C318.395 243.96 324.105 246.87 329.815 248.36C331.294 248.657 332.721 249.176 334.045 249.9C338.095 252.51 338.415 259.09 342.805 261.13C344.025 261.7 345.455 261.83 346.575 262.57C348.265 263.69 348.875 265.88 349.135 267.9C349.615 271.65 349.415 275.49 350.435 279.15C351.455 282.81 354.045 286.35 357.765 286.94C358.938 287.079 360.128 286.985 361.266 286.665C362.403 286.344 363.467 285.802 364.395 285.07C365.085 281.72 365.695 278.35 366.185 274.92C366.275 274.13 366.375 273.42 366.425 272.7Z" fill="#EEEEEE"/>
<path d="M294.785 328.04C292.415 328.16 291.785 329.45 290.255 330.98C288.305 332.98 285.645 334.85 283.835 336.83C280.775 340.19 282.205 346.33 278.445 348.98C277.616 349.421 276.812 349.905 276.035 350.43C275.312 351.167 274.906 352.158 274.906 353.19C274.906 354.222 275.312 355.213 276.035 355.95C276.801 356.647 277.753 357.106 278.776 357.273C279.798 357.44 280.846 357.307 281.795 356.89C283.683 356.013 285.187 354.477 286.025 352.57C286.665 351.23 287.145 349.68 288.395 348.87C290.525 347.48 293.295 349.14 295.845 349.15C306.695 349.24 305.165 327.51 294.785 328.04Z" fill="#EEEEEE"/>
<g opacity="0.3">
<path opacity="0.3" d="M302.495 297.93C309.375 293.52 313.575 281.93 306.375 278.06C303.655 276.6 300.225 276.97 297.535 275.45C294.015 273.45 292.885 269.04 292.085 265.09C289.985 254.717 287.881 244.347 285.775 233.98C284.505 227.73 282.275 220.38 276.155 218.6C272.685 217.6 269.015 218.78 265.405 218.92C252.975 219.37 236.855 187.13 224.795 205.51C224.285 199.97 215.285 200.72 211.795 205.08C208.305 209.44 206.795 215.66 201.935 218.32C198.205 220.32 193.255 219.79 190.045 222.58C187.785 224.58 187.045 227.65 186.325 230.58C185.045 236.147 183.761 241.717 182.475 247.29C181.475 251.78 180.475 256.59 182.105 260.89C183.735 265.19 189.345 268.23 193.155 265.64C194.905 264.45 195.875 262.41 197.375 260.92C198.614 259.733 200.171 258.93 201.857 258.608C203.543 258.287 205.286 258.461 206.875 259.11C209.515 260.23 211.425 262.58 213.055 264.95C226.365 284.19 228.515 309.17 225.855 332.41C225.375 336.67 224.745 341.02 225.735 345.19C226.895 350.07 230.205 354.36 230.635 359.36C230.965 363.2 229.555 367.17 230.635 370.86C232.635 377.67 242.405 379.36 248.395 375.56C254.385 371.76 257.305 364.65 259.395 357.86C261.485 351.07 263.235 343.86 267.965 338.57C270.905 335.29 274.865 332.9 277.135 329.13C280.305 323.85 279.515 316.94 282.535 311.57C286.495 304.43 295.565 302.33 302.495 297.93Z" fill="black"/>
</g>
<path opacity="0.3" d="M98.7148 361.08C100.105 362.56 101.525 363.97 102.975 365.35C104.115 366.463 105.271 367.55 106.445 368.61C107.625 369.68 108.815 370.73 110.035 371.76C110.875 372.48 111.725 373.18 112.605 373.88C112.525 373.59 112.435 373.33 112.345 373.04C110.025 365.04 111.345 354.26 119.255 351.62C120.755 351.11 122.405 350.95 123.715 350.04C127.415 347.42 125.665 340.66 129.375 338.04C131.465 336.59 134.315 337.13 136.735 336.43C141.105 335.14 143.185 330.08 143.525 325.52C143.865 320.96 143.005 316.32 144.165 311.9C145.955 305.23 152.245 299.11 150.095 292.54C147.675 285.21 137.585 284.88 131.095 280.8C121.965 275.1 120.695 262.56 115.565 253.08C110.955 244.61 98.8348 234.27 88.3548 235.08C80.7648 235.68 77.6048 239.7 76.0648 244.99L75.1548 244.7C72.4748 244.02 69.3148 243.41 68.1548 240.94C66.7948 238.06 69.0648 234.41 67.6548 231.58C66.9148 230.1 65.3848 229.28 64.1948 228.13C63.0048 226.98 62.1348 225.08 63.1948 223.77C64.0248 222.67 65.7748 222.67 66.7948 221.69C67.1904 221.294 67.4433 220.777 67.5139 220.222C67.5845 219.666 67.4687 219.103 67.1848 218.62C64.8748 214.91 60.7848 221.2 59.0148 222.57C58.562 222.932 58.0878 223.266 57.5948 223.57V223.57C57.5348 223.86 57.4648 224.12 57.4248 224.42C57.2548 225.33 57.1248 226.27 56.9748 227.21C56.8248 228.15 56.6548 229.06 56.5148 229.99C56.4048 230.75 56.3248 231.51 56.2248 232.27C56.1248 233.03 56.0148 233.79 55.9348 234.54C55.9348 234.91 55.8348 235.25 55.8048 235.62C53.9378 252.527 54.8465 269.626 58.4948 286.24C60.1268 293.617 62.3096 300.86 65.0248 307.91C66.1348 310.91 67.4048 313.96 68.7548 316.91C70.4248 320.58 72.2048 324.19 74.1748 327.7C75.9848 331.07 77.9548 334.38 80.0748 337.59C82.9582 342.034 86.069 346.327 89.3948 350.45C92.3414 354.13 95.4581 357.667 98.7448 361.06" fill="black"/>
<g opacity="0.3">
<path opacity="0.3" d="M72.6948 186.35C75.9448 184.29 80.9848 184.72 82.7748 188.13C84.0448 190.57 83.2448 193.53 82.4348 196.13C81.3415 199.67 80.2448 203.213 79.1448 206.76C78.7141 207.797 78.5993 208.938 78.8148 210.04C79.5648 212.5 83.4048 212.61 85.1448 210.76C86.8848 208.91 87.1448 206.07 87.1448 203.51C87.1448 200.95 86.9848 198.21 88.3048 196C91.5948 190.52 100.175 192.66 105.775 189.59C109.245 187.69 111.215 183.95 113.575 180.76C115.935 177.57 119.575 174.57 123.455 175.31C124.765 175.55 125.995 176.22 127.325 176.37C131.215 176.8 134.325 171.47 131.945 168.37C131.375 167.768 130.885 167.096 130.485 166.37C130.318 165.647 130.404 164.889 130.727 164.221C131.051 163.553 131.594 163.017 132.265 162.7C133.622 162.115 135.1 161.864 136.575 161.97C139.965 161.91 143.345 161.88 146.725 161.84C150.465 161.84 155.415 160.59 155.435 156.84C155.435 153.61 151.365 151.57 151.185 148.34C151.24 147.553 151.21 146.761 151.095 145.98C150.385 143.82 147.255 144.19 145.155 144.98C145.01 144.246 144.698 143.556 144.241 142.963C143.785 142.371 143.198 141.892 142.525 141.564C141.853 141.237 141.114 141.07 140.366 141.076C139.618 141.082 138.882 141.262 138.215 141.6C136.025 142.93 135.365 145.74 134.325 148.07C131.855 153.72 126.535 157.5 121.475 161C119.775 162.16 117.875 163.38 115.825 163.19C113.775 163 111.955 160.5 113.145 158.85C113.965 157.71 115.835 157.26 115.855 155.85C115.855 154.1 112.855 153.79 112.505 152.06C114.385 147.38 120.235 146.17 124.875 144.19C130.563 141.768 135.242 137.459 138.125 131.99C138.412 131.586 138.61 131.126 138.707 130.64C138.803 130.154 138.796 129.653 138.685 129.17C138.225 127.85 136.615 127.42 135.215 127.17C131.935 126.64 127.775 126.49 126.135 129.38C125.265 130.93 125.455 132.86 124.815 134.52C122.925 139.45 115.815 139.01 111.155 141.43C109.315 142.36 107.785 143.82 105.815 144.43C103.685 145.1 101.365 144.69 99.1348 144.54C98.7448 144.54 98.3448 144.54 97.9448 144.54C96.3248 146.22 94.7448 147.95 93.2148 149.71C91.6848 151.47 90.2148 153.27 88.7348 155.1C81.8271 163.769 75.8728 173.156 70.9748 183.1C69.2348 186.59 67.6448 190.16 66.1748 193.81C64.7048 197.46 63.3748 201.18 62.1748 204.97C64.1748 202.06 65.3948 198.28 66.3848 195.62C67.7048 192.11 69.4948 188.41 72.6948 186.35Z" fill="black"/>
</g>
<g opacity="0.3">
<path opacity="0.3" d="M366.425 272.7C366.735 270.47 366.995 268.25 367.185 266.03C367.375 263.81 367.535 261.6 367.625 259.39C367.715 257.6 367.765 255.83 367.775 254.05C367.785 252.27 367.775 250.31 367.775 248.45C367.651 242.894 367.224 237.349 366.495 231.84C366.215 229.74 365.895 227.64 365.495 225.56C365.095 223.48 364.725 221.41 364.275 219.34C363.701 217.76 363.068 216.193 362.375 214.64C355.745 199.77 344.795 187.27 337.215 172.86C334.745 168.18 332.845 164.32 327.495 162.7C319.595 160.28 314.835 164.29 310.205 155.79C308.955 153.51 306.535 151.21 304.085 152.1C304.435 153.83 304.805 155.56 305.155 157.31C305.239 157.675 305.239 158.055 305.155 158.42C304.865 159.56 303.105 159.63 302.215 158.85C301.463 157.922 300.881 156.87 300.495 155.74C299.947 154.773 299.205 153.931 298.314 153.267C297.423 152.603 296.404 152.132 295.321 151.884C294.239 151.636 293.116 151.615 292.025 151.825C290.934 152.034 289.899 152.469 288.985 153.1C289.024 152.312 288.855 151.528 288.495 150.826C288.135 150.124 287.597 149.529 286.935 149.1C286.71 149.822 286.335 150.489 285.835 151.056C285.335 151.623 284.721 152.078 284.033 152.392C283.345 152.705 282.598 152.87 281.842 152.875C281.086 152.88 280.337 152.725 279.645 152.42C279.395 150.86 282.115 150.98 283.225 149.84C284.335 148.7 283.465 146.94 282.515 145.78C279.928 142.788 276.39 140.778 272.495 140.09C270.025 139.69 267.285 139.77 265.315 138.18C264.175 137.26 263.465 135.91 262.315 135.01C259.815 133.08 260.775 137.17 257.815 138.3C253.755 139.84 251.555 140.3 249.635 144.2C249.251 144.982 248.917 145.787 248.635 146.61C248.243 147.672 248.227 148.837 248.591 149.909C248.955 150.982 249.677 151.896 250.635 152.5L250.935 152.66C252.395 153.29 252.825 155.16 252.725 156.74C252.625 158.32 252.205 159.95 252.775 161.43C253.345 162.91 255.435 163.92 256.485 162.74C258.775 161.12 258.985 157.88 258.865 155.08C258.745 152.28 258.655 149.14 260.595 147.15C262.535 145.16 267.115 146.54 266.395 149.24C265.965 150.83 263.955 151.74 263.795 153.39C263.635 155.04 265.535 156.24 267.205 156.39C268.875 156.54 270.665 156.22 272.205 156.87C273.745 157.52 274.775 159.82 273.425 160.87C271.055 162.87 266.335 158.17 264.865 160.87C264.465 161.56 264.635 162.44 264.455 163.21C263.905 165.59 260.765 166.03 258.325 165.98C255.885 165.93 253.325 165.78 251.265 164.43C249.205 163.08 248.155 160.01 249.695 158.13C248.605 157.07 246.605 157.68 245.745 158.96C245.024 160.316 244.708 161.85 244.835 163.38C242.365 162.45 239.775 164.27 238.025 166.2C236.275 168.13 234.475 170.44 231.895 170.84C229.315 171.24 226.005 169.71 224.375 171.78C222.255 174.48 226.625 178.91 224.485 181.58C223.265 183.08 220.925 182.69 218.985 182.94C213.855 183.62 211.095 190.58 213.895 194.94C216.695 199.3 223.445 200.03 227.535 196.87C230.375 194.7 231.895 191.29 234.125 188.51C236.355 185.73 240.125 183.51 243.365 184.97C244.599 185.65 245.684 186.572 246.555 187.68C247.995 189.29 249.445 190.9 250.885 192.54C251.805 193.54 252.805 194.84 252.505 196.2C252.245 197.29 251.265 198.02 250.745 199C249.285 201.82 253.175 205.25 256.105 204C259.035 202.75 259.925 198.67 258.455 195.85C256.455 191.96 250.915 189.36 251.685 185.02C254.975 183.02 259.245 186.23 260.465 189.89C261.685 193.55 261.165 197.55 262.105 201.26C263.045 204.97 266.635 208.7 270.265 207.47C269.825 204.31 269.395 201.17 268.955 198.02C271.345 196.72 273.135 201.78 275.825 201.37C277.465 201.11 277.985 198.88 277.525 197.26C277.065 195.64 276.035 194.19 275.985 192.51C275.925 189.45 279.645 187.26 282.585 188.18C285.525 189.1 287.275 192.29 287.405 195.34C287.342 196.554 287.436 197.771 287.685 198.96C288.475 201.47 291.285 202.61 293.545 203.96C295.805 205.31 297.985 208.08 296.625 210.34C296.015 211.34 294.765 212.17 294.995 213.34C295.225 214.51 296.585 214.97 296.445 216C296.315 216.68 295.535 217 294.865 217.22C293.145 217.65 291.355 217.61 289.675 218.15C287.995 218.69 286.355 219.97 286.235 221.7C286.075 224.18 288.815 225.78 289.895 228.01C290.975 230.24 290.375 232.69 290.895 235.01C291.385 237.16 292.775 239.01 293.825 240.92C297.085 247.05 297.015 254.32 298.045 261.17C298.505 264.27 299.645 267.81 302.595 268.81C304.269 269.19 306.014 269.107 307.645 268.57C312.275 267.46 317.105 266.26 320.645 263.15C324.185 260.04 326.125 254.35 323.465 250.39C323.173 249.848 322.693 249.432 322.115 249.22C321.277 249.154 320.437 249.317 319.685 249.69C317.305 250.4 314.685 249.15 313.065 247.23C311.445 245.31 310.665 242.91 309.875 240.54C309.025 237.94 308.185 235.32 307.305 232.69C308.935 231.69 311.165 232.52 312.485 233.94C313.805 235.36 314.435 237.22 315.425 238.87C318.425 243.96 324.135 246.87 329.845 248.36C331.325 248.657 332.751 249.176 334.075 249.9C338.125 252.51 338.445 259.09 342.835 261.13C344.055 261.7 345.485 261.83 346.605 262.57C348.295 263.69 348.905 265.88 349.165 267.9C349.645 271.65 349.445 275.49 350.465 279.15C351.485 282.81 354.075 286.35 357.795 286.94C358.969 287.079 360.158 286.985 361.296 286.665C362.433 286.344 363.497 285.802 364.425 285.07C365.115 281.72 365.725 278.35 366.215 274.92C366.275 274.13 366.375 273.42 366.425 272.7Z" fill="black"/>
</g>
<g opacity="0.3">
<path opacity="0.3" d="M294.785 328.04C292.415 328.16 291.785 329.45 290.255 330.98C288.305 332.98 285.645 334.85 283.835 336.83C280.775 340.19 282.205 346.33 278.445 348.98C277.616 349.421 276.812 349.905 276.035 350.43C275.312 351.167 274.906 352.158 274.906 353.19C274.906 354.222 275.312 355.213 276.035 355.95C276.801 356.647 277.753 357.106 278.776 357.273C279.798 357.44 280.846 357.307 281.795 356.89C283.683 356.013 285.187 354.477 286.025 352.57C286.665 351.23 287.145 349.68 288.395 348.87C290.525 347.48 293.295 349.14 295.845 349.15C306.695 349.24 305.165 327.51 294.785 328.04Z" fill="black"/>
</g>
<path d="M77.8748 102.47C75.8083 101.833 73.6183 101.706 71.492 102.099C69.3656 102.493 67.3662 103.396 65.6648 104.73C65.6648 104.73 57.4348 111.02 60.6648 120.25C61.8849 123.636 64.2755 126.473 67.4048 128.25C68.5842 128.936 69.8307 129.498 71.1248 129.93C75.6048 131.38 88.6248 134.7 88.6248 134.7L90.0548 133.6C89.9448 129.6 88.0548 117.6 87.3848 113.76C86.4948 109.01 83.0948 104.02 77.8748 102.47ZM80.8748 121.77C79.4849 122.835 77.8105 123.463 76.0633 123.576C74.3162 123.689 72.5749 123.281 71.0597 122.404C69.5445 121.527 68.3235 120.22 67.5511 118.649C66.7787 117.077 66.4897 115.312 66.7207 113.577C66.9516 111.842 67.6921 110.214 68.8484 108.899C70.0048 107.584 71.525 106.642 73.2169 106.192C74.9087 105.742 76.6961 105.803 78.353 106.369C80.0098 106.935 81.4616 107.979 82.5248 109.37C83.2313 110.292 83.7491 111.345 84.0486 112.467C84.3481 113.59 84.4234 114.761 84.2701 115.912C84.1169 117.064 83.7381 118.174 83.1555 119.179C82.5729 120.184 81.7979 121.065 80.8748 121.77V121.77Z" fill="#EEEEEE"/>
<path opacity="0.4" d="M77.8748 102.47C75.8083 101.833 73.6183 101.706 71.492 102.099C69.3656 102.493 67.3662 103.396 65.6648 104.73C65.6648 104.73 57.4348 111.02 60.6648 120.25C61.8849 123.636 64.2755 126.473 67.4048 128.25C68.5842 128.936 69.8307 129.498 71.1248 129.93C75.6048 131.38 88.6248 134.7 88.6248 134.7L90.0548 133.6C89.9448 129.6 88.0548 117.6 87.3848 113.76C86.4948 109.01 83.0948 104.02 77.8748 102.47ZM80.8748 121.77C79.4849 122.835 77.8105 123.463 76.0633 123.576C74.3162 123.689 72.5749 123.281 71.0597 122.404C69.5445 121.527 68.3235 120.22 67.5511 118.649C66.7787 117.077 66.4897 115.312 66.7207 113.577C66.9516 111.842 67.6921 110.214 68.8484 108.899C70.0048 107.584 71.525 106.642 73.2169 106.192C74.9087 105.742 76.6961 105.803 78.353 106.369C80.0098 106.935 81.4616 107.979 82.5248 109.37C83.2313 110.292 83.7491 111.345 84.0486 112.467C84.3481 113.59 84.4234 114.761 84.2701 115.912C84.1169 117.064 83.7381 118.174 83.1555 119.179C82.5729 120.184 81.7979 121.065 80.8748 121.77V121.77Z" fill="black"/>
<path d="M79.3648 101.42C77.3 100.783 75.1115 100.656 72.9867 101.049C70.862 101.443 68.8643 102.346 67.1648 103.68C67.1648 103.68 58.9348 109.97 62.1648 119.2C63.3849 122.586 65.7755 125.423 68.9048 127.2C70.0846 127.892 71.3351 128.455 72.6348 128.88C77.1048 130.33 90.1248 133.65 90.1248 133.65C90.1248 133.65 89.7248 117.3 88.8848 112.71C87.9748 107.96 84.5848 102.98 79.3648 101.42ZM80.9248 121.82C80.0047 122.539 78.9506 123.067 77.8239 123.374C76.6972 123.68 75.5207 123.759 74.3633 123.606C73.2058 123.452 72.0906 123.069 71.0829 122.479C70.0753 121.889 69.1954 121.104 68.4948 120.17C67.4302 118.78 66.8018 117.106 66.689 115.359C66.5763 113.612 66.9842 111.87 67.8613 110.355C68.7384 108.84 70.0452 107.619 71.6164 106.846C73.1875 106.074 74.9525 105.785 76.688 106.016C78.4234 106.247 80.0514 106.987 81.3659 108.144C82.6805 109.3 83.6225 110.82 84.0728 112.512C84.5232 114.204 84.4616 115.992 83.8959 117.648C83.3302 119.305 82.2858 120.757 80.8948 121.82H80.9248Z" fill="#EEEEEE"/>
<path d="M70.1248 107.71C68.6821 108.829 67.6198 110.366 67.0829 112.111C66.546 113.856 66.5606 115.724 67.1248 117.46C66.7503 115.848 66.9141 114.157 67.5912 112.646C68.2682 111.135 69.4213 109.887 70.8742 109.094C72.3271 108.3 73.9999 108.004 75.637 108.25C77.2741 108.497 78.7855 109.272 79.9402 110.459C81.0949 111.645 81.8295 113.177 82.0316 114.82C82.2338 116.463 81.8924 118.128 81.0596 119.558C80.2269 120.989 78.9485 122.108 77.42 122.744C75.8914 123.38 74.1967 123.498 72.5948 123.08C74.0401 123.593 75.5938 123.721 77.1035 123.452C78.6132 123.183 80.0272 122.527 81.2069 121.547C82.3865 120.567 83.2914 119.298 83.8327 117.863C84.374 116.428 84.5331 114.877 84.2946 113.363C84.0561 111.848 83.4281 110.421 82.4721 109.222C81.5161 108.023 80.265 107.093 78.8414 106.523C77.4177 105.953 75.8704 105.763 74.3511 105.971C72.8318 106.179 71.3927 106.778 70.1748 107.71H70.1248Z" fill="#EEEEEE"/>
<path opacity="0.4" d="M70.1248 107.71C68.6821 108.829 67.6198 110.366 67.0829 112.111C66.546 113.856 66.5606 115.724 67.1248 117.46C66.7503 115.848 66.9141 114.157 67.5912 112.646C68.2682 111.135 69.4213 109.887 70.8742 109.094C72.3271 108.3 73.9999 108.004 75.637 108.25C77.2741 108.497 78.7855 109.272 79.9402 110.459C81.0949 111.645 81.8295 113.177 82.0316 114.82C82.2338 116.463 81.8924 118.128 81.0596 119.558C80.2269 120.989 78.9485 122.108 77.42 122.744C75.8914 123.38 74.1967 123.498 72.5948 123.08C74.0401 123.593 75.5938 123.721 77.1035 123.452C78.6132 123.183 80.0272 122.527 81.2069 121.547C82.3865 120.567 83.2914 119.298 83.8327 117.863C84.374 116.428 84.5331 114.877 84.2946 113.363C84.0561 111.848 83.4281 110.421 82.4721 109.222C81.5161 108.023 80.265 107.093 78.8414 106.523C77.4177 105.953 75.8704 105.763 74.3511 105.971C72.8318 106.179 71.3927 106.778 70.1748 107.71H70.1248Z" fill="black"/>
<path d="M411.605 223.81C413.123 222.27 414.246 220.385 414.877 218.316C415.507 216.247 415.627 214.056 415.225 211.93C415.225 211.93 413.435 201.73 403.765 200.31C400.196 199.826 396.572 200.643 393.555 202.61C392.398 203.334 391.322 204.179 390.345 205.13C387.005 208.44 378.055 218.46 378.055 218.46L378.365 220.25C381.945 221.98 393.525 225.88 397.205 227.01C401.845 228.43 407.825 227.72 411.605 223.81ZM393.095 217.57C392.793 215.846 393.009 214.072 393.716 212.471C394.422 210.869 395.588 209.514 397.065 208.575C398.542 207.636 400.264 207.156 402.013 207.196C403.763 207.236 405.462 207.794 406.894 208.799C408.327 209.804 409.43 211.211 410.063 212.842C410.696 214.474 410.831 216.257 410.451 217.965C410.071 219.673 409.193 221.231 407.928 222.44C406.663 223.65 405.068 224.457 403.345 224.76C402.199 224.963 401.025 224.938 399.89 224.686C398.754 224.434 397.68 223.96 396.728 223.293C395.775 222.625 394.964 221.775 394.341 220.793C393.718 219.811 393.294 218.716 393.095 217.57V217.57Z" fill="#EEEEEE"/>
<path opacity="0.4" d="M411.605 223.81C413.123 222.27 414.246 220.385 414.877 218.316C415.507 216.247 415.627 214.056 415.225 211.93C415.225 211.93 413.435 201.73 403.765 200.31C400.196 199.826 396.572 200.643 393.555 202.61C392.398 203.334 391.322 204.179 390.345 205.13C387.005 208.44 378.055 218.46 378.055 218.46L378.365 220.25C381.945 221.98 393.525 225.88 397.205 227.01C401.845 228.43 407.825 227.72 411.605 223.81ZM393.095 217.57C392.793 215.846 393.009 214.072 393.716 212.471C394.422 210.869 395.588 209.514 397.065 208.575C398.542 207.636 400.264 207.156 402.013 207.196C403.763 207.236 405.462 207.794 406.894 208.799C408.327 209.804 409.43 211.211 410.063 212.842C410.696 214.474 410.831 216.257 410.451 217.965C410.071 219.673 409.193 221.231 407.928 222.44C406.663 223.65 405.068 224.457 403.345 224.76C402.199 224.963 401.025 224.938 399.89 224.686C398.754 224.434 397.68 223.96 396.728 223.293C395.775 222.625 394.964 221.775 394.341 220.793C393.718 219.811 393.294 218.716 393.095 217.57V217.57Z" fill="black"/>
<path d="M411.855 225.61C413.375 224.073 414.5 222.19 415.134 220.123C415.768 218.055 415.891 215.866 415.495 213.74C415.495 213.74 413.695 203.53 404.035 202.12C400.464 201.642 396.84 202.454 393.815 204.41C392.662 205.138 391.589 205.986 390.615 206.94C387.245 210.24 378.295 220.24 378.295 220.24C378.295 220.24 392.995 227.42 397.455 228.79C402.085 230.24 408.065 229.53 411.855 225.61ZM393.025 217.61C392.721 215.886 392.935 214.111 393.64 212.509C394.346 210.907 395.51 209.55 396.986 208.609C398.463 207.669 400.185 207.188 401.935 207.226C403.685 207.265 405.384 207.821 406.818 208.826C408.252 209.83 409.355 211.237 409.989 212.868C410.623 214.5 410.759 216.283 410.38 217.992C410.001 219.701 409.123 221.259 407.859 222.469C406.594 223.679 404.999 224.487 403.275 224.79C402.129 225 400.953 224.979 399.814 224.73C398.676 224.481 397.599 224.009 396.645 223.34C395.692 222.671 394.88 221.819 394.259 220.833C393.637 219.848 393.218 218.749 393.025 217.6V217.61Z" fill="#EEEEEE"/>
<path d="M410.495 214.51C410.177 212.71 409.309 211.052 408.011 209.764C406.713 208.477 405.048 207.623 403.245 207.32C404.849 207.732 406.274 208.658 407.302 209.956C408.33 211.255 408.905 212.854 408.938 214.51C408.972 216.166 408.462 217.787 407.486 219.126C406.511 220.464 405.124 221.446 403.538 221.922C401.952 222.398 400.253 222.342 398.702 221.761C397.151 221.18 395.833 220.107 394.949 218.707C394.065 217.306 393.665 215.654 393.808 214.004C393.952 212.355 394.632 210.797 395.745 209.57C394.623 210.616 393.792 211.935 393.333 213.399C392.875 214.863 392.805 216.421 393.13 217.92C393.455 219.419 394.164 220.807 395.187 221.95C396.211 223.092 397.514 223.949 398.968 224.436C400.423 224.923 401.979 225.024 403.484 224.728C404.989 224.433 406.391 223.751 407.554 222.75C408.716 221.75 409.598 220.464 410.114 219.019C410.629 217.575 410.761 216.021 410.495 214.51V214.51Z" fill="#EEEEEE"/>
<path opacity="0.4" d="M410.495 214.51C410.177 212.71 409.309 211.052 408.011 209.764C406.713 208.477 405.048 207.623 403.245 207.32C404.849 207.732 406.274 208.658 407.302 209.956C408.33 211.255 408.905 212.854 408.938 214.51C408.972 216.166 408.462 217.787 407.486 219.126C406.511 220.464 405.124 221.446 403.538 221.922C401.952 222.398 400.253 222.342 398.702 221.761C397.151 221.18 395.833 220.107 394.949 218.707C394.065 217.306 393.665 215.654 393.808 214.004C393.952 212.355 394.632 210.797 395.745 209.57C394.623 210.616 393.792 211.935 393.333 213.399C392.875 214.863 392.805 216.421 393.13 217.92C393.455 219.419 394.164 220.807 395.187 221.95C396.211 223.092 397.514 223.949 398.968 224.436C400.423 224.923 401.979 225.024 403.484 224.728C404.989 224.433 406.391 223.751 407.554 222.75C408.716 221.75 409.598 220.464 410.114 219.019C410.629 217.575 410.761 216.021 410.495 214.51V214.51Z" fill="black"/>
<path d="M50.3747 378.24C50.0841 380.385 50.3181 382.568 51.0566 384.602C51.7951 386.637 53.016 388.461 54.6147 389.92C54.6147 389.92 62.1747 397 70.7447 392.32C73.8945 390.554 76.3044 387.715 77.5347 384.32C78.0078 383.043 78.343 381.719 78.5347 380.37C79.2247 375.72 80.3547 362.37 80.3547 362.37L79.0347 361.13C75.1347 361.9 63.5347 365.73 59.9147 367.04C55.4047 368.71 51.0447 372.87 50.3747 378.24ZM68.9147 372.11C70.1936 373.306 71.089 374.854 71.4876 376.559C71.8862 378.264 71.7701 380.049 71.1541 381.688C70.538 383.327 69.4496 384.746 68.0267 385.767C66.6037 386.787 64.9101 387.362 63.1601 387.419C61.4101 387.477 59.6825 387.014 58.1957 386.089C56.7089 385.164 55.5299 383.819 54.8078 382.224C54.0856 380.629 53.8528 378.856 54.1389 377.128C54.4249 375.401 55.2169 373.797 56.4147 372.52C58.0229 370.814 60.2424 369.816 62.5861 369.744C64.9297 369.673 67.2058 370.535 68.9147 372.14V372.11Z" fill="#263238"/>
<path d="M49.0948 376.98C48.8042 379.123 49.0382 381.305 49.7767 383.338C50.5153 385.37 51.7363 387.193 53.3348 388.65C53.3348 388.65 60.8948 395.73 69.4648 391.06C72.6175 389.298 75.0284 386.457 76.2548 383.06C76.7313 381.767 77.0666 380.426 77.2548 379.06C77.9448 374.41 79.0748 361.06 79.0748 361.06C79.0748 361.06 63.0148 364.14 58.6348 365.73C54.1248 367.41 49.7648 371.57 49.0948 376.98ZM68.9548 372.08C70.2337 373.276 71.1291 374.824 71.5277 376.529C71.9263 378.234 71.8103 380.019 71.1942 381.658C70.5781 383.297 69.4898 384.716 68.0668 385.737C66.6438 386.757 64.9502 387.332 63.2002 387.389C61.4503 387.447 59.7226 386.984 58.2358 386.059C56.749 385.134 55.57 383.789 54.8479 382.194C54.1257 380.599 53.893 378.826 54.179 377.098C54.465 375.371 55.2571 373.767 56.4548 372.49C57.2448 371.636 58.1965 370.947 59.2546 370.464C60.3128 369.981 61.4564 369.712 62.6192 369.674C63.7819 369.636 64.9406 369.829 66.0282 370.242C67.1158 370.655 68.1105 371.28 68.9548 372.08V372.08Z" fill="#455A64"/>
<path d="M56.8247 385.06C58.1591 386.309 59.8474 387.114 61.6576 387.364C63.4678 387.615 65.3112 387.299 66.9347 386.46C65.4048 387.093 63.7096 387.208 62.1083 386.787C60.507 386.365 59.0876 385.432 58.0672 384.128C57.0467 382.824 56.4813 381.221 56.4574 379.566C56.4334 377.91 56.9522 376.292 57.9345 374.959C58.9168 373.626 60.3085 372.652 61.8969 372.184C63.4854 371.717 65.1832 371.783 66.7308 372.371C68.2785 372.96 69.5909 374.039 70.4674 375.443C71.3439 376.848 71.7364 378.501 71.5847 380.15C71.8537 378.64 71.7256 377.086 71.2129 375.64C70.7002 374.195 69.8206 372.907 68.6604 371.904C67.5001 370.901 66.0991 370.216 64.5946 369.918C63.0901 369.619 61.5338 369.717 60.0784 370.201C58.6229 370.685 57.3183 371.539 56.2925 372.679C55.2666 373.82 54.5547 375.207 54.2267 376.705C53.8986 378.204 53.9656 379.762 54.421 381.226C54.8765 382.691 55.7048 384.012 56.8247 385.06V385.06Z" fill="#263238"/>
<path d="M356.065 125.64C356.273 124.12 356.108 122.573 355.586 121.13C355.063 119.688 354.198 118.394 353.065 117.36C353.065 117.36 347.695 112.36 341.605 115.65C339.376 116.898 337.666 118.902 336.785 121.3C336.439 122.208 336.191 123.15 336.045 124.11C335.555 127.41 334.745 136.91 334.745 136.91L335.685 137.79C338.455 137.24 346.685 134.53 349.265 133.6C352.495 132.43 355.595 129.48 356.065 125.64ZM342.905 130C341.998 129.152 341.363 128.054 341.08 126.844C340.797 125.635 340.879 124.369 341.316 123.207C341.752 122.044 342.523 121.037 343.532 120.313C344.541 119.588 345.742 119.179 346.983 119.138C348.224 119.096 349.45 119.423 350.505 120.077C351.56 120.732 352.398 121.684 352.912 122.815C353.426 123.945 353.593 125.203 353.392 126.428C353.192 127.654 352.632 128.793 351.785 129.7C350.646 130.916 349.071 131.63 347.407 131.686C345.742 131.742 344.123 131.136 342.905 130V130Z" fill="#263238"/>
<path d="M356.975 126.56C357.183 125.04 357.018 123.493 356.496 122.05C355.973 120.608 355.108 119.314 353.975 118.28C353.975 118.28 348.605 113.28 342.515 116.57C340.28 117.82 338.569 119.833 337.695 122.24C337.349 123.148 337.101 124.09 336.955 125.05C336.465 128.35 335.655 137.85 335.655 137.85C335.655 137.85 347.065 135.66 350.175 134.54C353.285 133.42 356.495 130.4 356.975 126.56ZM342.875 130.04C342.266 129.48 341.776 128.804 341.431 128.052C341.087 127.3 340.896 126.487 340.869 125.661C340.842 124.834 340.979 124.011 341.274 123.238C341.569 122.465 342.014 121.759 342.585 121.16C343.434 120.254 344.533 119.62 345.743 119.339C346.952 119.057 348.218 119.141 349.38 119.578C350.542 120.016 351.548 120.789 352.272 121.798C352.995 122.808 353.402 124.009 353.443 125.25C353.483 126.491 353.155 127.717 352.499 128.771C351.844 129.826 350.89 130.663 349.759 131.175C348.628 131.688 347.37 131.854 346.145 131.652C344.919 131.45 343.781 130.889 342.875 130.04V130.04Z" fill="#455A64"/>
<path d="M351.495 120.83C350.548 119.942 349.349 119.369 348.064 119.19C346.778 119.01 345.468 119.234 344.315 119.83C345.401 119.381 346.604 119.299 347.74 119.598C348.877 119.897 349.884 120.56 350.609 121.485C351.333 122.41 351.735 123.547 351.752 124.722C351.769 125.897 351.401 127.046 350.704 127.992C350.007 128.938 349.019 129.63 347.892 129.962C346.765 130.294 345.56 130.248 344.461 129.83C343.363 129.413 342.431 128.647 341.809 127.65C341.186 126.654 340.908 125.48 341.015 124.31C340.824 125.381 340.915 126.484 341.279 127.509C341.643 128.535 342.267 129.448 343.089 130.16C343.912 130.871 344.906 131.357 345.973 131.569C347.04 131.782 348.144 131.713 349.177 131.37C350.209 131.027 351.135 130.422 351.863 129.613C352.592 128.805 353.097 127.821 353.331 126.759C353.565 125.696 353.518 124.591 353.197 123.552C352.875 122.512 352.288 121.575 351.495 120.83V120.83Z" fill="#263238"/>
<path d="M166.865 320.33H203.955C203.955 320.33 200.675 314.33 191.125 315.23C182.005 316.06 181.545 312.29 176.905 311.83C172.265 311.37 168.415 314.92 166.865 320.33Z" fill="white"/>
<path d="M192.365 288.15H247.255C247.255 288.15 242.405 279.32 228.255 280.6C214.755 281.83 214.075 276.26 207.255 275.6C200.435 274.94 194.655 280.15 192.365 288.15Z" fill="white"/>
<path d="M121.175 206.1H157.085C157.085 206.1 153.905 200.33 144.665 201.17C135.835 201.97 135.385 198.32 130.905 197.88C126.425 197.44 122.675 200.87 121.175 206.1Z" fill="white"/>
</svg>
